<?xml version="1.0" encoding="UTF-8"?>
<!DOCTYPE svg PUBLIC "-//W3C//DTD SVG 1.1//EN" "http://www.w3.org/Graphics/SVG/1.1/DTD/svg11.dtd">
<!-- Creator: CorelDRAW X7 -->
<svg xmlns="http://www.w3.org/2000/svg" xml:space="preserve" width="1024px" height="194px" version="1.1" style="shape-rendering:geometricPrecision; text-rendering:geometricPrecision; image-rendering:optimizeQuality; fill-rule:evenodd; clip-rule:evenodd"
viewBox="0 0 102400 19400"
 xmlns:xlink="http://www.w3.org/1999/xlink">
 <defs>
  <style type="text/css">
   <![CDATA[
    .fil0 {fill:#FEFEFE}
    .fil1 {fill:#FEFEFE;fill-rule:nonzero}
   ]]>
  </style>
 </defs>
 <g id="Layer_x0020_1">
  <metadata id="CorelCorpID_0Corel-Layer"/>
  <g id="_528562488">
   <path class="fil0" d="M6064 16509c-3413,-392 -6064,-3291 -6064,-6809 0,-3242 2250,-5957 5273,-6671l0 -700 -560 0 675 -1170 676 -1170 675 1170 675 1170 -560 0 0 2129c-294,0 -582,25 -862,71 -18,3 -35,6 -52,9 -23,4 -46,9 -69,13 -18,3 -35,7 -53,10 -23,5 -46,10 -69,15 -17,3 -35,7 -52,11 -23,5 -45,10 -68,16 -17,4 -35,8 -53,13 -22,5 -44,11 -67,17 -17,4 -34,9 -51,14 -23,6 -45,12 -68,19 -16,5 -33,10 -50,15 -22,7 -45,13 -67,20 -16,5 -32,11 -49,16 -22,8 -45,15 -67,23 -16,5 -31,10 -46,16 -23,8 -47,16 -69,24 -12,5 -23,9 -34,13 -55,21 -109,42 -163,65 -7,3 -15,6 -22,9 -23,9 -45,19 -67,29 -15,6 -30,13 -45,19 -21,10 -41,19 -61,29 -17,7 -33,15 -49,23 -21,9 -41,19 -61,29 -16,8 -32,16 -47,24 -21,10 -40,20 -60,30 -16,9 -32,17 -48,26 -19,10 -39,20 -58,31 -16,9 -32,18 -48,27 -19,11 -38,22 -57,32 -15,9 -31,19 -46,28 -20,11 -39,23 -58,35 -15,9 -29,18 -44,27 -19,12 -38,24 -57,36 -15,10 -29,19 -43,29 -19,12 -39,25 -58,38 -13,9 -26,18 -40,27 -34,24 -68,48 -102,73 -16,12 -32,23 -48,35 -18,13 -34,26 -51,39 -15,11 -30,22 -44,34 -17,13 -34,27 -51,40 -15,12 -29,23 -43,35 -16,13 -32,27 -48,40 -15,13 -30,25 -45,38 -15,13 -31,27 -46,40 -15,13 -29,26 -44,39 -15,13 -30,27 -46,41 -14,14 -29,27 -43,40 -15,14 -29,28 -44,42 -14,14 -28,27 -42,41 -15,15 -29,29 -44,44 -14,14 -27,28 -41,42 -14,14 -28,29 -42,43 -14,15 -28,31 -43,46 -13,14 -26,28 -39,42 -21,24 -42,48 -63,72 -16,18 -31,36 -47,54 -15,17 -30,35 -44,53 -12,14 -24,28 -35,43 -14,17 -27,33 -41,50 -12,15 -23,30 -35,46 -13,16 -26,33 -38,50 -12,15 -23,30 -35,46 -12,17 -25,34 -37,51 -11,15 -22,31 -33,46 -12,18 -24,35 -36,53 -11,16 -22,32 -33,47 -12,18 -23,36 -35,54 -10,16 -20,31 -30,47 -12,19 -23,37 -35,55 -10,16 -20,32 -29,49 -12,19 -23,38 -35,58 -9,15 -18,30 -26,45 -14,24 -27,48 -41,72 -6,11 -12,22 -18,33 -19,35 -38,71 -56,106 -6,12 -12,24 -18,36 -12,25 -24,49 -36,73 -7,15 -14,30 -21,45 -11,22 -21,44 -31,66 -7,15 -14,31 -21,46 -9,22 -19,44 -28,65 -7,17 -14,33 -21,50 -9,21 -17,42 -26,63 -7,17 -14,34 -20,52 -8,21 -16,41 -24,63 -7,17 -13,34 -19,51 -8,22 -15,43 -23,65 -6,17 -12,35 -18,52 -7,22 -14,45 -22,67 -5,17 -10,33 -15,50 -8,25 -15,50 -23,75 -4,14 -8,28 -12,43 -10,34 -19,68 -28,103 -2,5 -3,11 -4,16 -11,40 -21,81 -30,121 -3,12 -5,23 -8,35 -6,29 -13,57 -19,86 -3,16 -6,33 -9,49 -5,25 -10,50 -14,75 -3,17 -6,34 -9,51 -4,24 -9,48 -12,72 -3,18 -6,36 -8,54 -4,24 -7,48 -10,71 -3,19 -5,37 -7,55 -3,24 -6,48 -8,72 -3,19 -4,37 -6,55 -3,24 -5,49 -7,73 -1,18 -3,36 -4,54 -2,26 -3,51 -5,77 -1,17 -2,34 -3,51 -1,29 -2,57 -3,86 -1,14 -1,28 -2,42 -1,43 -1,87 -1,130 0,43 0,86 1,129 1,14 1,29 2,43 1,28 2,57 3,86 1,17 2,34 3,51 2,25 3,51 5,77 1,18 3,36 4,54 2,24 4,49 7,73 2,18 3,36 6,54 2,25 5,49 8,73 2,18 4,36 7,54 3,24 6,48 10,72 2,18 5,35 8,53 3,25 8,49 12,73 3,17 6,34 9,51 4,25 9,50 14,75 3,16 6,33 9,49 6,29 13,57 19,86 3,11 5,23 8,35 9,40 19,81 30,121l4 16c9,34 18,69 28,103 4,14 8,29 12,43 8,25 15,50 23,75 5,17 10,33 15,50 8,22 15,45 22,67 6,17 12,35 18,52 7,21 15,43 23,64 6,18 12,35 19,52 8,21 16,42 24,63 6,17 13,35 20,52 9,21 17,42 26,63 7,17 14,33 21,49 9,22 19,44 28,66 7,15 14,31 21,46 10,22 20,44 31,66 7,15 14,30 21,45 12,24 24,48 36,72 6,12 12,25 18,37 18,35 37,70 56,105 6,12 12,23 18,34 14,24 27,48 41,72 8,15 17,30 26,45 12,19 23,39 35,58 9,16 19,33 29,49 12,18 23,36 35,55 10,15 20,31 30,47 12,18 23,36 35,53 11,16 22,32 33,48 12,17 24,35 36,52 11,16 22,31 33,47 12,17 25,34 37,51 12,15 23,31 35,46 12,17 25,34 38,50 12,15 23,31 35,46 14,17 27,33 41,50 11,14 23,29 35,43 14,18 29,35 44,53 16,18 31,36 47,54 21,24 42,48 63,71 13,15 26,29 39,43 15,15 29,30 43,46 14,14 28,29 42,43 14,14 27,28 41,42 15,15 29,29 44,44 14,13 28,27 42,41 15,14 29,27 44,41 14,14 29,27 43,41 16,14 31,27 46,41 15,13 29,26 44,39 15,13 31,27 46,40 15,13 30,25 45,38 15,13 32,27 48,40 14,12 28,23 43,34 17,14 34,28 51,41 14,11 29,23 44,34 17,13 33,26 51,38 16,13 32,24 48,36 34,24 68,49 102,73 14,9 27,18 40,27 19,13 39,26 58,38 14,10 28,19 43,28 19,13 38,25 57,36 15,10 29,19 44,28 19,12 38,23 58,35 15,9 31,18 46,27 19,11 38,22 57,33 16,9 32,18 48,27 19,10 39,21 58,31 16,9 32,17 48,25 20,11 39,21 60,31 15,8 31,16 47,24 20,10 40,20 61,29 16,8 32,16 49,23 20,10 40,19 61,28 15,7 30,14 45,20 22,10 44,20 67,29 7,3 15,6 22,9 54,23 108,44 163,65 11,4 22,8 34,12 22,9 46,17 69,25 15,5 30,11 46,16 22,8 45,15 67,23 17,5 33,10 49,15 22,8 45,14 67,21 17,5 34,10 50,15 23,7 45,13 68,19 17,5 34,9 51,14 23,6 45,12 67,17 18,5 36,9 53,13 23,6 45,11 68,16 17,4 35,7 52,11 23,5 46,10 69,15 18,3 35,7 53,10 23,4 46,9 69,13 17,3 34,5 52,8 24,4 48,8 72,12l0 1627z"/>
   <path class="fil0" d="M7645 2891c3413,392 6064,3291 6064,6809 0,3241 -2250,5957 -5274,6671l0 700 561 0 -676 1170 -675 1169 -676 -1169 -675 -1170 560 0 0 -2130c294,0 582,-24 863,-71 17,-3 34,-5 52,-8 23,-4 46,-9 69,-13 17,-3 35,-7 53,-10 23,-5 46,-10 69,-15 17,-4 35,-7 52,-11 22,-5 45,-10 67,-16 18,-4 36,-8 53,-13 23,-5 45,-11 67,-17 17,-5 35,-9 52,-14 22,-6 45,-12 67,-19 17,-5 33,-10 50,-15 23,-7 45,-13 68,-21 16,-5 32,-10 48,-15 23,-8 45,-15 68,-23 15,-5 30,-11 46,-16 23,-8 46,-16 69,-25 11,-4 22,-8 34,-12 54,-21 108,-42 162,-65 8,-3 15,-6 23,-9 22,-9 44,-19 67,-29 15,-6 30,-13 45,-20 20,-9 41,-18 61,-28 16,-7 33,-15 49,-23 20,-9 40,-19 60,-29 16,-8 32,-16 48,-24 20,-10 40,-20 60,-31 16,-8 32,-16 47,-25 20,-10 39,-21 58,-31 17,-9 33,-18 49,-27 19,-11 37,-22 56,-33 16,-9 31,-18 47,-27 19,-12 38,-23 57,-35 15,-9 30,-18 45,-28 19,-11 38,-23 57,-36 14,-9 28,-18 43,-28 19,-12 38,-25 57,-38 14,-9 27,-18 40,-27 34,-24 68,-48 102,-73 17,-12 33,-23 49,-36 17,-12 34,-25 51,-38 14,-11 29,-23 44,-34 17,-13 34,-27 51,-41 14,-11 29,-22 43,-34 16,-13 32,-27 48,-40 15,-13 30,-25 44,-38 16,-13 32,-27 47,-40 15,-13 29,-26 43,-39 16,-14 31,-27 46,-41 15,-14 29,-27 43,-41 15,-14 30,-27 45,-41 14,-14 27,-28 41,-41 15,-15 30,-29 45,-44 13,-14 27,-28 41,-42 14,-14 28,-29 42,-43 14,-16 28,-31 42,-46 13,-14 26,-28 39,-43 22,-23 43,-47 64,-71 15,-18 31,-36 46,-54 15,-18 30,-35 45,-53 12,-14 23,-29 35,-43 13,-17 27,-33 40,-50 12,-15 24,-31 36,-46 13,-16 25,-33 38,-50 12,-15 23,-31 34,-46 13,-17 25,-34 38,-51 11,-16 22,-31 33,-47 12,-17 24,-35 36,-52 11,-16 22,-32 32,-48 12,-17 24,-35 35,-53 11,-16 21,-32 31,-47 12,-19 23,-37 34,-55 10,-16 20,-33 30,-49 12,-19 23,-39 34,-58 9,-15 18,-30 27,-45 13,-24 27,-48 40,-72 6,-11 13,-22 19,-34 19,-35 37,-70 56,-105 6,-12 12,-25 18,-37 12,-24 24,-48 36,-72 7,-15 14,-30 21,-45 10,-22 21,-44 31,-66 7,-15 13,-31 20,-46 10,-22 20,-44 29,-66 7,-16 14,-32 21,-49 8,-21 17,-42 25,-63 7,-17 14,-35 21,-52 8,-21 16,-42 24,-63 6,-17 12,-34 19,-52 8,-21 15,-43 22,-64 6,-17 12,-35 18,-52 8,-22 15,-45 22,-67 5,-17 11,-33 16,-50 8,-25 15,-50 22,-75 4,-14 9,-29 13,-43 9,-34 19,-69 28,-103 1,-5 3,-11 4,-16 10,-40 20,-81 30,-121 2,-12 5,-24 7,-35 7,-29 13,-57 19,-86 3,-16 7,-33 10,-49 5,-25 9,-50 14,-75 3,-17 6,-34 9,-51 4,-24 8,-48 12,-73 3,-18 5,-35 8,-53 3,-24 7,-48 10,-72 2,-18 5,-36 7,-54 3,-24 5,-48 8,-73 2,-18 4,-36 6,-54 2,-24 4,-49 6,-73 2,-18 3,-36 5,-54 2,-26 3,-52 4,-77 1,-17 3,-34 3,-51 2,-29 3,-58 4,-86 0,-14 1,-29 1,-43 1,-43 2,-86 2,-129 0,-43 -1,-87 -2,-130 0,-14 -1,-28 -1,-42 -1,-29 -2,-57 -4,-86 0,-17 -1,-34 -3,-51 -1,-26 -2,-51 -4,-77 -2,-18 -3,-36 -5,-54 -2,-24 -4,-49 -6,-73 -2,-18 -4,-36 -6,-55 -3,-24 -5,-48 -8,-72 -2,-18 -5,-36 -7,-55 -3,-23 -7,-47 -10,-71 -3,-18 -5,-36 -8,-54 -4,-24 -8,-48 -12,-72 -3,-17 -6,-34 -9,-51 -5,-25 -9,-50 -14,-75 -3,-16 -7,-33 -10,-49 -6,-29 -12,-57 -19,-86 -2,-12 -5,-23 -7,-35 -10,-40 -20,-81 -30,-121l-4 -16c-9,-35 -19,-69 -28,-103 -4,-15 -9,-29 -13,-43 -7,-25 -14,-50 -22,-75 -5,-17 -11,-33 -16,-50 -7,-22 -14,-45 -22,-67 -6,-17 -12,-35 -18,-52 -7,-22 -14,-43 -22,-65 -7,-17 -13,-34 -19,-51 -8,-22 -16,-42 -24,-63 -7,-18 -14,-35 -21,-52 -8,-21 -17,-42 -25,-63 -7,-17 -14,-33 -21,-50 -9,-21 -19,-43 -29,-65 -7,-15 -13,-31 -20,-46 -10,-22 -21,-44 -31,-66 -7,-15 -14,-30 -21,-45 -12,-24 -24,-48 -36,-73 -6,-12 -12,-24 -18,-36 -19,-35 -37,-71 -56,-106 -6,-11 -13,-22 -19,-33 -13,-24 -27,-48 -40,-72 -9,-15 -18,-30 -27,-45 -11,-20 -22,-39 -34,-58 -10,-17 -20,-33 -30,-49 -11,-18 -22,-36 -34,-55 -10,-16 -20,-31 -31,-47 -11,-18 -23,-36 -35,-54 -10,-15 -21,-31 -32,-47 -12,-18 -24,-35 -36,-53 -11,-15 -22,-31 -33,-46 -13,-17 -25,-34 -38,-51 -11,-16 -22,-31 -34,-46 -13,-17 -25,-34 -38,-50 -12,-16 -24,-31 -36,-46 -13,-17 -27,-33 -40,-50 -12,-15 -23,-29 -35,-43 -15,-18 -30,-36 -45,-53 -15,-18 -31,-36 -46,-54 -21,-24 -42,-48 -64,-72 -13,-14 -26,-28 -39,-42 -14,-15 -28,-31 -42,-46 -14,-14 -28,-29 -42,-43 -14,-14 -28,-28 -41,-42 -15,-15 -30,-29 -45,-44 -14,-14 -27,-27 -41,-41 -15,-14 -30,-28 -45,-42 -14,-13 -28,-26 -43,-40 -15,-14 -30,-28 -46,-41 -14,-13 -28,-26 -43,-39 -15,-13 -31,-27 -47,-40 -14,-13 -29,-25 -44,-38 -16,-13 -32,-27 -48,-40 -14,-12 -29,-23 -43,-35 -17,-13 -34,-27 -51,-40 -15,-12 -30,-23 -44,-34 -17,-13 -34,-26 -51,-39 -16,-12 -32,-23 -49,-35 -34,-25 -68,-49 -102,-73 -13,-9 -26,-18 -40,-27 -19,-13 -38,-26 -57,-38 -15,-10 -29,-19 -43,-29 -19,-12 -38,-24 -57,-36 -15,-9 -30,-18 -45,-27 -19,-12 -38,-24 -57,-35 -16,-9 -31,-19 -47,-28 -18,-10 -37,-21 -56,-32 -16,-9 -32,-18 -49,-27 -19,-11 -38,-21 -58,-31 -15,-9 -31,-17 -47,-26 -20,-10 -40,-20 -60,-30 -16,-8 -32,-16 -48,-24 -20,-10 -40,-20 -60,-29 -16,-8 -33,-16 -49,-23 -20,-10 -41,-19 -61,-29 -15,-6 -30,-13 -45,-19 -23,-10 -45,-20 -67,-29 -8,-3 -15,-6 -23,-9 -54,-23 -108,-44 -162,-65 -12,-4 -23,-8 -34,-13 -23,-8 -46,-16 -69,-24 -16,-6 -31,-11 -46,-16 -23,-8 -45,-15 -68,-23 -16,-5 -32,-11 -48,-16 -23,-7 -45,-13 -68,-20 -17,-5 -33,-10 -50,-15 -22,-7 -45,-13 -67,-19 -17,-5 -35,-10 -52,-14 -22,-6 -44,-12 -67,-17 -17,-5 -35,-9 -53,-13 -22,-6 -45,-11 -67,-16 -17,-4 -35,-8 -52,-11 -23,-5 -46,-10 -69,-15 -18,-3 -36,-7 -53,-10 -23,-4 -46,-9 -69,-13 -18,-3 -35,-6 -52,-9 -24,-3 -48,-8 -72,-11l0 -1627z"/>
   <path class="fil0" d="M6854 6927c1026,0 1922,558 2402,1386l1200 -693 241 -138c-767,-1326 -2201,-2218 -3843,-2218 -2450,0 -4436,1986 -4436,4436 0,2450 1986,4436 4436,4436 1642,0 3076,-892 3843,-2218l-241 -139 -1200 -693c-480,829 -1376,1387 -2402,1387 -1531,0 -2772,-1242 -2772,-2773 0,-1531 1241,-2773 2772,-2773z"/>
   <path class="fil1" d="M21614 7380l0 1291c-574,-342 -1076,-513 -1508,-513 -430,0 -775,148 -1034,444 -258,297 -387,695 -387,1196 0,473 136,852 408,1136 272,284 636,426 1091,426 398,0 875,-163 1430,-488l0 1291c-622,209 -1141,314 -1556,314 -713,0 -1320,-262 -1817,-786 -498,-524 -748,-1164 -748,-1918 0,-768 254,-1418 761,-1950 508,-532 1126,-799 1852,-799 469,0 971,119 1508,356zm860 -281l1125 0 0 3243c0,301 85,544 251,727 169,183 389,275 662,275 315,0 557,-93 731,-278 173,-183 259,-444 259,-780l0 -3187 1126 0 0 3435c0,301 -79,614 -235,939 -157,324 -397,572 -722,745 -326,172 -690,259 -1091,259 -730,0 -1262,-203 -1600,-608 -338,-405 -506,-832 -506,-1278l0 -3492zm5236 0l1750 0c532,0 953,139 1262,419 309,280 463,659 463,1135 0,272 -70,555 -212,848 -142,293 -404,523 -786,690l1486 2212 -1310 0 -1379 -2052 -132 0 0 2052 -1142 0 0 -5304zm1142 943l0 1382 251 0c605,0 907,-244 907,-731 0,-200 -78,-358 -235,-476 -158,-117 -377,-175 -655,-175l-268 0zm3682 -943l1750 0c532,0 953,139 1262,419 309,280 463,659 463,1135 0,272 -70,555 -212,848 -142,293 -405,523 -787,690l1487 2212 -1310 0 -1379 -2052 -132 0 0 2052 -1142 0 0 -5304zm1142 943l0 1382 251 0c605,0 907,-244 907,-731 0,-200 -79,-358 -236,-476 -157,-117 -376,-175 -655,-175l-267 0zm3706 -943l2987 0 0 1051 -1845 0 0 1067 1845 0 0 1034 -1845 0 0 1101 1845 0 0 1051 -2987 0 0 -5304zm7463 0l1118 0 0 5304 -1106 0 -2436 -3434 0 3434 -1142 0 0 -5304 1128 0 2438 3409 0 -3409zm6148 281l0 1291c-574,-342 -1076,-513 -1507,-513 -431,0 -775,148 -1034,444 -258,297 -388,695 -388,1196 0,473 137,852 408,1136 272,284 636,426 1091,426 398,0 876,-163 1430,-488l0 1291c-622,209 -1140,314 -1555,314 -713,0 -1320,-262 -1818,-786 -498,-524 -747,-1164 -747,-1918 0,-768 253,-1418 761,-1950 507,-532 1125,-799 1852,-799 469,0 971,119 1507,356zm455 -281l1266 0 982 1640 980 -1640 1281 0 -1688 2821 0 2483 -1133 0 0 -2483 -1688 -2821z"/>
   <path class="fil1" d="M63892 7380l0 1291c-573,-342 -1075,-513 -1507,-513 -430,0 -775,148 -1034,444 -258,297 -388,695 -388,1196 0,473 137,852 408,1136 272,284 636,426 1091,426 399,0 876,-163 1430,-488l0 1291c-622,209 -1140,314 -1555,314 -713,0 -1320,-262 -1818,-786 -498,-524 -747,-1164 -747,-1918 0,-768 254,-1418 761,-1950 507,-532 1125,-799 1852,-799 469,0 971,119 1507,356zm687 2370c0,-785 259,-1432 778,-1944 518,-510 1133,-765 1843,-765 788,0 1437,257 1952,770 514,514 772,1162 772,1945 0,780 -255,1426 -764,1941 -509,514 -1150,772 -1922,772 -774,0 -1410,-257 -1910,-768 -499,-512 -749,-1163 -749,-1951zm2678 -1650c-445,-8 -804,145 -1077,461 -273,316 -410,722 -410,1220 0,472 140,862 418,1172 278,311 629,465 1054,465 445,0 805,-153 1080,-459 274,-305 411,-709 411,-1209 0,-494 -134,-890 -403,-1189 -269,-300 -626,-453 -1073,-461zm7128 -1001l1117 0 0 5304 -1106 0 -2435 -3434 0 3434 -1142 0 0 -5304 1128 0 2438 3409 0 -3409zm1746 0l1157 0 1337 3525 1335 -3525 1168 0 -2009 5304 -985 0 -2003 -5304zm5699 0l2987 0 0 1051 -1845 0 0 1067 1845 0 0 1034 -1845 0 0 1101 1845 0 0 1051 -2987 0 0 -5304zm3938 0l1750 0c533,0 953,139 1262,419 309,280 464,659 464,1135 0,272 -71,555 -213,848 -142,293 -404,523 -786,690l1487 2212 -1310 0 -1379 -2052 -133 0 0 2052 -1142 0 0 -5304zm1142 943l0 1382 251 0c606,0 908,-244 908,-731 0,-200 -79,-358 -236,-476 -157,-117 -377,-175 -655,-175l-268 0zm3253 -943l3566 0 0 1125 -1216 0 0 4179 -1142 0 0 -4179 -1208 0 0 -1125zm4336 0l2987 0 0 1051 -1845 0 0 1067 1845 0 0 1034 -1845 0 0 1101 1845 0 0 1051 -2987 0 0 -5304zm3938 0l1750 0c533,0 953,139 1262,419 309,280 463,659 463,1135 0,272 -70,555 -212,848 -142,293 -404,523 -786,690l1486 2212 -1309 0 -1379 -2052 -133 0 0 2052 -1142 0 0 -5304zm1142 943l0 1382 251 0c606,0 908,-244 908,-731 0,-200 -79,-358 -236,-476 -157,-117 -377,-175 -655,-175l-268 0z"/>
  </g>
 </g>
</svg>
