<?xml version="1.0" encoding="UTF-8"?>
<!DOCTYPE svg PUBLIC "-//W3C//DTD SVG 1.1//EN" "http://www.w3.org/Graphics/SVG/1.1/DTD/svg11.dtd">
<!-- Creator: CorelDRAW X7 -->
<svg xmlns="http://www.w3.org/2000/svg" xml:space="preserve" width="144px" height="144px" version="1.1" style="shape-rendering:geometricPrecision; text-rendering:geometricPrecision; image-rendering:optimizeQuality; fill-rule:evenodd; clip-rule:evenodd"
viewBox="0 0 14400 14400"
 xmlns:xlink="http://www.w3.org/1999/xlink">
 <defs>
  <style type="text/css">
   <![CDATA[
    .fil4 {fill:#F0C84D}
    .fil2 {fill:#02813E}
    .fil3 {fill:#2C30FA}
    .fil1 {fill:#DEDEDE}
    .fil0 {fill:#EBEBEB}
   ]]>
  </style>
 </defs>
 <g id="Layer_x0020_1">
  <metadata id="CorelCorpID_0Corel-Layer"/>
  <g id="_524515792">
   <rect class="fil0" width="14400" height="14400" rx="2963" ry="2963"/>
   <path class="fil1" d="M14400 7872l0 3565c0,1630 -1333,2963 -2963,2963l-2792 0 -901 -510 370 -640 -3289 -1968 186 103 190 94 196 86 200 78 204 68 208 59 212 50 216 40 218 31 0 -750 -1410 -905 -4 -2 -3 -2 -4 -3 -4 -2 -3 -3 -4 -2 -4 -3 -3 -2 -5 -3 -5 -4 -5 -3 -5 -3 -5 -3 -5 -4 -5 -3 -5 -3 -3 -3 -4 -2 -3 -2 -4 -3 -3 -2 -4 -2 -3 -3 -3 -2 -9 -6 -9 -7 -9 -6 -9 -6 -9 -6 -8 -7 -9 -6 -9 -6 -4 -3 -4 -3 -5 -3 -4 -3 -4 -3 -4 -4 -4 -3 -4 -3 -5 -3 -4 -3 -5 -4 -4 -3 -4 -3 -5 -4 -4 -3 -5 -3 -3 -3 -4 -3 -4 -3 -4 -3 -3 -3 -4 -3 -4 -3 -4 -3 -4 -3 -5 -4 -4 -3 -4 -3 -5 -4 -4 -4 -5 -3 -4 -4 -4 -3 -3 -3 -4 -3 -4 -2 -3 -3 -4 -3 -4 -3 -3 -3 -5 -4 -4 -3 -4 -4 -4 -3 -4 -4 -5 -3 -4 -4 -4 -3 -4 -3 -3 -4 -4 -3 -4 -3 -4 -3 -4 -3 -3 -4 -4 -3 -4 -3 -4 -4 -4 -3 -4 -4 -4 -3 -4 -4 -4 -3 -4 -4 -4 -3 -4 -3 -4 -4 -3 -3 -4 -3 -4 -4 -4 -3 -3 -3 -4 -4 -4 -4 -4 -3 -4 -4 -4 -3 -4 -4 -4 -3 -4 -4 -4 -3 -3 -4 -4 -3 -4 -4 -3 -3 -4 -4 -4 -3 -4 -4 -3 -3 -4 -4 -4 -4 -4 -3 -4 -4 -3 -3 -4 -4 -4 -4 -4 -3 -3 -3 -4 -4 -3 -4 -4 -3 -4 -4 -3 -3 -4 -4 -4 -3 -3 -4 -4 -4 -4 -4 -4 -4 -4 -3 -3 -4 -4 -4 -4 -3 -3 -4 -4 -4 -3 -3 -4 -4 -3 -3 -4 -4 -4 -4 -3 -3 -4 -4 -3 -4 -4 -4 -4 -3 -3 -4 -4 -4 -3 -4 -4 -4 -4 -3 -3 -4 -4 -4 -4 -4 -3 -4 -4 -4 -4 -4 -3 -4 -4 -4 -3 -3 -3 -4 -4 -3 -3 -4 -4 -4 -3 -3 -5 -7 -6 -6 -5 -6 -6 -6 -5 -6 -6 -6 -5 -7 -6 -6 -4 -4 -4 -5 -4 -5 -4 -4 -4 -5 -4 -5 -4 -4 -4 -5 -3 -4 -4 -5 -4 -4 -4 -5 -4 -5 -4 -4 -3 -5 -4 -4 -3 -4 -3 -4 -3 -3 -3 -4 -3 -4 -3 -3 -3 -4 -3 -4 -4 -4 -3 -4 -4 -5 -3 -4 -4 -4 -3 -5 -4 -4 -3 -4 -3 -4 -3 -4 -3 -4 -4 -4 -3 -4 -3 -4 -3 -4 -3 -4 -3 -4 -3 -5 -4 -4 -3 -4 -3 -4 -3 -5 -4 -4 -3 -4 -3 -4 -3 -4 -3 -4 -3 -4 -3 -4 -3 -4 -3 -4 -3 -4 -3 -5 -3 -4 -3 -4 -4 -5 -3 -4 -3 -5 -3 -4 -3 -4 -3 -4 -3 -4 -3 -4 -3 -4 -3 -4 -2 -4 -3 -4 -3 -4 -3 -5 -3 -4 -4 -5 -3 -4 -3 -5 -3 -5 -3 -4 -3 -5 -3 -4 -3 -4 -2 -4 -3 -4 -3 -4 -3 -4 -3 -4 -2 -4 -3 -5 -3 -4 -3 -5 -3 -5 -3 -4 -3 -5 -3 -4 -4 -5 -2 -4 -3 -4 -2 -4 -3 -4 -3 -5 -2 -4 -3 -4 -3 -4 -3 -4 -3 -5 -3 -5 -2 -5 -3 -4 -3 -5 -3 -5 -3 -5 -3 -4 -2 -4 -3 -4 -3 -4 -2 -4 -3 -5 -2 -4 -3 -4 -3 -5 -3 -5 -3 -5 -3 -5 -3 -5 -3 -5 -2 -5 -3 -5 -3 -4 -2 -4 -2 -4 -3 -4 -2 -3 -2 -4 -2 -4 -3 -4 -3 -6 -4 -6 -3 -7 -4 -6 -3 -6 -3 -6 -4 -7 -3 -6 -2 -3 -2 -3 -1 -2 -2 -3 -1 -3 -2 -3 -2 -3 -1 -3 -5 -9 -5 -9 -5 -9 -5 -9 -4 -9 -5 -9 -5 -10 -5 -9 -1 -3 -2 -3 -1 -3 -2 -3 -1 -3 -2 -3 -2 -4 -1 -3 -3 -6 -3 -6 -3 -6 -4 -6 -3 -7 -3 -6 -3 -6 -3 -7 -2 -3 -2 -4 -1 -4 -2 -4 -2 -4 -2 -4 -2 -4 -2 -3 -2 -6 -3 -6 -3 -5 -2 -6 -3 -6 -2 -5 -3 -6 -3 -6 -2 -4 -1 -4 -2 -4 -2 -4 -2 -4 -1 -4 -2 -4 -2 -4 -2 -5 -3 -6 -2 -6 -3 -5 -2 -6 -3 -5 -2 -6 -3 -6 -1 -4 -2 -4 -2 -5 -2 -4 -2 -4 -1 -4 -2 -5 -2 -4 -2 -5 -2 -6 -3 -5 -2 -6 -2 -5 -2 -5 -2 -6 -3 -5 -1 -5 -2 -4 -2 -5 -2 -4 -2 -5 -1 -4 -2 -5 -2 -4 -2 -5 -2 -6 -2 -5 -2 -6 -2 -5 -2 -5 -2 -6 -2 -5 -2 -5 -1 -4 -2 -5 -2 -4 -1 -5 -2 -4 -2 -5 -1 -4 -2 -6 -2 -5 -2 -6 -2 -5 -2 -6 -2 -5 -2 -6 -2 -6 -2 -4 -1 -4 -2 -5 -1 -4 -2 -5 -1 -4 -2 -5 -1 -4 -2 -6 -2 -6 -2 -6 -2 -5 -2 -6 -2 -6 -1 -6 -2 -5 -2 -5 -1 -4 -1 -4 -2 -5 -1 -4 -1 -4 -2 -4 -1 -5 -2 -6 -2 -7 -2 -6 -2 -7 -2 -6 -2 -6 -2 -7 -1 -6 -2 -4 -1 -4 -1 -4 -1 -3 -1 -4 -1 -4 -1 -3 -1 -4 -3 -9 -2 -9 -3 -9 -2 -9 -2 -8 -3 -9 -2 -9 -2 -9 -3 -11 -3 -11 -3 -10 -2 -10 -3 -11 -2 -10 -3 -11 -2 -10 -3 -11 0 -3 -1 -3 -1 -3 0 -3 -1 -3 -1 -3 0 -3 -1 -3 -2 -7 -1 -7 -2 -8 -2 -7 -1 -8 -2 -7 -1 -8 -2 -7 -1 -4 -1 -4 -1 -5 0 -4 -1 -4 -1 -4 -1 -4 -1 -5 -1 -6 -1 -6 -1 -7 -2 -6 -1 -7 -1 -6 -1 -7 -1 -6 -1 -4 -1 -5 -1 -4 -1 -5 0 -4 -1 -5 -1 -4 -1 -4 -1 -7 -1 -6 -1 -6 -1 -6 -1 -7 -1 -6 -1 -6 -1 -6 -1 -5 0 -5 -1 -4 -1 -5 0 -4 -1 -5 -1 -5 0 -4 -1 -7 -1 -6 -1 -6 -1 -6 -1 -6 -1 -6 0 -6 -1 -7 -1 -4 -1 -5 0 -5 -1 -4 0 -5 -1 -5 -1 -4 0 -5 -1 -6 -1 -6 0 -7 -1 -6 -1 -6 0 -6 -1 -7 -1 -6 0 -5 -1 -4 0 -5 -1 -5 0 -4 -1 -5 0 -5 -1 -5 0 -6 -1 -6 0 -6 -1 -7 -1 -6 0 -6 -1 -6 0 -7 -1 -4 0 -5 0 -5 -1 -4 0 -5 0 -5 -1 -4 0 -5 -1 -7 0 -6 0 -7 -1 -7 0 -6 -1 -7 0 -6 -1 -7 0 -4 0 -5 0 -4 -1 -5 0 -4 0 -4 0 -5 -1 -4 0 -8 0 -7 -1 -7 0 -8 0 -7 0 -8 0 -7 -1 -8 0 -3 0 -4 0 -4 0 -3 0 -4 -1 -3 0 -4 0 -4 0 -11 0 -11 0 -11 -1 -11 0 -11 0 -12 0 -11 0 -11 0 -11 0 -11 0 -11 0 -12 1 -11 0 -11 0 -11 0 -11 0 -4 0 -3 1 -4 0 -4 0 -3 0 -4 0 -4 0 -3 0 -8 1 -7 0 -7 0 -8 0 -7 1 -8 0 -7 0 -8 1 -4 0 -4 0 -5 1 -4 0 -4 0 -5 0 -4 0 -5 1 -6 0 -7 1 -7 0 -6 1 -7 0 -6 0 -7 1 -7 0 -4 1 -5 0 -5 0 -4 1 -5 0 -5 0 -4 1 -5 0 -6 1 -7 0 -6 1 -6 1 -6 0 -7 1 -6 0 -6 1 -5 0 -5 1 -4 0 -5 1 -5 0 -5 1 -4 0 -5 1 -6 1 -6 0 -7 1 -6 1 -6 0 -6 1 -6 1 -7 0 -4 1 -5 1 -5 0 -4 1 -5 0 -5 1 -5 1 -4 1 -6 0 -7 1 -6 1 -6 1 -6 1 -6 1 -6 1 -6 0 -5 1 -5 1 -4 0 -5 1 -5 1 -4 0 -5 1 -4 1 -7 1 -6 1 -6 1 -6 1 -7 1 -6 1 -6 1 -6 1 -5 1 -4 1 -5 0 -4 1 -5 1 -4 1 -4 1 -5 1 -6 1 -7 1 -6 1 -6 2 -7 1 -6 1 -7 1 -6 1 -4 1 -5 1 -4 1 -4 0 -4 1 -4 1 -5 1 -4 2 -7 1 -8 2 -7 1 -7 2 -8 2 -7 1 -8 2 -7 1 -3 0 -3 1 -3 1 -3 0 -3 1 -3 1 -3 0 -3 3 -10 2 -11 3 -10 2 -11 3 -10 2 -11 3 -10 3 -11 0 -1 0 -1 1 -2 0 -1 0 -2 1 -1 0 -1 1 -2 2 -9 2 -8 3 -9 2 -9 2 -9 3 -9 2 -9 3 -9 1 -3 1 -4 1 -4 1 -3 1 -4 1 -4 1 -4 2 -3 1 -7 2 -6 2 -7 2 -6 2 -7 2 -6 2 -7 2 -6 1 -4 2 -5 1 -4 1 -4 2 -4 1 -5 1 -4 2 -4 2 -6 1 -6 2 -6 2 -5 2 -6 2 -6 2 -6 2 -5 1 -5 2 -4 1 -5 2 -4 1 -5 2 -4 1 -5 2 -4 2 -6 2 -5 2 -6 2 -5 2 -6 2 -6 2 -5 2 -6 1 -4 2 -5 2 -4 1 -5 2 -4 2 -5 1 -4 2 -5 2 -5 2 -5 2 -6 2 -5 2 -6 2 -5 2 -5 2 -6 2 -4 2 -5 1 -4 2 -5 2 -4 2 -4 2 -5 1 -4 3 -6 2 -5 2 -6 2 -5 2 -6 3 -5 2 -5 2 -6 2 -4 2 -4 1 -5 2 -4 2 -4 2 -4 2 -5 1 -4 3 -6 2 -5 3 -6 2 -5 3 -6 2 -6 3 -5 2 -6 2 -4 2 -4 1 -4 2 -4 2 -4 2 -4 1 -4 2 -4 3 -6 3 -5 2 -6 3 -6 2 -5 3 -6 3 -6 2 -5 2 -4 2 -4 2 -4 2 -4 2 -4 1 -4 2 -3 2 -4 3 -7 3 -6 3 -6 3 -6 3 -6 4 -7 3 -6 3 -6 1 -3 2 -3 2 -3 1 -4 2 -3 1 -3 2 -3 1 -3 5 -9 5 -9 5 -10 4 -9 5 -9 5 -9 5 -9 5 -9 1 -3 2 -3 2 -3 1 -2 2 -3 1 -3 2 -3 2 -3 3 -6 4 -6 3 -7 3 -6 4 -6 3 -6 4 -7 3 -6 3 -4 2 -3 2 -4 2 -4 3 -4 2 -4 2 -4 3 -4 3 -5 2 -5 3 -5 3 -5 3 -5 3 -5 3 -5 3 -5 3 -4 2 -4 3 -4 2 -5 3 -4 3 -4 2 -4 3 -4 3 -5 3 -5 3 -4 3 -5 2 -5 3 -5 3 -4 3 -5 3 -4 3 -4 2 -4 3 -4 3 -4 2 -5 3 -4 2 -4 4 -4 3 -5 3 -5 3 -4 3 -5 3 -4 3 -5 3 -4 2 -5 3 -4 3 -4 3 -4 3 -4 2 -4 3 -4 3 -4 3 -5 3 -4 3 -5 3 -4 3 -5 4 -4 3 -5 3 -4 3 -4 3 -4 2 -4 3 -4 3 -4 3 -4 3 -4 3 -4 3 -5 3 -4 3 -5 3 -4 4 -4 3 -5 3 -4 3 -5 3 -4 3 -4 3 -4 3 -4 3 -4 3 -3 3 -4 3 -4 3 -5 4 -4 3 -4 3 -5 3 -4 4 -4 3 -5 3 -4 3 -4 3 -4 3 -4 3 -4 4 -3 3 -4 3 -4 3 -4 3 -5 4 -4 3 -4 4 -5 3 -4 4 -4 3 -5 4 -4 3 -4 3 -3 3 -4 3 -4 3 -4 3 -3 3 -4 3 -4 4 -4 3 -5 4 -4 4 -5 4 -4 4 -5 4 -4 3 -5 4 -5 4 -4 4 -5 4 -5 4 -4 4 -5 4 -5 4 -4 6 -6 5 -7 6 -6 5 -6 6 -6 5 -6 6 -6 5 -6 3 -4 4 -4 3 -3 4 -4 3 -4 3 -3 4 -4 3 -4 4 -3 4 -4 3 -4 4 -4 4 -4 3 -4 4 -4 4 -4 3 -4 4 -4 3 -3 4 -4 4 -4 3 -4 4 -3 3 -4 4 -4 4 -3 3 -4 4 -3 3 -4 4 -4 3 -3 4 -4 4 -4 3 -3 4 -4 4 -4 4 -4 4 -4 3 -3 4 -4 4 -4 3 -3 4 -4 4 -3 3 -4 4 -3 3 -4 4 -3 4 -4 4 -3 3 -4 4 -4 4 -3 4 -4 4 -3 3 -4 4 -3 4 -4 4 -3 3 -4 4 -3 4 -4 3 -3 4 -4 4 -3 4 -4 4 -4 4 -3 4 -4 4 -3 4 -4 4 -3 3 -4 4 -3 4 -3 4 -4 3 -3 4 -3 4 -4 4 -3 4 -3 4 -4 4 -3 4 -4 4 -3 4 -4 4 -3 4 -4 4 -3 3 -3 4 -4 4 -3 4 -3 4 -3 3 -3 4 -4 4 -3 5 -4 4 -3 4 -4 4 -3 4 -4 4 -3 5 -3 3 -3 4 -3 4 -3 3 -3 4 -3 4 -3 3 -3 4 -3 4 -4 5 -3 4 -4 5 -3 4 -4 4 -3 5 -4 4 -3 4 -3 4 -3 4 -3 3 -3 4 -3 4 -3 4 -2 3 -3 5 -4 4 -3 5 -3 4 -4 4 -3 5 -3 4 -4 5 -3 4 -3 4 -3 4 -3 4 -3 4 -3 5 -3 4 -3 4 -4 9 -6 9 -6 8 -6 9 -7 9 -6 9 -6 9 -6 9 -6 3 -3 3 -2 4 -3 3 -2 4 -2 3 -3 4 -2 3 -2 5 -4 5 -3 5 -3 5 -4 5 -3 5 -3 5 -4 5 -3 3 -2 4 -3 4 -2 3 -3 4 -2 4 -2 3 -3 4 -2 5 -3 5 -3 5 -4 5 -3 5 -3 5 -3 4 -3 5 -3 4 -2 4 -3 4 -2 4 -3 4 -2 3 -2 4 -3 4 -2 5 -3 5 -3 5 -3 5 -3 5 -3 5 -3 5 -3 5 -3 4 -2 4 -3 4 -2 4 -2 4 -3 4 -2 4 -3 4 -2 5 -3 4 -3 5 -2 5 -3 5 -3 5 -3 5 -2 5 -3 4 -2 4 -3 4 -2 4 -3 4 -2 5 -2 4 -3 4 -2 5 -3 5 -2 5 -3 5 -3 5 -2 5 -3 5 -3 5 -2 4 -3 4 -2 4 -2 4 -2 4 -2 5 -2 4 -3 4 -2 5 -2 5 -3 5 -3 5 -2 5 -3 6 -3 5 -2 5 -3 4 -2 4 -2 4 -2 4 -2 4 -2 4 -2 5 -2 4 -2 5 -3 5 -2 5 -3 6 -3 5 -2 5 -3 5 -2 5 -3 5 -2 4 -2 4 -2 4 -2 4 -2 5 -1 4 -2 4 -2 5 -3 6 -2 5 -3 5 -2 6 -3 5 -2 5 -2 5 -3 4 -2 4 -1 4 -2 4 -2 4 -1 4 -2 4 -2 3 -1 6 -3 6 -2 6 -3 5 -2 6 -3 6 -2 6 -3 5 -2 2 -1 2 -1 2 -1 2 -1 2 0 2 -1 2 -1 2 -1 14 -5 14 -6 14 -6 14 -5 14 -6 14 -5 14 -6 14 -5 3 -1 3 -1 3 -1 3 -1 2 -2 3 -1 3 -1 3 -1 6 -2 6 -2 6 -2 6 -2 6 -3 6 -2 6 -2 6 -2 4 -1 4 -1 4 -2 4 -1 4 -2 4 -1 4 -2 4 -1 5 -2 6 -2 6 -2 6 -2 6 -2 6 -2 5 -2 6 -1 4 -2 4 -1 5 -1 4 -2 4 -1 4 -2 4 -1 5 -1 5 -2 6 -2 6 -2 6 -1 5 -2 6 -2 6 -2 6 -1 4 -2 5 -1 4 -1 4 -2 5 -1 4 -1 4 -1 4 -2 6 -1 6 -2 6 -2 6 -1 5 -2 6 -2 6 -1 6 -2 4 -1 5 -1 4 -1 5 -2 4 -1 4 -1 5 -1 4 -1 6 -2 6 -2 6 -1 5 -1 6 -2 6 -1 6 -2 5 -1 5 -1 5 -2 4 -1 5 -1 4 -1 5 -1 4 -1 5 -1 6 -2 6 -1 5 -1 6 -2 6 -1 6 -2 6 -1 5 -1 5 -1 4 -1 5 -1 4 -1 5 -1 4 -1 5 -1 4 -1 6 -1 6 -1 6 -2 6 -1 6 -1 6 -1 6 -2 6 -1 5 -1 4 -1 5 -1 4 0 5 -1 4 -1 5 -1 5 -1 5 -1 6 -1 6 -1 6 -1 6 -2 6 -1 6 -1 6 -1 4 -1 5 0 4 -1 5 -1 4 -1 5 0 4 -1 5 -1 36 -6 36 -5 37 -5 37 -5 36 -4 37 -4 37 -4 37 -3 37 -3 38 -3 37 -2 38 -2 37 -1 38 -1 38 0 38 -1 0 -98 -1475 -1369 386 0 1089 1024 0 -1024 386 0 -465 -805 -466 -806 4971 5045 -26 -73 -83 -198 -90 -192 -100 -188 -107 -183 -115 -177 -123 -172 -130 -166 -137 -160 -144 -153 3829 3978z"/>
   <g>
    <path class="fil2" d="M6655 11891c-2351,-270 -4177,-2267 -4177,-4691 0,-2233 1550,-4104 3633,-4595l0 -483 -386 0 465 -805 465 -806 466 806 465 805 -386 0 0 1467c-203,0 -401,17 -594,49 -12,2 -24,4 -36,6 -16,3 -32,6 -47,9 -13,2 -25,5 -37,7 -16,3 -32,7 -48,10 -12,3 -24,5 -36,8 -15,3 -31,7 -46,11 -12,3 -24,6 -37,9 -15,4 -30,8 -46,12 -12,3 -23,6 -35,9 -16,4 -31,9 -47,13 -11,4 -23,7 -34,11 -16,4 -31,9 -47,14 -11,3 -22,7 -33,11 -15,5 -31,10 -46,15 -11,4 -22,8 -32,11 -16,6 -32,11 -48,17 -8,3 -15,6 -23,9 -38,14 -75,29 -112,44 -5,2 -11,5 -16,7 -15,6 -30,13 -46,20 -10,4 -20,9 -31,13 -14,7 -28,13 -42,20 -11,5 -22,10 -34,15 -14,7 -27,14 -41,21 -11,5 -22,10 -33,16 -14,7 -28,14 -41,21 -11,6 -22,12 -33,18 -13,7 -27,14 -40,21 -11,6 -22,13 -34,19 -13,7 -25,15 -38,22 -11,6 -22,13 -33,19 -13,8 -26,16 -39,24 -10,6 -20,13 -31,19 -13,8 -26,16 -39,25 -10,6 -20,13 -30,19 -13,9 -26,18 -39,27 -9,6 -18,12 -27,19 -24,16 -48,33 -71,49 -11,9 -22,17 -34,25 -11,9 -23,18 -35,27 -10,7 -20,15 -30,23 -12,9 -23,19 -35,28 -10,8 -20,16 -30,24 -11,9 -22,18 -33,27 -10,9 -20,18 -30,26 -11,9 -22,19 -32,28 -10,9 -20,18 -30,27 -11,9 -21,19 -32,28 -10,9 -20,19 -30,28 -10,10 -20,19 -30,29 -10,9 -19,18 -29,28 -10,10 -20,20 -30,30 -10,10 -19,19 -29,29 -9,10 -19,20 -28,30 -10,10 -20,21 -30,31 -9,10 -18,20 -27,30 -15,16 -29,32 -44,49 -10,12 -21,25 -32,37 -10,12 -20,24 -30,36 -8,10 -16,20 -24,30 -10,12 -19,23 -28,35 -8,10 -17,21 -25,31 -9,12 -17,23 -26,35 -8,10 -16,21 -24,31 -8,12 -17,24 -25,36 -8,10 -15,21 -23,32 -9,12 -17,24 -25,36 -8,11 -15,22 -22,33 -8,12 -16,24 -25,36 -7,11 -14,22 -21,33 -8,13 -15,25 -23,38 -7,11 -14,22 -21,33 -8,13 -16,27 -23,40 -6,11 -13,21 -19,31 -9,17 -18,33 -27,50 -5,8 -9,15 -13,23 -13,24 -26,48 -39,73 -4,8 -8,17 -12,25 -9,16 -17,33 -25,50 -5,10 -10,20 -15,31 -7,15 -14,30 -21,45 -5,11 -9,21 -14,32 -7,15 -13,30 -20,45 -5,11 -9,23 -14,34 -6,15 -12,29 -18,44 -4,11 -9,23 -14,35 -5,15 -11,29 -16,43 -5,12 -9,24 -13,36 -6,15 -11,30 -16,45 -4,12 -8,24 -12,36 -5,15 -10,30 -15,46 -4,11 -8,23 -11,34 -5,17 -11,34 -16,52 -2,10 -5,19 -8,29 -7,24 -13,48 -19,71 -1,4 -2,8 -3,11 -8,28 -14,56 -21,84 -2,8 -3,16 -5,24 -5,20 -9,39 -13,59 -2,11 -4,23 -7,34 -3,17 -6,34 -9,51 -3,12 -5,24 -7,36 -2,16 -5,33 -8,50 -2,12 -4,24 -6,37 -2,16 -4,32 -6,49 -2,12 -4,25 -5,37 -2,17 -4,34 -6,50 -1,13 -2,25 -4,38 -1,16 -3,33 -4,50 -1,12 -2,25 -3,37 -1,18 -2,36 -4,53 0,12 -1,24 -2,35 -1,20 -1,40 -2,60 0,10 -1,19 -1,29 -1,30 -1,59 -1,89 0,30 0,60 1,89 0,10 1,20 1,29 1,20 1,40 2,60 1,12 2,23 2,35 2,18 3,35 4,53 1,12 2,25 3,37 1,17 3,34 4,50 2,13 3,26 4,38 2,17 4,33 6,50 1,12 3,25 5,37 2,17 4,33 6,50 2,12 4,24 6,37 3,16 6,33 8,50 2,11 4,23 7,35 3,17 6,34 9,51 3,12 5,23 7,34 4,20 8,40 13,59 2,8 3,16 5,24 7,28 13,56 21,84l3 11c6,24 12,47 19,71 3,10 6,20 8,30 5,17 11,34 16,51 3,12 7,23 11,35 5,15 10,30 15,46 4,12 8,24 12,35 5,15 10,30 16,45 4,12 8,24 13,36 5,14 11,29 16,43 5,12 9,24 14,36 6,14 12,29 18,43 5,11 9,23 14,34 7,15 13,30 20,45 5,11 9,21 14,32 7,15 14,30 21,46 5,10 10,20 15,30 8,17 17,34 25,50 4,9 8,17 12,25 13,25 26,49 39,73 4,8 8,15 13,23 9,17 18,33 27,50 6,10 13,21 19,31 7,13 15,27 23,40 7,11 14,22 21,33 8,13 15,26 23,38 7,11 14,22 21,33 9,12 17,24 25,37 7,11 14,22 22,32 8,13 16,25 25,37 8,10 15,21 23,32 8,11 17,23 25,35 8,10 16,21 24,32 9,11 17,23 26,34 8,11 17,21 25,32 9,11 18,23 28,34 8,10 16,20 24,30 10,12 20,24 30,36 11,13 22,25 32,37 15,17 29,33 44,50 9,9 18,19 27,29 10,10 20,21 30,31 9,10 19,20 28,30 10,10 19,20 29,29 10,10 20,20 30,30 10,10 19,19 29,28 10,10 20,20 30,29 10,10 20,19 30,28 10,10 21,19 32,29 10,9 20,17 30,26 10,10 21,19 32,28 10,9 20,17 30,26 11,9 22,18 33,28 10,8 20,15 30,23 12,10 23,19 35,28 10,8 20,16 30,24 12,8 24,17 35,26 12,9 23,17 34,25 23,17 47,33 71,50 9,6 18,12 27,19 13,9 26,17 39,26 10,6 20,13 30,19 13,9 26,17 39,25 11,7 21,13 31,19 13,8 26,16 39,24 11,6 22,13 33,19 12,8 25,15 38,22 12,7 23,13 34,19 13,7 27,15 40,22 11,6 22,11 33,17 13,7 27,14 41,21 11,6 22,11 33,17 14,6 27,13 41,20 12,5 23,10 34,16 14,6 28,13 42,19 11,5 21,9 31,14 16,6 31,13 46,20 5,2 11,4 16,6 37,15 74,30 112,44 8,3 15,6 23,9 16,6 32,11 48,17 10,4 21,8 32,11 15,6 31,11 46,16 11,3 22,7 33,10 16,5 31,10 47,15 11,3 23,7 34,10 16,4 31,9 47,13 12,3 23,6 35,10 16,4 31,8 46,11 13,4 25,7 37,9 15,4 31,8 46,11 12,3 24,6 36,8 16,4 32,7 48,10 12,3 24,5 37,7 15,3 31,6 47,9 12,2 24,4 36,6 16,3 33,5 49,8l0 1121z"/>
    <path class="fil3" d="M7744 2510c2352,270 4178,2266 4178,4690 0,2233 -1550,4104 -3633,4596l0 482 386 0 -465 806 -466 806 -465 -806 -465 -806 386 0 0 -1467c202,0 401,-17 594,-49 12,-2 24,-4 36,-6 15,-3 31,-6 47,-9 12,-2 25,-4 37,-7 16,-3 31,-6 47,-10 12,-2 24,-5 36,-8 16,-3 31,-7 47,-11 12,-2 24,-5 36,-9 16,-3 31,-7 46,-11 12,-4 24,-7 36,-10 15,-4 31,-9 46,-13 12,-3 23,-7 35,-10 15,-5 31,-10 46,-15 11,-3 22,-7 34,-10 15,-5 31,-10 46,-16 11,-3 21,-7 32,-11 16,-6 32,-11 48,-17 7,-3 15,-6 23,-9 37,-14 75,-29 112,-44 5,-2 10,-4 15,-6 16,-7 31,-14 46,-20 11,-5 21,-9 31,-14 14,-6 29,-13 43,-19 11,-6 22,-11 33,-16 14,-7 28,-14 42,-20 11,-6 22,-11 33,-17 14,-7 27,-14 41,-21 11,-6 22,-11 33,-17 13,-7 26,-15 40,-22 11,-6 22,-12 33,-19 13,-7 26,-14 39,-22 11,-6 21,-13 32,-19 13,-8 26,-16 40,-24 10,-6 20,-12 30,-19 13,-8 27,-16 40,-25 10,-6 19,-13 29,-19 13,-9 27,-17 40,-26 9,-7 18,-13 27,-19 24,-17 47,-33 71,-50 11,-8 22,-16 33,-25 12,-9 23,-18 35,-26 10,-8 20,-16 31,-24 11,-9 23,-18 35,-28 10,-8 19,-15 29,-23 11,-10 22,-19 33,-28 11,-9 21,-17 31,-26 11,-9 21,-18 32,-28 10,-9 20,-17 30,-26 11,-10 21,-19 32,-29 9,-9 19,-18 29,-28 10,-9 21,-19 31,-29 9,-9 19,-18 28,-28 11,-10 21,-20 31,-30 9,-9 19,-19 28,-29 10,-10 20,-20 29,-30 10,-10 20,-21 30,-31 9,-10 18,-20 27,-29 14,-17 29,-33 43,-50 11,-12 22,-24 32,-37 10,-12 21,-24 31,-36 8,-10 16,-20 24,-30 9,-11 19,-23 28,-34 8,-11 16,-21 24,-32 9,-11 18,-23 27,-34 8,-11 15,-22 23,-32 9,-12 18,-24 26,-35 8,-11 15,-22 23,-32 8,-12 16,-24 25,-37 7,-10 15,-21 22,-32 8,-13 16,-25 24,-37 7,-11 14,-22 21,-33 8,-12 16,-25 24,-38 7,-11 14,-22 20,-33 8,-13 16,-27 24,-40 6,-10 12,-21 18,-31 10,-17 19,-33 28,-50 4,-8 9,-15 13,-23 13,-24 26,-48 38,-73 5,-8 9,-16 13,-25 8,-16 16,-33 25,-50 5,-10 9,-20 14,-30 7,-16 14,-31 21,-46 5,-11 10,-21 15,-32 6,-15 13,-30 19,-45 5,-11 10,-23 15,-34 6,-14 12,-29 17,-43 5,-12 10,-24 14,-36 6,-14 11,-29 17,-43 4,-12 9,-24 13,-36 5,-15 11,-30 16,-45 4,-11 8,-23 12,-35 5,-16 10,-31 15,-46 4,-12 7,-23 11,-35 5,-17 10,-34 15,-51 3,-10 6,-20 9,-30 7,-24 13,-47 19,-71 1,-4 2,-7 3,-11 7,-28 14,-56 20,-84 2,-8 4,-16 6,-24 4,-19 9,-39 13,-59 2,-11 4,-22 6,-34 4,-17 7,-34 10,-51 2,-12 4,-24 6,-35 3,-17 6,-34 9,-50 2,-13 3,-25 5,-37 3,-17 5,-33 7,-50 2,-12 3,-25 5,-37 2,-17 4,-33 5,-50 2,-12 3,-25 4,-38 2,-16 3,-33 5,-50 1,-12 2,-25 3,-37 1,-18 2,-35 3,-53 1,-12 2,-23 2,-35 1,-20 2,-40 2,-60 1,-9 1,-19 1,-29 1,-29 2,-59 2,-89 0,-30 -1,-59 -2,-89 0,-10 0,-19 -1,-29 0,-20 -1,-40 -2,-60 0,-11 -1,-23 -2,-35 -1,-17 -2,-35 -3,-53 -1,-12 -2,-25 -3,-37 -2,-17 -3,-34 -5,-50 -1,-13 -2,-25 -4,-38 -1,-16 -3,-33 -5,-50 -2,-12 -3,-25 -5,-37 -2,-17 -4,-33 -7,-49 -2,-13 -3,-25 -5,-37 -3,-17 -6,-34 -9,-50 -2,-12 -4,-24 -6,-36 -3,-17 -6,-34 -10,-51 -2,-11 -4,-23 -6,-34 -4,-20 -9,-39 -13,-59 -2,-8 -4,-16 -6,-24 -6,-28 -13,-56 -20,-84l-3 -11c-6,-23 -12,-47 -19,-71 -3,-10 -6,-19 -9,-29 -5,-18 -10,-35 -15,-52 -4,-11 -7,-23 -11,-34 -5,-16 -10,-31 -15,-46 -4,-12 -8,-24 -12,-36 -5,-15 -11,-30 -16,-45 -4,-12 -9,-24 -13,-36 -6,-14 -11,-28 -17,-43 -4,-12 -9,-24 -14,-35 -5,-15 -11,-30 -17,-44 -5,-11 -10,-23 -15,-34 -6,-15 -13,-30 -19,-45 -5,-11 -10,-21 -15,-32 -7,-15 -14,-30 -21,-45 -5,-11 -9,-21 -14,-31 -9,-17 -17,-34 -25,-50 -4,-8 -8,-17 -13,-25 -12,-24 -25,-49 -38,-73 -4,-8 -9,-15 -13,-23 -9,-17 -18,-33 -28,-50 -6,-10 -12,-20 -18,-31 -8,-13 -16,-27 -24,-40 -6,-11 -13,-22 -20,-33 -8,-13 -16,-25 -24,-38 -7,-11 -14,-22 -21,-33 -8,-12 -16,-24 -24,-36 -7,-11 -15,-22 -22,-33 -9,-12 -17,-24 -25,-36 -8,-11 -15,-22 -23,-32 -8,-12 -17,-24 -26,-36 -8,-10 -15,-21 -23,-31 -9,-12 -18,-23 -27,-35 -8,-10 -16,-21 -24,-31 -9,-12 -19,-23 -28,-35 -8,-10 -16,-20 -24,-30 -10,-12 -21,-24 -31,-36 -10,-12 -21,-25 -32,-37 -14,-17 -29,-33 -43,-49 -9,-10 -18,-20 -27,-30 -10,-10 -20,-21 -30,-31 -9,-10 -19,-20 -29,-30 -9,-10 -19,-19 -28,-29 -10,-10 -20,-20 -31,-30 -9,-10 -19,-19 -28,-28 -10,-10 -21,-19 -31,-29 -10,-9 -20,-19 -29,-28 -11,-9 -21,-19 -32,-28 -10,-9 -20,-18 -30,-27 -11,-9 -21,-19 -32,-28 -10,-8 -20,-17 -31,-26 -11,-9 -22,-18 -33,-27 -10,-8 -19,-16 -29,-24 -12,-10 -24,-19 -35,-28 -11,-8 -21,-16 -31,-23 -12,-9 -23,-18 -35,-27 -11,-8 -22,-16 -33,-25 -24,-16 -47,-33 -71,-49 -9,-7 -18,-13 -27,-19 -13,-9 -27,-18 -40,-27 -10,-6 -19,-13 -29,-19 -13,-8 -27,-17 -40,-25 -10,-6 -20,-13 -30,-19 -13,-8 -27,-16 -40,-24 -11,-6 -21,-13 -32,-19 -13,-7 -26,-15 -39,-22 -11,-6 -22,-13 -33,-19 -14,-7 -27,-14 -40,-21 -11,-6 -22,-12 -33,-18 -14,-7 -27,-14 -41,-21 -11,-6 -22,-11 -33,-16 -14,-7 -28,-14 -42,-21 -11,-5 -22,-10 -33,-15 -14,-7 -29,-13 -43,-20 -10,-4 -20,-9 -31,-13 -15,-7 -30,-14 -46,-20 -5,-2 -10,-5 -15,-7 -37,-15 -75,-30 -112,-44 -8,-3 -16,-6 -23,-9 -16,-6 -32,-11 -48,-17 -11,-3 -21,-7 -32,-11 -15,-5 -31,-10 -46,-15 -12,-4 -23,-8 -34,-11 -15,-5 -31,-10 -46,-14 -12,-4 -23,-7 -35,-11 -15,-4 -31,-9 -46,-13 -12,-3 -24,-6 -36,-9 -15,-4 -30,-8 -46,-12 -12,-3 -24,-6 -36,-9 -16,-4 -31,-8 -47,-11 -12,-3 -24,-5 -36,-8 -16,-3 -31,-7 -47,-10 -12,-2 -25,-5 -37,-7 -16,-3 -32,-6 -47,-9 -12,-2 -24,-4 -36,-6 -16,-2 -33,-5 -50,-8l0 -1120z"/>
    <path class="fil4" d="M7200 5290c707,0 1324,384 1654,955l827 -477 166 -96c-529,-913 -1516,-1528 -2647,-1528 -1688,0 -3056,1368 -3056,3056 0,1688 1368,3056 3056,3056 1131,0 2118,-614 2647,-1528l-166 -95 -827 -478c-330,571 -947,955 -1654,955 -1055,0 -1910,-855 -1910,-1910 0,-1055 855,-1910 1910,-1910z"/>
   </g>
  </g>
 </g>
</svg>
