<?xml version="1.0" encoding="UTF-8"?>
<!DOCTYPE svg PUBLIC "-//W3C//DTD SVG 1.1//EN" "http://www.w3.org/Graphics/SVG/1.1/DTD/svg11.dtd">
<!-- Creator: CorelDRAW X7 -->
<svg xmlns="http://www.w3.org/2000/svg" xml:space="preserve" width="16px" height="16px" version="1.1" style="shape-rendering:geometricPrecision; text-rendering:geometricPrecision; image-rendering:optimizeQuality; fill-rule:evenodd; clip-rule:evenodd"
viewBox="0 0 1600 1600"
 xmlns:xlink="http://www.w3.org/1999/xlink">
 <defs>
  <style type="text/css">
   <![CDATA[
    .fil4 {fill:#F0C84D}
    .fil2 {fill:#02813E}
    .fil3 {fill:#2C30FA}
    .fil1 {fill:#DEDEDE}
    .fil0 {fill:#EBEBEB}
   ]]>
  </style>
 </defs>
 <g id="Layer_x0020_1">
  <metadata id="CorelCorpID_0Corel-Layer"/>
  <g id="_383947936">
   <rect class="fil0" width="1600" height="1600" rx="329" ry="329"/>
   <path class="fil1" d="M1600 875l0 396c0,181 -148,329 -329,329l-310 0 -101 -57 41 -71 -365 -218 21 11 21 11 22 9 22 9 22 7 24 7 23 5 24 5 24 3 0 -83 -156 -101 -1 0 0 0 -1 0 0 -1 0 0 -1 0 0 0 -1 -1 0 0 -1 0 0 -1 -1 0 0 0 -1 -1 0 0 -1 -1 0 0 -1 0 0 0 -1 -1 0 0 0 0 -1 0 0 -1 -1 0 -1 -1 -1 -1 -1 0 -1 -1 -1 -1 -1 -1 -1 0 0 -1 -1 0 0 0 -1 -1 0 0 -1 0 0 -1 -1 0 0 0 -1 -1 0 0 -1 0 0 -1 0 0 -1 0 -1 -1 0 0 0 -1 -1 0 0 0 -1 -1 0 0 -1 0 0 0 0 -1 -1 0 0 -1 -1 0 0 0 -1 -1 0 0 -1 -1 0 0 -1 0 0 -1 0 0 -1 0 0 -1 -1 0 0 0 -1 -1 0 0 0 0 -1 -1 0 0 -1 -1 0 0 -1 0 0 -1 -1 0 0 0 -1 -1 0 0 0 0 -1 -1 0 0 -1 -1 0 0 0 0 -1 -1 0 0 -1 -1 0 0 -1 0 0 -1 -1 0 0 0 0 -1 -1 0 0 0 -1 -1 0 0 0 -1 -1 0 0 0 -1 -1 0 0 -1 -1 0 0 -1 0 0 -1 0 0 -1 -1 0 0 -1 0 0 -1 -1 0 0 -1 0 0 -1 0 0 -1 -1 0 0 -1 0 0 -1 0 0 -1 -1 0 0 0 0 -1 -1 0 0 -1 -1 0 0 0 0 -1 -1 0 0 -1 -1 0 0 0 -1 -1 0 0 0 -1 -1 0 0 -1 -1 0 0 0 0 -1 -1 0 0 -1 -1 0 0 0 0 -1 -1 0 0 -1 -1 0 0 0 0 -1 -1 0 0 -1 -1 0 0 -1 0 0 -1 0 0 -1 -1 0 0 -1 0 0 -1 -1 0 0 -1 0 0 -1 0 0 -1 -1 0 0 0 0 -1 -1 -1 -1 0 0 -1 -1 0 -1 -1 -1 -1 0 0 -1 -1 0 0 -1 -1 -1 0 0 -1 0 0 -1 0 -1 -1 0 0 -1 -1 0 0 -1 -1 0 0 -1 0 0 -1 -1 0 0 -1 -1 0 0 0 0 -1 -1 0 0 0 -1 -1 0 0 0 0 -1 -1 0 0 -1 0 0 -1 -1 0 0 -1 -1 0 0 0 -1 -1 0 0 -1 0 0 -1 0 0 -1 0 0 -1 -1 0 0 0 -1 -1 0 0 -1 -1 0 0 -1 0 0 -1 -1 0 0 0 -1 -1 0 0 0 0 -1 -1 0 0 -1 0 0 -1 -1 0 0 0 -1 -1 0 0 -1 0 0 -1 -1 0 0 0 0 -1 -1 0 0 0 -1 -1 0 0 -1 0 0 -1 -1 0 0 0 -1 -1 0 0 -1 0 0 -1 -1 0 0 0 -1 -1 0 0 -1 0 0 -1 0 0 -1 0 0 -1 -1 0 0 0 -1 -1 0 0 -1 0 0 -1 -1 0 0 0 -1 -1 0 0 -1 0 0 0 -1 -1 0 0 -1 0 0 -1 -1 0 0 0 -1 -1 0 0 -1 0 0 -1 -1 0 0 0 -1 -1 0 0 -1 0 0 0 -1 -1 0 0 -1 0 0 -1 0 0 -1 0 0 -1 -1 0 -1 0 0 0 -1 -1 0 0 -1 -1 0 0 -1 0 0 0 -1 0 0 -1 0 0 -1 0 0 -1 -1 0 0 0 -1 -1 -1 0 -1 0 0 -1 -1 0 -1 -1 0 0 -1 0 0 0 0 0 -1 0 0 -1 0 0 -1 0 0 -1 -1 0 -1 -1 -1 0 -1 -1 -1 0 -1 -1 -1 0 -1 -1 0 0 -1 0 0 0 0 0 -1 0 0 0 0 -1 -1 0 0 0 -1 -1 -1 0 0 0 -1 -1 -1 0 -1 0 0 -1 -1 0 0 0 -1 0 0 0 0 -1 -1 0 0 0 -1 0 0 -1 -1 0 -1 0 0 -1 -1 0 -1 0 0 0 -1 -1 0 0 -1 0 0 0 -1 0 0 -1 0 0 -1 0 0 0 -1 -1 -1 0 0 0 -1 0 0 -1 -1 0 -1 0 0 0 -1 -1 0 0 -1 0 0 0 -1 0 0 -1 -1 0 0 0 -1 0 0 0 -1 -1 0 0 -1 0 -1 -1 0 0 -1 0 0 0 -1 0 0 -1 -1 0 0 0 -1 0 0 0 -1 -1 -1 0 0 0 -1 0 0 0 -1 -1 0 0 -1 0 -1 0 0 -1 -1 0 0 0 -1 0 0 0 -1 0 0 -1 -1 0 0 0 -1 0 0 0 -1 -1 -1 0 0 0 -1 0 -1 -1 0 0 -1 0 0 0 -1 0 0 0 -1 -1 0 0 -1 0 0 0 -1 0 -1 -1 0 0 -1 0 0 0 -1 0 -1 -1 0 0 -1 0 0 0 -1 0 0 0 -1 0 0 -1 -1 0 0 0 -1 0 -1 0 0 -1 -1 0 -1 0 -1 0 0 0 -1 -1 0 0 0 0 -1 0 0 0 -1 0 0 0 -1 -1 -1 0 -1 0 0 0 -2 -1 0 0 -2 0 0 0 -1 -1 -2 0 -1 0 -1 -1 -1 0 -1 0 -2 0 -1 -1 -1 0 -1 0 0 0 -1 0 0 0 0 0 -1 0 0 -1 0 0 -1 0 0 0 -1 0 -1 0 -1 0 -1 -1 -1 0 0 0 -1 0 -1 0 0 0 -1 0 0 0 -1 -1 0 0 0 0 -1 0 -1 0 0 0 -1 0 -1 0 0 -1 -1 0 -1 0 -1 0 0 0 -1 0 0 0 -1 0 0 0 -1 0 0 -1 -1 0 0 0 -1 0 -1 0 0 0 -1 0 -1 0 0 0 -1 -1 -1 0 0 0 -1 0 0 0 -1 0 0 0 -1 0 0 0 -1 0 -1 0 0 0 -1 -1 -1 0 0 0 -1 0 -1 0 0 0 -1 0 0 0 -1 0 0 0 -1 0 0 0 -1 0 -1 -1 0 0 -1 0 -1 0 0 0 -1 0 -1 0 0 0 -1 0 0 0 -1 0 -1 0 0 0 -1 0 0 0 -1 0 0 -1 -1 0 -1 0 0 0 -1 0 -1 0 -1 0 0 0 -1 0 0 0 -1 0 0 0 -1 0 0 0 -1 0 0 0 -1 0 -1 0 -1 0 0 -1 -1 0 -1 0 -1 0 0 0 -1 0 0 0 -1 0 0 0 -1 0 0 0 -1 0 0 0 -1 0 -1 0 -1 0 0 0 -1 0 -1 0 -1 0 -1 0 0 0 -1 0 0 0 0 0 -1 0 0 0 -1 0 0 0 -1 0 -1 0 -2 0 -1 0 -1 0 -1 0 -2 0 -1 0 -1 0 -1 0 -2 0 -1 0 -1 0 -1 0 -2 0 -1 0 0 0 -1 0 0 0 0 0 -1 0 0 0 -1 0 0 0 -1 0 -1 0 0 0 -1 0 -1 0 -1 0 -1 0 -1 0 0 0 -1 0 0 0 -1 0 0 0 -1 0 0 0 -1 0 0 0 -1 0 -1 1 0 0 -1 0 -1 0 -1 0 0 0 -1 0 0 0 -1 0 -1 0 0 0 0 0 -1 0 -1 0 0 0 -1 0 -1 0 0 0 -1 0 -1 1 0 0 -1 0 -1 0 0 0 -1 0 0 0 -1 0 0 0 -1 0 0 0 -1 0 -1 0 0 0 -1 0 -1 0 0 1 -1 0 -1 0 0 0 -1 0 0 0 -1 0 0 0 -1 0 -1 0 0 0 -1 0 0 0 -1 1 -1 0 0 0 -1 0 -1 0 0 0 -1 0 -1 0 0 0 -1 0 0 0 -1 0 0 1 -1 0 0 0 -1 0 -1 0 0 0 -1 0 -1 0 0 0 -1 1 -1 0 0 0 -1 0 0 0 -1 0 0 0 -1 0 0 0 -1 0 0 1 -1 0 -1 0 -1 0 0 0 -1 0 -1 0 0 0 -1 1 0 0 -1 0 0 0 -1 0 0 0 -1 0 0 0 -1 1 -1 0 -1 0 -1 0 0 0 -1 0 -1 0 0 1 -1 0 0 0 0 0 -1 0 0 0 0 0 -1 0 -1 1 -1 0 -1 0 -1 0 -2 1 -1 0 -1 0 -1 0 0 0 0 0 -1 0 0 1 0 0 0 0 0 0 0 0 -1 0 -1 0 -1 1 -1 0 -1 0 -1 0 -1 1 -1 0 -1 0 0 0 0 0 -1 0 0 0 -1 1 0 0 0 0 -1 0 -1 0 -1 1 0 0 -1 0 -1 0 -1 0 0 1 -1 0 0 0 -1 0 0 0 -1 0 0 0 -1 1 0 0 -1 0 0 0 -1 0 -1 1 0 0 -1 0 -1 0 0 0 -1 1 0 0 -1 0 0 0 -1 0 0 0 -1 1 0 0 -1 0 0 0 -1 1 -1 0 0 0 -1 0 0 0 -1 1 -1 0 0 0 -1 0 0 0 -1 0 0 1 -1 0 0 0 -1 0 0 1 -1 0 0 0 -1 0 -1 0 0 1 -1 0 0 0 -1 0 0 1 -1 0 0 0 -1 0 0 0 -1 0 0 1 -1 0 -1 0 0 1 -1 0 0 0 -1 0 -1 0 0 1 -1 0 0 0 -1 0 0 0 -1 1 0 0 0 0 -1 0 -1 1 0 0 -1 0 -1 0 0 1 -1 0 0 0 -1 0 0 1 -1 0 0 0 -1 0 0 0 -1 1 0 0 -1 0 0 0 -1 1 -1 0 0 0 -1 1 0 0 -1 0 -1 0 0 1 0 0 -1 0 0 0 -1 0 0 1 0 0 -1 0 -1 1 -1 0 0 0 -1 1 -1 0 0 0 -1 1 0 0 -1 0 0 0 0 0 -1 0 0 0 0 1 -1 0 -1 1 -1 0 -1 1 -1 0 -1 1 -1 0 -1 1 -1 0 0 0 -1 1 0 0 0 0 -1 0 0 0 0 0 0 1 -1 0 -1 1 0 0 -1 0 -1 1 -1 0 0 0 -1 1 0 0 -1 0 0 1 -1 0 0 0 -1 0 0 0 0 1 -1 0 -1 1 0 0 -1 0 0 0 -1 1 0 0 -1 0 0 1 -1 0 0 0 -1 1 0 0 -1 0 0 0 -1 1 0 0 -1 0 0 1 -1 0 0 0 -1 1 0 0 -1 0 0 1 -1 0 0 0 -1 1 0 0 -1 0 0 0 0 1 -1 0 0 0 -1 1 -1 0 0 0 0 1 -1 0 -1 0 0 1 0 0 -1 0 0 1 -1 0 0 0 -1 1 0 0 -1 0 0 1 -1 0 0 0 -1 1 0 0 -1 0 0 1 -1 0 0 0 -1 1 0 0 0 0 -1 1 0 0 -1 0 0 1 -1 0 0 0 -1 1 0 0 -1 0 0 1 -1 0 0 0 0 1 -1 0 0 0 -1 1 0 0 -1 0 0 1 -1 0 0 0 -1 1 0 0 -1 1 0 0 -1 0 0 1 0 0 -1 0 0 1 -1 0 0 0 -1 1 0 0 -1 0 0 1 0 0 -1 1 0 0 -1 0 0 1 -1 0 0 0 -1 1 0 0 -1 0 0 1 0 0 -1 0 0 1 -1 0 0 1 -1 0 0 0 -1 1 0 0 -1 1 0 0 -1 1 0 0 -1 0 0 1 -1 0 0 1 -1 0 0 1 -1 0 0 1 -1 1 -1 0 -1 1 0 0 -1 1 -1 1 0 0 -1 0 0 1 0 0 -1 0 0 1 -1 0 0 1 0 0 -1 0 0 1 -1 0 0 1 -1 0 0 0 -1 1 0 0 -1 1 0 0 0 0 -1 1 0 0 -1 1 0 0 0 0 -1 1 0 0 -1 1 0 0 0 0 -1 1 0 0 -1 1 0 0 0 0 -1 1 0 0 -1 1 0 0 0 1 -1 0 0 0 -1 1 0 0 0 1 -1 0 0 0 -1 1 0 0 -1 1 0 0 0 0 -1 1 0 0 0 1 -1 0 0 0 -1 1 0 0 0 1 -1 0 0 1 -1 0 0 0 0 1 -1 0 0 1 0 0 -1 1 0 0 -1 1 0 0 0 0 -1 1 0 0 -1 1 0 0 0 0 -1 1 0 0 0 1 -1 0 0 1 -1 0 0 1 0 0 -1 0 0 1 -1 0 0 1 0 0 -1 0 0 1 0 0 -1 1 0 0 0 1 -1 0 0 1 -1 0 0 1 0 0 -1 0 0 1 -1 0 0 1 0 0 0 1 -1 0 0 0 -1 1 0 0 0 1 0 0 -1 1 0 0 -1 1 0 0 0 1 -1 0 0 0 -1 1 0 0 0 1 0 0 -1 1 0 0 -1 0 0 1 0 1 -1 0 0 0 0 1 -1 0 0 1 0 0 -1 1 0 0 0 1 -1 0 0 1 -1 0 0 1 0 0 0 1 -1 1 -1 1 -1 1 0 1 -1 1 -1 1 0 1 -1 0 0 1 -1 0 0 0 0 1 0 0 -1 1 0 0 0 1 -1 0 0 1 0 0 -1 1 0 0 0 1 -1 0 0 1 0 0 -1 1 0 0 0 0 -1 1 0 0 0 1 0 0 -1 1 0 0 0 1 -1 0 0 1 0 0 -1 1 0 1 0 0 -1 0 0 1 0 0 0 1 -1 0 0 0 0 1 -1 1 0 0 0 1 0 0 -1 1 0 0 0 1 -1 0 0 1 0 0 -1 1 0 0 0 1 0 0 -1 0 0 1 0 0 0 1 -1 1 0 0 0 1 -1 0 0 1 0 0 -1 1 0 0 0 1 0 0 -1 0 0 1 0 0 0 1 -1 1 0 0 0 1 -1 0 0 1 0 0 -1 1 0 0 0 1 0 0 -1 1 0 0 0 1 0 0 -1 1 0 0 0 1 0 0 -1 1 0 0 0 1 -1 1 0 0 0 1 0 0 -1 0 0 1 0 0 0 1 -1 0 0 1 0 0 0 1 0 0 -1 1 0 1 0 0 -1 1 0 0 0 1 0 0 -1 1 0 0 0 1 0 0 -1 1 0 0 0 1 0 0 -1 1 0 0 0 1 0 1 -1 0 0 1 0 0 0 1 -1 0 0 1 0 0 0 0 0 1 0 0 -1 1 0 1 0 0 -1 1 0 0 0 1 0 1 -1 0 0 1 0 0 0 0 0 0 0 1 0 0 0 0 0 0 -1 2 0 1 -1 2 0 1 -1 2 -1 1 0 2 -1 1 0 1 -1 0 0 1 0 0 0 0 0 1 0 0 0 0 0 1 -1 0 0 1 0 1 0 0 -1 1 0 1 0 0 0 1 0 0 -1 1 0 0 0 1 0 0 0 0 0 1 -1 1 0 0 0 1 0 1 0 0 -1 1 0 0 0 1 0 1 0 0 -1 1 0 0 0 0 0 1 0 0 0 1 0 1 -1 0 0 1 0 0 0 1 -1 1 0 0 0 1 0 0 0 1 0 0 0 1 -1 0 0 1 0 0 0 1 0 0 0 1 -1 1 0 0 0 1 0 1 0 0 0 1 -1 0 0 1 0 0 0 1 0 0 0 1 -1 0 0 1 0 1 0 0 0 1 0 0 0 1 -1 1 0 0 0 1 0 1 0 0 0 1 0 0 -1 1 0 0 0 1 0 0 0 1 0 0 0 1 0 1 -1 0 0 1 0 1 0 0 0 1 0 0 0 1 -1 0 0 1 0 0 0 1 0 0 0 1 0 1 0 0 0 1 -1 1 0 0 0 1 0 1 0 0 0 1 0 0 -1 1 0 0 0 1 0 0 0 1 0 0 0 1 0 1 0 0 -1 1 0 1 0 0 0 1 0 0 0 1 0 0 0 1 0 0 0 1 0 0 -1 1 0 4 0 4 -1 4 0 4 -1 4 -1 4 0 4 0 4 -1 5 0 4 0 4 -1 4 0 4 0 4 0 5 0 4 0 0 -11 -164 -152 43 0 121 114 0 -114 43 0 -52 -90 -52 -89 553 560 -3 -8 -9 -22 -10 -21 -11 -21 -12 -20 -13 -20 -14 -19 -14 -18 -16 -18 -16 -17 426 442z"/>
   <g>
    <path class="fil2" d="M739 1321c-261,-30 -464,-252 -464,-521 0,-248 172,-456 404,-510l0 -54 -43 0 52 -90 51 -89 52 89 52 90 -43 0 0 163c-23,0 -45,2 -66,5 -1,1 -3,1 -4,1 -2,0 -4,1 -5,1 -2,0 -3,0 -4,1 -2,0 -4,1 -6,1 -1,0 -2,0 -4,1 -1,0 -3,1 -5,1 -1,0 -3,1 -4,1 -2,0 -3,1 -5,1 -1,1 -3,1 -4,1 -2,1 -3,1 -5,2 -2,0 -3,1 -4,1 -2,0 -3,1 -5,2 -1,0 -3,0 -4,1 -2,0 -3,1 -5,1 -1,1 -2,1 -4,2 -1,0 -3,1 -5,2 -1,0 -2,0 -3,1 -4,1 -8,3 -12,4 0,1 -1,1 -2,1 -1,1 -3,2 -5,2 -1,1 -2,1 -3,2 -2,1 -3,1 -5,2 -1,1 -2,1 -4,2 -1,1 -3,1 -4,2 -1,1 -3,1 -4,2 -1,1 -3,1 -4,2 -2,1 -3,2 -4,2 -2,1 -3,2 -5,3 -1,0 -2,1 -3,2 -2,0 -3,1 -5,2 -1,1 -2,2 -3,2 -2,1 -3,2 -5,3 -1,1 -2,1 -3,2 -1,1 -3,2 -4,3 -1,0 -3,1 -4,2 -1,1 -3,2 -4,3 -1,0 -2,1 -3,2 -3,2 -5,4 -8,6 -1,0 -2,1 -4,2 -1,1 -2,2 -4,3 -1,1 -2,2 -3,3 -1,1 -2,2 -4,3 -1,1 -2,2 -3,2 -1,2 -3,3 -4,4 -1,0 -2,1 -3,2 -1,1 -3,3 -4,4 -1,1 -2,1 -3,3 -1,1 -2,2 -4,3 -1,1 -2,2 -3,3 -1,1 -2,2 -3,3 -1,1 -2,2 -3,3 -2,1 -3,2 -4,3 -1,2 -2,3 -3,4 -1,1 -2,2 -3,3 -1,1 -2,2 -3,4 -1,1 -2,2 -3,3 -2,2 -4,3 -5,5 -1,2 -3,3 -4,4 -1,2 -2,3 -3,4 -1,1 -2,3 -3,4 -1,1 -2,2 -3,3 -1,2 -2,3 -3,4 -1,1 -2,3 -3,4 -1,1 -1,2 -2,3 -1,2 -2,3 -3,4 -1,1 -2,3 -3,4 -1,1 -2,3 -2,4 -1,1 -2,2 -3,3 -1,2 -2,3 -3,5 0,1 -1,2 -2,3 -1,2 -2,3 -3,4 0,2 -1,3 -2,4 -1,2 -2,3 -3,5 0,1 -1,2 -2,3 -1,2 -2,4 -3,6 0,0 -1,1 -1,2 -1,3 -3,5 -4,8 -1,1 -1,2 -2,3 -1,2 -2,4 -2,6 -1,1 -1,2 -2,3 -1,2 -2,3 -2,5 -1,1 -2,2 -2,4 -1,1 -2,3 -2,5 -1,1 -1,2 -2,3 0,2 -1,4 -2,5 0,1 -1,3 -1,4 -1,2 -2,3 -2,5 -1,1 -1,3 -2,4 0,2 -1,3 -1,5 -1,1 -1,2 -2,4 0,2 -1,3 -1,5 -1,1 -1,2 -2,4 0,2 -1,4 -1,6 -1,1 -1,2 -1,3 -1,2 -2,5 -2,8 0,0 -1,0 -1,1 -1,3 -1,6 -2,9 0,1 0,2 -1,3 0,2 -1,4 -1,6 0,2 -1,3 -1,4 0,2 -1,4 -1,6 0,1 0,3 -1,4 0,2 0,4 0,5 -1,2 -1,3 -1,5 0,1 -1,3 -1,5 0,1 0,3 0,4 -1,2 -1,4 -1,6 0,1 0,2 0,4 -1,2 -1,4 -1,5 0,2 0,3 0,5 0,2 -1,3 -1,5 0,2 0,3 0,4 0,3 0,5 0,7 0,1 0,2 0,3 0,4 0,7 0,10 0,3 0,7 0,10 0,1 0,2 0,3 0,2 0,5 0,7 0,1 0,2 0,4 0,2 1,4 1,6 0,1 0,2 0,4 0,2 0,4 1,5 0,2 0,3 0,5 0,1 0,3 1,5 0,1 0,3 0,4 0,2 1,4 1,6 0,1 0,2 1,4 0,2 0,3 0,5 1,2 1,3 1,4 0,2 1,4 1,6 0,1 1,3 1,4 0,2 1,4 1,6 1,1 1,2 1,3 1,3 1,6 2,9l1 2c0,2 1,5 2,7 0,2 0,3 1,4 0,2 1,4 1,5 1,2 1,3 2,4 0,2 1,4 1,5 1,2 1,3 2,4 0,2 1,4 1,5 1,2 1,3 2,4 0,2 1,4 2,5 0,1 1,3 1,4 1,2 2,3 2,5 1,1 1,2 2,4 0,1 1,3 2,5 0,1 1,2 2,3 0,2 1,4 2,5 1,1 1,3 2,4 0,2 1,3 2,5 1,1 1,2 2,3 1,3 3,6 4,8 0,1 1,2 1,3 1,2 2,3 3,5 1,1 2,3 2,4 1,1 2,3 3,4 1,1 2,3 2,4 1,1 2,3 3,4 1,1 2,2 2,4 1,1 2,2 3,4 1,1 2,2 3,3 0,2 1,3 2,4 1,2 2,3 3,4 1,1 2,3 3,4 1,1 1,2 2,3 1,2 2,3 3,4 1,1 2,3 3,4 1,1 2,2 3,4 1,1 2,2 3,3 1,1 2,3 3,4 1,1 3,3 4,4 1,2 3,4 5,6 1,1 2,2 3,3 1,1 2,2 3,3 1,1 2,3 3,4 1,1 2,2 3,3 1,1 2,2 4,3 1,1 2,2 3,3 1,1 2,2 3,3 1,2 2,3 3,4 2,1 3,2 4,3 1,1 2,2 3,3 1,1 3,2 4,3 1,1 2,2 3,3 1,1 3,2 4,3 1,1 2,2 3,2 2,1 3,2 4,4 1,0 2,1 3,2 2,1 3,2 4,3 2,1 3,2 4,3 3,2 5,3 8,5 1,1 2,2 3,2 1,1 3,2 4,3 1,1 3,2 4,2 1,1 3,2 4,3 1,1 2,2 3,2 2,1 3,2 5,3 1,1 2,1 3,2 2,1 3,2 5,3 1,0 2,1 3,2 2,0 3,1 5,2 1,1 2,1 4,2 1,1 3,2 4,2 1,1 3,2 4,2 1,1 3,2 4,2 2,1 3,2 4,2 2,1 3,2 5,2 1,1 2,1 3,2 2,1 4,1 5,2 1,0 2,1 2,1 4,2 8,3 12,5 1,0 2,0 3,1 2,0 4,1 5,2 2,0 3,0 4,1 2,0 3,1 5,2 1,0 3,0 4,1 2,0 3,1 5,1 1,1 2,1 4,1 2,1 3,1 5,2 1,0 3,1 4,1 2,0 3,1 5,1 1,1 3,1 4,1 2,1 4,1 5,2 2,0 3,0 4,0 2,1 4,1 6,1 1,1 2,1 4,1 1,1 3,1 5,1 1,0 3,1 4,1 2,0 4,1 5,1l0 124z"/>
    <path class="fil3" d="M860 279c262,30 465,252 465,521 0,248 -173,456 -404,511l0 53 43 0 -52 90 -52 89 -51 -89 -52 -90 43 0 0 -163c22,0 44,-2 66,-5 1,0 3,-1 4,-1 2,0 3,0 5,-1 2,0 3,0 4,-1 2,0 4,0 5,-1 2,0 3,0 4,0 2,-1 4,-1 6,-2 1,0 2,0 4,-1 1,0 3,-1 5,-1 1,0 2,-1 4,-1 2,-1 3,-1 5,-2 1,0 2,0 4,-1 2,0 3,-1 5,-1 1,-1 2,-1 4,-1 1,-1 3,-2 5,-2 1,-1 2,-1 3,-1 2,-1 4,-2 6,-2 0,-1 1,-1 2,-1 4,-2 9,-3 13,-5 0,0 1,-1 1,-1 2,-1 4,-1 6,-2 1,-1 2,-1 3,-2 1,0 3,-1 5,-2 1,0 2,-1 3,-2 2,0 4,-1 5,-2 1,0 2,-1 4,-2 1,0 3,-1 4,-2 2,-1 3,-1 4,-2 1,-1 3,-2 4,-2 2,-1 3,-2 4,-2 1,-1 3,-2 4,-3 2,-1 3,-1 4,-2 1,-1 3,-2 4,-3 1,0 3,-1 4,-2 1,-1 3,-2 4,-3 1,0 2,-1 3,-2 2,-1 3,-2 5,-3 1,0 2,-1 3,-2 2,-2 5,-3 8,-5 1,-1 2,-2 3,-3 2,-1 3,-2 4,-3 1,-1 3,-2 4,-2 1,-2 2,-3 4,-4 1,0 2,-1 3,-2 1,-1 2,-2 3,-3 2,-1 3,-2 4,-3 1,-1 2,-2 3,-3 2,-1 3,-2 4,-3 1,-1 2,-2 3,-3 1,-1 3,-2 4,-4 1,-1 2,-2 3,-3 1,-1 2,-2 3,-3 1,-1 2,-2 4,-3 1,-1 2,-2 3,-3 1,-1 2,-3 3,-4 1,-1 2,-2 3,-3 1,-1 2,-2 3,-3 2,-2 3,-4 5,-6 1,-1 2,-3 4,-4 1,-1 2,-3 3,-4 1,-1 2,-2 3,-3 1,-2 2,-3 3,-4 1,-1 2,-3 2,-4 1,-1 3,-2 3,-4 1,-1 2,-2 3,-3 1,-1 2,-3 3,-4 1,-1 2,-2 2,-4 1,-1 2,-2 3,-4 1,-1 2,-2 3,-3 1,-2 1,-3 2,-4 1,-2 2,-3 3,-4 1,-1 2,-3 2,-4 1,-1 2,-3 3,-4 1,-1 1,-3 2,-4 1,-1 2,-3 2,-4 1,-2 2,-3 3,-5 1,-1 1,-2 2,-3 1,-2 3,-5 4,-8 1,-1 1,-2 1,-3 1,-2 2,-3 3,-5 1,-1 1,-3 2,-4 1,-1 1,-3 2,-5 1,-1 1,-2 2,-3 0,-2 1,-4 2,-5 0,-2 1,-3 2,-4 0,-2 1,-3 2,-5 0,-1 1,-3 1,-4 1,-1 1,-3 2,-5 0,-1 1,-2 1,-4 1,-1 2,-3 2,-5 1,-1 1,-2 1,-4 1,-1 2,-3 2,-5 1,-1 1,-2 1,-4 1,-1 1,-3 2,-5 0,-1 1,-2 1,-4 1,-2 1,-5 2,-7 0,-1 0,-1 0,-2 1,-3 2,-6 3,-9 0,-1 0,-2 0,-3 1,-2 1,-4 2,-6 0,-1 0,-3 1,-4 0,-2 0,-4 1,-6 0,-1 0,-2 0,-4 1,-2 1,-3 1,-5 0,-2 1,-3 1,-4 0,-2 0,-4 1,-6 0,-1 0,-3 0,-4 0,-2 1,-4 1,-5 0,-2 0,-3 0,-5 0,-1 0,-3 1,-5 0,-2 0,-3 0,-4 0,-2 0,-4 0,-6 0,-2 1,-3 1,-4 0,-2 0,-5 0,-7 0,-1 0,-2 0,-3 0,-3 0,-7 0,-10 0,-3 0,-6 0,-10 0,-1 0,-2 0,-3 0,-2 0,-4 0,-7 0,-1 -1,-2 -1,-4 0,-2 0,-3 0,-5 0,-2 0,-3 0,-5 -1,-1 -1,-3 -1,-5 0,-2 0,-3 0,-4 0,-2 -1,-4 -1,-6 0,-1 0,-3 0,-4 -1,-2 -1,-4 -1,-5 0,-2 -1,-3 -1,-5 0,-1 0,-3 -1,-5 0,-1 0,-3 0,-4 -1,-2 -1,-4 -1,-6 -1,-1 -1,-2 -1,-4 -1,-2 -1,-4 -2,-6 0,-1 0,-2 0,-3 -1,-3 -2,-6 -3,-9l0 -1c-1,-3 -1,-6 -2,-8 0,-1 -1,-2 -1,-3 -1,-2 -1,-4 -2,-6 0,-2 0,-3 -1,-4 0,-2 -1,-3 -2,-5 0,-2 0,-3 -1,-4 0,-2 -1,-3 -2,-5 0,-1 -1,-3 -1,-4 -1,-2 -1,-3 -2,-5 0,-1 -1,-3 -1,-4 -1,-1 -2,-3 -2,-5 -1,-1 -2,-2 -2,-3 -1,-2 -2,-4 -2,-5 -1,-2 -1,-3 -2,-4 -1,-2 -1,-3 -2,-5 -1,-1 -1,-2 -2,-3 -1,-2 -2,-4 -3,-6 0,-1 0,-2 -1,-3 -1,-3 -3,-5 -4,-8 -1,-1 -1,-2 -2,-2 -1,-2 -2,-4 -3,-6 0,-1 -1,-2 -2,-3 -1,-2 -1,-3 -2,-5 -1,-1 -2,-2 -3,-4 0,-1 -1,-2 -2,-4 -1,-1 -2,-2 -3,-3 -1,-2 -1,-3 -2,-5 -1,-1 -2,-2 -3,-3 -1,-1 -2,-3 -3,-4 0,-1 -1,-3 -2,-4 -1,-1 -2,-2 -3,-4 -1,-1 -2,-2 -3,-3 0,-1 -2,-3 -3,-4 0,-1 -1,-2 -2,-4 -1,-1 -2,-2 -3,-3 -1,-1 -2,-3 -3,-4 -1,-1 -2,-2 -3,-4 -2,-1 -3,-2 -4,-4 -2,-2 -3,-4 -5,-5 -1,-1 -2,-2 -3,-3 -1,-2 -2,-3 -3,-4 -1,-1 -2,-2 -3,-3 -1,-1 -2,-2 -3,-4 -2,-1 -3,-2 -4,-3 -1,-1 -2,-2 -3,-3 -1,-1 -2,-2 -3,-3 -1,-1 -3,-2 -4,-3 -1,-1 -2,-2 -3,-3 -1,-2 -2,-2 -4,-3 -1,-1 -2,-3 -3,-4 -1,-1 -2,-2 -4,-2 -1,-1 -2,-2 -3,-4 -1,0 -2,-1 -3,-2 -2,-1 -3,-2 -4,-3 -1,-1 -3,-2 -4,-3 -1,-1 -2,-2 -4,-3 -1,-1 -2,-2 -3,-2 -3,-2 -6,-4 -8,-6 -1,-1 -2,-2 -3,-2 -2,-1 -3,-2 -5,-3 -1,-1 -2,-2 -3,-2 -1,-1 -3,-2 -4,-3 -1,-1 -3,-1 -4,-2 -1,-1 -3,-2 -4,-3 -1,0 -2,-1 -4,-2 -1,-1 -3,-2 -4,-2 -1,-1 -2,-2 -4,-2 -1,-1 -3,-2 -4,-3 -1,0 -2,-1 -4,-2 -1,-1 -3,-1 -4,-2 -2,-1 -3,-1 -4,-2 -1,-1 -3,-1 -5,-2 -1,-1 -2,-1 -3,-2 -2,-1 -4,-1 -5,-2 -1,-1 -2,-1 -3,-2 -2,0 -4,-1 -6,-2 0,0 -1,0 -1,-1 -4,-1 -9,-3 -13,-4 -1,-1 -2,-1 -2,-1 -2,-1 -4,-2 -6,-2 -1,-1 -2,-1 -3,-2 -2,0 -4,-1 -5,-1 -2,-1 -3,-1 -4,-1 -2,-1 -3,-2 -5,-2 -2,0 -3,-1 -4,-1 -2,-1 -3,-1 -5,-2 -2,0 -3,0 -4,-1 -2,0 -4,-1 -5,-1 -2,0 -3,-1 -4,-1 -2,0 -4,-1 -6,-1 -1,-1 -2,-1 -4,-1 -1,0 -3,-1 -5,-1 -1,-1 -2,-1 -4,-1 -2,0 -3,-1 -5,-1 -1,0 -3,0 -4,-1 -2,0 -4,0 -6,-1l0 -124z"/>
    <path class="fil4" d="M800 588c78,0 147,43 184,106l92 -53 18 -11c-59,-101 -168,-169 -294,-169 -188,0 -340,152 -340,339 0,188 152,340 340,340 126,0 235,-69 294,-170l-18 -11 -92 -53c-37,64 -106,106 -184,106 -117,0 -212,-95 -212,-212 0,-117 95,-212 212,-212z"/>
   </g>
  </g>
 </g>
</svg>
