<?xml version="1.0" encoding="UTF-8"?>
<!DOCTYPE svg PUBLIC "-//W3C//DTD SVG 1.1//EN" "http://www.w3.org/Graphics/SVG/1.1/DTD/svg11.dtd">
<!-- Creator: CorelDRAW X7 -->
<svg xmlns="http://www.w3.org/2000/svg" xml:space="preserve" width="256px" height="256px" version="1.1" style="shape-rendering:geometricPrecision; text-rendering:geometricPrecision; image-rendering:optimizeQuality; fill-rule:evenodd; clip-rule:evenodd"
viewBox="0 0 25600 25600"
 xmlns:xlink="http://www.w3.org/1999/xlink">
 <defs>
  <style type="text/css">
   <![CDATA[
    .fil4 {fill:#F0C84D}
    .fil2 {fill:#02813E}
    .fil3 {fill:#2C30FA}
    .fil1 {fill:#DEDEDE}
    .fil0 {fill:#EBEBEB}
   ]]>
  </style>
 </defs>
 <g id="Layer_x0020_1">
  <metadata id="CorelCorpID_0Corel-Layer"/>
  <g id="_372788224">
   <rect class="fil0" width="25600" height="25600" rx="5268" ry="5268"/>
   <path class="fil1" d="M25600 13994l0 6338c0,2898 -2371,5268 -5268,5268l-4963 0 -1601 -908 656 -1137 -5846 -3498 330 182 339 168 347 153 356 138 362 121 371 106 377 89 383 71 389 54 0 -1332 -2507 -1609 -7 -4 -6 -5 -7 -4 -7 -4 -6 -5 -7 -4 -6 -4 -7 -5 -9 -6 -8 -5 -9 -6 -9 -6 -9 -6 -9 -6 -8 -5 -9 -6 -6 -5 -6 -4 -6 -4 -6 -4 -7 -4 -6 -5 -6 -4 -6 -4 -16 -11 -15 -11 -16 -11 -16 -11 -15 -11 -16 -12 -16 -11 -15 -11 -8 -5 -7 -6 -8 -5 -7 -6 -7 -5 -8 -5 -7 -6 -8 -5 -8 -6 -7 -6 -8 -6 -8 -6 -8 -6 -8 -6 -7 -6 -8 -6 -7 -5 -7 -5 -6 -5 -7 -5 -7 -6 -7 -5 -6 -5 -7 -5 -8 -6 -8 -7 -7 -6 -8 -6 -8 -6 -8 -6 -8 -7 -7 -6 -7 -5 -7 -5 -6 -6 -7 -5 -6 -5 -7 -6 -7 -5 -6 -5 -7 -6 -8 -6 -7 -7 -8 -6 -7 -6 -7 -6 -8 -6 -7 -7 -7 -5 -7 -6 -6 -6 -7 -5 -7 -6 -7 -6 -7 -6 -6 -5 -8 -6 -7 -7 -7 -6 -7 -6 -7 -6 -7 -6 -7 -7 -7 -6 -7 -6 -7 -6 -6 -6 -7 -5 -7 -6 -6 -6 -7 -6 -7 -6 -7 -7 -7 -6 -7 -6 -7 -7 -7 -6 -7 -6 -7 -7 -7 -6 -6 -6 -7 -6 -7 -6 -6 -7 -7 -6 -6 -6 -7 -6 -7 -6 -6 -7 -7 -6 -7 -6 -7 -7 -7 -6 -6 -7 -7 -6 -7 -7 -6 -6 -7 -6 -6 -6 -6 -6 -7 -7 -6 -6 -6 -6 -7 -6 -7 -7 -6 -7 -7 -7 -7 -6 -7 -7 -6 -7 -7 -6 -7 -7 -6 -7 -7 -6 -6 -6 -6 -7 -6 -6 -7 -7 -6 -6 -6 -7 -7 -6 -6 -7 -7 -7 -6 -6 -6 -7 -7 -6 -6 -7 -7 -7 -6 -7 -7 -7 -6 -7 -7 -7 -6 -7 -7 -7 -6 -7 -7 -7 -6 -6 -6 -7 -6 -6 -6 -7 -6 -6 -6 -7 -6 -6 -6 -7 -10 -11 -10 -11 -9 -10 -10 -11 -10 -11 -9 -11 -10 -11 -10 -11 -7 -9 -7 -8 -7 -8 -7 -8 -7 -9 -7 -8 -7 -8 -7 -8 -7 -8 -7 -9 -7 -8 -7 -8 -7 -8 -6 -8 -7 -8 -7 -8 -5 -7 -6 -6 -5 -7 -6 -6 -5 -7 -5 -7 -6 -6 -5 -7 -6 -8 -6 -7 -7 -8 -6 -8 -6 -7 -6 -8 -6 -8 -6 -7 -6 -7 -5 -7 -6 -7 -5 -7 -6 -7 -5 -7 -5 -7 -6 -7 -6 -8 -6 -7 -6 -8 -5 -8 -6 -7 -6 -8 -6 -8 -6 -7 -5 -7 -5 -7 -6 -8 -5 -7 -5 -7 -5 -7 -6 -7 -5 -7 -6 -8 -5 -8 -6 -7 -6 -8 -5 -8 -6 -8 -6 -8 -5 -7 -5 -8 -6 -7 -5 -7 -5 -7 -5 -7 -5 -7 -5 -7 -5 -7 -5 -8 -6 -8 -6 -9 -5 -8 -6 -8 -5 -8 -6 -8 -5 -8 -5 -7 -5 -7 -5 -8 -5 -7 -5 -7 -5 -7 -5 -8 -5 -7 -5 -8 -6 -8 -5 -8 -5 -9 -6 -8 -5 -8 -5 -8 -6 -8 -4 -8 -5 -7 -5 -7 -5 -7 -4 -8 -5 -7 -5 -7 -4 -7 -6 -9 -5 -8 -5 -9 -5 -8 -6 -8 -5 -9 -5 -8 -5 -9 -5 -7 -5 -8 -4 -7 -5 -7 -4 -8 -5 -7 -4 -8 -5 -7 -5 -9 -5 -9 -6 -9 -5 -8 -5 -10 -5 -8 -6 -9 -5 -9 -4 -7 -4 -7 -4 -7 -4 -7 -4 -7 -4 -7 -4 -7 -4 -7 -6 -11 -7 -11 -6 -11 -6 -10 -6 -12 -6 -11 -7 -11 -6 -11 -2 -5 -3 -5 -3 -5 -3 -5 -3 -5 -3 -5 -3 -6 -2 -5 -9 -16 -9 -16 -8 -16 -9 -16 -9 -17 -8 -16 -8 -16 -9 -16 -2 -6 -3 -5 -3 -6 -3 -6 -3 -5 -2 -6 -3 -5 -3 -6 -5 -11 -6 -11 -6 -11 -5 -11 -6 -11 -5 -11 -5 -11 -6 -11 -3 -7 -4 -7 -3 -7 -3 -7 -3 -7 -4 -7 -3 -6 -3 -7 -5 -10 -4 -11 -5 -10 -5 -10 -5 -10 -4 -10 -5 -10 -5 -10 -3 -7 -3 -7 -3 -7 -3 -8 -4 -7 -3 -7 -3 -7 -3 -7 -4 -10 -5 -10 -4 -10 -5 -10 -4 -10 -4 -10 -5 -10 -4 -10 -3 -7 -3 -8 -4 -8 -3 -7 -3 -8 -3 -7 -3 -8 -3 -7 -4 -10 -4 -10 -4 -9 -4 -10 -4 -10 -4 -9 -4 -10 -4 -10 -3 -8 -3 -8 -3 -8 -4 -7 -3 -8 -3 -8 -3 -8 -3 -8 -4 -10 -3 -9 -4 -10 -4 -10 -3 -9 -4 -10 -4 -9 -3 -10 -3 -8 -3 -8 -3 -8 -3 -8 -3 -8 -3 -8 -3 -8 -3 -8 -3 -10 -4 -9 -3 -10 -4 -10 -3 -10 -3 -10 -4 -10 -3 -10 -3 -8 -3 -8 -3 -7 -2 -9 -3 -7 -3 -8 -2 -8 -3 -8 -3 -11 -4 -10 -3 -10 -4 -10 -3 -11 -3 -10 -4 -10 -3 -11 -2 -7 -3 -8 -2 -7 -3 -8 -2 -7 -2 -8 -3 -8 -2 -7 -4 -12 -3 -11 -4 -12 -3 -11 -3 -12 -4 -11 -3 -12 -4 -11 -1 -7 -2 -6 -2 -7 -2 -7 -2 -6 -2 -7 -2 -6 -2 -7 -4 -16 -5 -15 -4 -16 -4 -16 -5 -16 -4 -16 -4 -15 -4 -16 -5 -20 -5 -18 -5 -19 -4 -18 -5 -19 -4 -19 -5 -18 -4 -19 -5 -18 -1 -6 -1 -5 -1 -5 -1 -6 -2 -5 -1 -5 -1 -6 -1 -5 -3 -13 -3 -13 -3 -13 -3 -14 -3 -13 -2 -13 -3 -13 -3 -14 -1 -7 -2 -7 -2 -8 -1 -7 -1 -8 -2 -7 -1 -8 -2 -7 -2 -11 -2 -12 -3 -11 -2 -12 -2 -11 -2 -12 -2 -11 -2 -12 -2 -7 -1 -8 -2 -8 -1 -8 -1 -8 -2 -8 -1 -8 -1 -7 -2 -12 -2 -11 -2 -11 -2 -11 -2 -11 -1 -11 -2 -11 -2 -11 -1 -9 -1 -8 -2 -8 -1 -8 -1 -8 -1 -9 -2 -8 -1 -8 -1 -11 -2 -11 -2 -11 -1 -11 -2 -11 -1 -11 -2 -11 -1 -10 -1 -9 -1 -8 -1 -8 -1 -9 -1 -8 -1 -8 -2 -9 -1 -8 -1 -11 -1 -11 -1 -11 -2 -12 -1 -10 -1 -12 -1 -11 -2 -11 0 -8 -1 -9 -1 -8 -1 -8 -1 -9 -1 -8 -1 -9 -1 -8 -1 -11 -1 -11 -1 -11 -1 -11 -1 -12 -1 -11 -1 -11 0 -11 -1 -8 -1 -8 -1 -9 0 -8 -1 -8 -1 -9 0 -8 -1 -8 -1 -12 0 -12 -1 -12 -1 -11 -1 -12 0 -12 -1 -12 -1 -11 0 -8 -1 -8 0 -8 -1 -8 0 -8 -1 -7 0 -8 0 -8 -1 -13 -1 -13 0 -14 -1 -13 0 -13 0 -13 -1 -13 0 -14 -1 -6 0 -7 0 -6 0 -6 -1 -7 0 -6 0 -7 0 -6 -1 -20 0 -20 0 -20 -1 -20 0 -19 0 -20 0 -20 0 -20 0 -20 0 -20 0 -19 0 -20 1 -20 0 -20 0 -20 1 -19 0 -7 0 -6 0 -7 1 -6 0 -7 0 -6 0 -7 1 -6 0 -13 1 -14 0 -13 0 -13 1 -13 0 -13 1 -14 1 -13 0 -8 0 -7 1 -8 0 -8 1 -8 0 -8 1 -7 0 -8 1 -12 1 -12 0 -12 1 -11 1 -12 1 -12 0 -12 1 -11 1 -9 0 -8 1 -8 1 -9 0 -8 1 -8 1 -8 1 -9 0 -11 1 -11 1 -11 1 -11 1 -11 1 -12 1 -11 1 -11 1 -8 1 -9 1 -8 1 -8 1 -9 1 -8 1 -9 0 -8 2 -11 1 -11 1 -11 1 -11 2 -11 1 -11 1 -11 1 -12 1 -8 2 -8 1 -9 1 -8 1 -8 1 -9 1 -8 1 -8 1 -11 2 -11 1 -11 2 -11 1 -11 2 -11 2 -11 1 -11 1 -8 2 -8 1 -8 1 -9 1 -8 2 -8 1 -8 1 -8 2 -12 2 -11 1 -11 2 -11 2 -11 2 -11 2 -11 2 -11 1 -8 1 -8 2 -8 1 -8 1 -8 2 -8 1 -7 2 -8 2 -12 2 -11 2 -12 2 -11 2 -11 3 -12 2 -11 2 -12 2 -7 1 -8 2 -7 1 -7 1 -8 2 -7 2 -8 1 -7 3 -13 3 -14 2 -13 3 -13 3 -13 3 -14 3 -13 3 -13 1 -5 1 -6 1 -5 2 -5 1 -5 1 -6 1 -5 1 -5 5 -19 4 -19 5 -18 4 -19 5 -18 4 -19 5 -18 5 -19 0 -2 1 -3 1 -2 0 -3 1 -2 1 -3 0 -2 1 -3 4 -15 4 -16 4 -16 5 -16 4 -16 4 -15 5 -16 4 -16 2 -6 2 -7 2 -6 2 -7 2 -7 2 -6 2 -7 1 -6 4 -12 3 -11 4 -12 3 -11 3 -12 4 -12 3 -11 4 -12 2 -7 3 -8 2 -7 2 -8 3 -7 2 -8 3 -8 2 -7 3 -11 4 -10 3 -10 3 -10 4 -11 3 -10 4 -10 3 -10 3 -8 2 -8 3 -8 3 -8 2 -8 3 -8 3 -8 3 -8 3 -10 4 -10 3 -10 3 -10 4 -9 3 -10 4 -10 3 -10 3 -8 3 -8 3 -8 3 -8 3 -8 3 -8 3 -8 3 -8 3 -9 4 -10 4 -10 3 -9 4 -10 4 -9 3 -10 4 -10 3 -7 3 -9 3 -7 4 -8 3 -8 3 -8 3 -8 3 -8 4 -10 4 -9 4 -10 4 -10 4 -9 4 -10 4 -10 4 -9 3 -8 3 -7 3 -8 3 -8 3 -7 4 -8 3 -7 3 -8 4 -10 5 -10 4 -10 4 -10 5 -10 4 -10 5 -10 4 -10 3 -7 3 -7 3 -7 4 -7 3 -7 3 -7 3 -8 3 -7 5 -10 5 -10 4 -10 5 -10 5 -10 5 -10 4 -10 5 -10 3 -7 3 -7 4 -7 3 -7 3 -7 3 -7 4 -7 3 -6 6 -12 5 -11 5 -11 6 -11 5 -11 6 -11 6 -11 5 -11 3 -6 3 -5 2 -6 3 -5 3 -6 3 -5 3 -6 2 -5 9 -17 8 -16 8 -16 9 -16 9 -17 8 -16 9 -16 9 -16 2 -5 3 -5 3 -5 3 -5 3 -6 3 -5 3 -5 2 -5 6 -11 7 -11 6 -11 6 -11 6 -11 6 -11 7 -11 6 -11 4 -7 4 -7 4 -7 4 -7 4 -7 4 -7 4 -7 4 -6 5 -9 6 -9 5 -9 5 -9 5 -9 6 -9 5 -9 5 -9 5 -7 4 -8 5 -7 4 -7 5 -8 4 -7 5 -8 5 -7 5 -8 5 -9 5 -8 6 -9 5 -8 5 -8 5 -9 6 -8 4 -8 5 -7 5 -7 4 -7 5 -8 5 -7 5 -7 4 -7 6 -9 5 -8 5 -8 6 -8 5 -8 5 -8 6 -9 5 -8 5 -7 5 -7 5 -8 5 -7 5 -7 5 -7 5 -8 5 -7 5 -8 6 -8 5 -8 6 -8 5 -8 6 -8 6 -8 5 -8 5 -7 5 -8 5 -7 5 -7 5 -7 5 -7 5 -7 6 -7 5 -8 6 -8 6 -8 5 -8 6 -7 6 -8 5 -8 6 -8 5 -7 6 -7 5 -7 5 -7 5 -7 6 -7 5 -7 5 -7 6 -8 6 -8 6 -7 6 -8 5 -8 6 -7 6 -8 6 -8 6 -7 5 -7 5 -7 6 -7 5 -6 6 -7 5 -8 6 -6 6 -8 6 -8 6 -8 6 -7 6 -8 7 -8 6 -7 6 -8 5 -7 6 -6 5 -7 5 -6 6 -7 5 -7 6 -6 5 -7 7 -8 7 -8 6 -8 7 -8 7 -8 7 -8 7 -8 7 -8 7 -9 7 -8 7 -8 7 -8 7 -9 7 -8 7 -8 7 -8 10 -11 10 -11 9 -11 10 -11 10 -11 9 -11 10 -11 10 -11 6 -6 6 -7 6 -7 6 -6 6 -6 6 -7 6 -6 6 -7 7 -7 6 -7 7 -7 6 -7 7 -7 6 -7 7 -7 6 -7 7 -7 6 -6 7 -7 6 -7 6 -6 7 -7 6 -6 7 -7 6 -7 6 -6 7 -6 6 -7 6 -6 6 -7 7 -6 6 -6 7 -7 7 -7 6 -7 7 -7 7 -6 7 -7 6 -7 7 -6 7 -7 6 -6 6 -6 7 -6 6 -6 6 -7 7 -6 6 -6 7 -7 7 -6 6 -6 7 -7 7 -6 7 -7 7 -6 6 -6 7 -7 7 -6 6 -6 7 -6 6 -6 7 -6 7 -7 6 -6 7 -6 7 -7 7 -6 7 -6 7 -7 7 -6 7 -6 7 -7 7 -5 7 -6 6 -6 7 -6 7 -6 6 -6 7 -6 7 -6 7 -6 7 -6 7 -6 7 -7 7 -6 7 -6 7 -6 8 -6 6 -6 7 -6 7 -6 7 -5 7 -6 6 -6 7 -6 7 -5 7 -6 8 -7 7 -6 7 -6 8 -6 7 -6 8 -6 7 -7 6 -5 7 -5 7 -5 6 -6 7 -5 6 -5 7 -5 7 -6 7 -6 8 -6 8 -6 8 -7 8 -6 7 -6 8 -6 8 -7 7 -5 6 -5 7 -5 7 -5 7 -5 6 -6 7 -5 7 -5 8 -6 7 -6 8 -6 8 -6 8 -6 8 -6 7 -5 8 -6 8 -6 7 -5 8 -6 7 -5 7 -5 8 -6 7 -5 8 -6 15 -11 16 -11 16 -11 15 -12 16 -11 16 -11 15 -11 16 -11 6 -4 6 -4 6 -4 7 -5 6 -4 6 -4 6 -4 6 -4 9 -6 8 -6 9 -6 9 -6 9 -6 9 -5 8 -6 9 -6 7 -4 6 -5 7 -4 6 -4 7 -5 7 -4 6 -4 7 -5 8 -5 9 -6 9 -5 9 -6 8 -5 9 -6 9 -5 9 -6 6 -4 7 -4 7 -5 7 -4 7 -4 7 -4 6 -5 7 -4 9 -5 9 -5 8 -6 9 -5 9 -5 9 -5 9 -6 8 -5 7 -4 8 -5 7 -4 7 -4 7 -4 7 -4 7 -5 8 -4 8 -5 9 -5 8 -5 9 -5 9 -5 8 -5 9 -4 9 -5 7 -4 7 -5 8 -4 7 -4 8 -4 7 -4 8 -5 7 -4 9 -5 9 -4 9 -5 8 -5 9 -5 9 -5 9 -4 9 -5 7 -4 8 -4 7 -4 7 -4 8 -3 7 -4 7 -4 7 -4 9 -5 10 -4 9 -5 9 -5 9 -4 9 -5 9 -5 9 -5 8 -3 7 -4 7 -4 8 -3 7 -4 7 -3 7 -4 8 -4 9 -4 9 -5 10 -4 9 -5 9 -4 9 -5 10 -4 9 -5 7 -3 8 -4 7 -3 8 -4 7 -3 8 -4 7 -3 8 -4 9 -4 10 -4 9 -5 9 -4 10 -4 9 -5 10 -4 9 -4 7 -3 7 -3 7 -3 7 -3 7 -3 6 -3 7 -3 7 -3 10 -5 11 -4 10 -5 10 -4 10 -5 10 -4 11 -4 10 -5 3 -1 4 -2 3 -1 4 -2 3 -1 4 -1 3 -2 4 -1 24 -10 25 -10 25 -10 25 -10 25 -10 24 -10 25 -9 26 -10 5 -2 5 -2 5 -2 5 -2 5 -2 6 -2 5 -2 5 -2 11 -3 10 -4 11 -4 10 -4 11 -4 10 -3 11 -4 10 -4 8 -2 7 -3 7 -2 7 -3 7 -2 7 -3 7 -2 7 -3 11 -3 10 -4 10 -3 10 -3 11 -4 10 -3 11 -4 10 -3 7 -3 8 -2 7 -2 8 -3 7 -2 7 -3 8 -2 7 -2 10 -4 11 -3 10 -3 10 -3 11 -3 10 -3 10 -4 11 -3 7 -2 8 -2 8 -3 7 -2 8 -2 8 -2 8 -3 7 -2 10 -3 11 -3 10 -3 10 -3 11 -3 10 -2 10 -3 10 -3 8 -2 8 -2 8 -3 8 -2 8 -2 8 -2 8 -2 8 -2 10 -3 10 -3 10 -2 11 -3 10 -3 10 -2 10 -3 11 -2 8 -2 8 -2 8 -2 8 -2 8 -2 8 -2 9 -2 8 -2 10 -3 10 -2 11 -3 10 -2 10 -2 11 -3 10 -2 10 -3 8 -1 8 -2 8 -2 8 -2 8 -1 8 -2 8 -2 8 -1 11 -3 10 -2 11 -2 10 -2 11 -3 11 -2 10 -2 11 -2 8 -2 8 -1 8 -2 8 -2 8 -1 8 -2 9 -1 8 -2 10 -2 11 -2 10 -2 11 -2 11 -2 10 -2 11 -2 10 -1 8 -2 8 -1 8 -2 8 -1 8 -1 8 -1 7 -2 8 -1 65 -10 65 -10 65 -9 65 -9 65 -7 66 -8 66 -6 66 -6 66 -5 66 -4 67 -4 66 -3 67 -3 67 -2 67 -1 68 0 0 -174 -2622 -2434 686 0 1936 1821 0 -1821 686 0 -827 -1432 -827 -1433 8837 8969 -47 -130 -146 -351 -162 -342 -176 -334 -191 -325 -205 -316 -218 -305 -231 -295 -244 -284 -256 -273 6807 7072z"/>
   <g>
    <path class="fil2" d="M11832 21139c-4180,-480 -7427,-4030 -7427,-8339 0,-3970 2756,-7295 6459,-8169l0 -858 -686 0 827 -1432 827 -1433 827 1433 827 1432 -686 0 0 2608c-360,0 -713,30 -1057,87 -21,4 -42,7 -63,11 -28,5 -56,10 -84,15 -22,4 -44,8 -65,13 -29,6 -57,12 -85,18 -21,4 -43,9 -64,13 -27,7 -55,13 -82,20 -22,5 -44,10 -66,16 -27,6 -54,14 -81,21 -21,5 -43,11 -64,17 -27,8 -55,15 -82,23 -20,6 -41,12 -61,18 -28,9 -55,17 -83,26 -20,6 -39,12 -59,19 -28,9 -55,18 -83,27 -19,7 -38,14 -57,20 -28,10 -56,20 -84,30 -14,5 -28,11 -42,16 -66,25 -133,52 -198,79 -10,4 -19,7 -28,11 -28,12 -55,24 -82,36 -18,8 -37,16 -55,24 -25,11 -50,23 -75,34 -20,10 -40,19 -60,28 -25,12 -50,24 -74,36 -20,10 -39,20 -59,29 -24,13 -48,25 -73,38 -19,10 -39,21 -58,31 -24,13 -47,25 -71,38 -20,11 -40,23 -59,34 -24,13 -47,26 -69,39 -20,11 -39,23 -58,34 -23,14 -47,28 -70,42 -18,11 -36,23 -54,34 -24,15 -47,29 -70,44 -18,12 -35,23 -53,35 -23,15 -47,31 -70,46 -17,12 -33,23 -49,34 -42,30 -84,59 -125,89 -20,15 -40,29 -60,44 -21,15 -41,31 -62,47 -18,14 -36,27 -54,41 -21,17 -42,34 -63,50 -17,14 -35,28 -52,42 -20,17 -40,33 -59,50 -18,15 -36,30 -55,46 -19,16 -38,33 -56,49 -18,16 -36,31 -54,47 -19,17 -37,34 -56,51 -18,17 -35,33 -53,50 -18,17 -36,34 -54,51 -17,16 -34,33 -51,50 -18,18 -36,35 -54,53 -17,17 -34,35 -50,52 -17,18 -35,35 -52,53 -17,18 -34,37 -52,56 -16,17 -32,35 -48,52 -26,29 -52,58 -78,88 -19,22 -38,43 -57,66 -18,21 -36,42 -54,64 -15,18 -29,35 -43,53 -17,21 -33,41 -50,62 -14,18 -29,37 -43,55 -16,21 -31,41 -47,62 -14,18 -28,37 -42,56 -15,21 -30,42 -45,63 -14,19 -28,38 -41,57 -15,21 -30,43 -45,64 -13,19 -26,39 -39,58 -14,22 -29,44 -43,66 -12,19 -25,38 -37,58 -15,22 -29,45 -42,67 -13,20 -25,39 -37,59 -14,24 -28,48 -42,72 -11,18 -22,36 -32,55 -17,29 -33,58 -50,88 -7,14 -15,27 -22,41 -24,43 -47,86 -69,130 -7,14 -15,29 -22,44 -15,30 -30,59 -44,89 -9,18 -17,36 -26,55 -13,26 -25,53 -38,80 -8,19 -17,38 -25,57 -12,27 -24,53 -35,80 -9,20 -17,40 -25,61 -11,25 -22,51 -32,77 -8,21 -17,42 -25,63 -10,26 -20,52 -29,77 -8,21 -16,43 -24,64 -9,26 -18,53 -27,79 -8,21 -15,42 -22,64 -9,27 -18,54 -27,82 -6,20 -13,40 -19,60 -10,31 -19,62 -28,93 -5,17 -10,35 -15,52 -12,42 -23,84 -34,126 -2,7 -4,14 -5,20 -13,49 -25,99 -37,149 -3,14 -6,28 -9,42 -8,35 -16,70 -23,106 -4,20 -8,40 -12,59 -6,31 -12,61 -17,92 -4,21 -8,42 -11,63 -5,29 -10,59 -15,89 -4,22 -7,43 -10,65 -4,29 -8,58 -12,88 -3,22 -6,44 -9,66 -3,30 -7,60 -10,89 -2,22 -4,45 -7,67 -3,30 -5,59 -8,89 -1,22 -3,44 -5,67 -2,31 -4,62 -6,94 -1,21 -2,41 -4,62 -1,35 -2,71 -4,106 0,17 -1,34 -1,51 -2,53 -2,106 -2,159 0,53 0,106 2,159 0,17 1,34 1,51 2,36 3,71 4,106 2,21 3,42 4,63 2,31 4,62 6,94 2,22 4,44 5,66 3,30 5,59 8,89 3,23 5,45 7,67 3,30 7,59 10,89 3,22 6,44 9,67 4,29 8,58 12,87 3,22 6,44 10,66 5,29 10,59 15,89 3,21 7,42 11,62 5,31 11,62 17,92 4,20 8,40 12,59 7,36 15,71 23,106 3,14 6,28 9,43 12,49 24,99 37,148l5 20c11,42 22,84 34,126 5,18 10,35 15,53 9,30 18,61 28,92 6,20 13,40 19,60 9,28 18,55 27,83 7,21 14,42 22,63 9,27 18,53 27,79 8,22 16,43 24,64 9,26 19,51 29,77 8,21 17,42 25,63 10,26 21,52 32,78 8,20 16,40 25,60 11,27 23,53 35,80 8,19 17,38 25,57 13,27 25,54 38,81 9,18 17,36 26,55 14,29 29,59 44,88 7,15 15,30 22,45 22,43 45,86 69,129 7,14 15,28 22,41 17,30 33,59 50,88 10,19 21,37 32,56 14,23 28,47 42,71 12,20 24,40 37,59 13,23 27,45 42,67 12,20 25,39 37,59 14,22 29,43 43,65 13,19 26,39 39,58 15,22 30,43 45,64 13,20 27,38 41,57 15,21 30,42 45,63 14,19 28,38 42,57 16,20 31,41 47,61 14,18 29,37 43,56 17,20 33,41 50,61 14,18 28,36 43,53 18,22 36,43 54,65 19,22 38,44 57,66 26,29 52,58 78,87 16,18 32,35 48,52 18,19 35,38 52,56 17,18 35,36 52,53 16,18 33,35 50,52 18,18 36,36 54,54 17,16 34,33 51,49 18,18 36,35 54,52 18,16 35,33 53,49 19,17 37,34 56,51 18,16 36,31 54,47 18,17 37,33 56,50 18,15 37,30 55,45 19,17 39,34 59,50 17,14 35,28 52,42 21,17 42,33 63,50 18,14 36,27 54,41 21,16 41,32 62,48 20,14 40,29 60,43 41,30 83,60 125,89 16,11 32,23 49,34 23,15 47,31 70,46 18,12 35,24 53,35 23,15 46,29 70,44 18,11 36,23 54,34 23,14 47,28 70,42 19,12 38,23 58,34 22,13 45,26 69,39 19,12 39,23 59,34 24,13 47,26 71,38 19,11 39,21 58,31 25,13 49,25 73,38 20,10 39,19 59,29 24,12 49,24 74,36 20,9 40,19 60,28 25,12 50,23 75,34 18,9 37,17 55,25 27,11 54,24 82,35 9,4 18,8 28,11 65,28 132,54 198,79 14,5 28,11 42,16 28,10 56,20 84,30 19,7 38,13 57,20 28,9 55,18 83,27 20,7 39,13 59,20 28,8 55,17 83,25 20,6 41,12 61,18 27,8 55,16 82,23 21,6 43,12 64,18 27,7 54,14 81,21 22,5 44,10 66,15 27,7 55,14 82,20 21,5 43,9 64,14 28,6 56,12 85,18 21,4 43,8 65,12 28,5 56,11 84,16 21,3 42,7 63,10 30,5 59,10 89,15l0 1992z"/>
    <path class="fil3" d="M13768 4461c4180,480 7426,4030 7426,8339 0,3970 -2755,7296 -6458,8170l0 857 686 0 -827 1433 -827 1432 -827 -1432 -827 -1433 686 0 0 -2608c360,0 713,-30 1056,-87 21,-3 42,-7 63,-10 29,-5 57,-11 85,-16 22,-4 43,-8 65,-12 28,-6 56,-12 84,-18 22,-5 43,-9 64,-14 28,-6 55,-13 83,-20 22,-5 43,-10 65,-15 27,-7 55,-14 82,-21 21,-6 42,-12 63,-18 28,-7 55,-15 82,-23 21,-6 41,-12 62,-18 28,-8 55,-17 82,-25 20,-7 40,-13 60,-20 27,-9 55,-18 83,-27 18,-7 37,-13 56,-20 28,-10 57,-20 85,-30 14,-5 27,-11 41,-16 67,-25 133,-51 199,-79 9,-3 19,-7 28,-11 27,-11 54,-24 81,-35 19,-8 37,-16 56,-25 25,-11 50,-22 75,-34 20,-9 40,-19 60,-28 24,-12 49,-24 74,-36 19,-10 39,-19 58,-29 25,-13 49,-25 73,-38 20,-10 39,-20 59,-31 23,-12 47,-25 71,-38 19,-11 39,-22 59,-34 23,-12 46,-26 69,-39 19,-11 38,-22 57,-34 24,-14 47,-28 71,-42 18,-11 36,-23 54,-34 23,-15 47,-29 70,-44 18,-11 35,-23 52,-35 24,-15 47,-31 71,-46 16,-11 32,-23 48,-34 42,-29 84,-59 126,-89 20,-14 40,-29 59,-43 21,-16 42,-32 63,-48 18,-14 36,-27 53,-41 22,-17 42,-33 63,-50 18,-14 35,-28 53,-42 19,-16 39,-33 59,-50 18,-15 36,-30 54,-45 19,-17 38,-33 57,-50 18,-16 36,-31 53,-47 19,-17 38,-34 56,-51 18,-16 36,-33 53,-49 18,-17 36,-34 54,-52 17,-16 34,-33 51,-49 19,-18 37,-36 55,-54 16,-17 33,-34 50,-52 17,-17 34,-35 51,-53 18,-18 35,-37 52,-56 17,-17 33,-34 49,-52 26,-29 52,-58 77,-87 19,-22 38,-44 57,-66 18,-22 37,-43 55,-65 14,-17 28,-35 43,-53 16,-20 33,-41 49,-61 15,-19 29,-38 43,-56 16,-20 32,-41 47,-61 15,-19 28,-38 42,-57 16,-21 31,-42 46,-63 14,-19 27,-37 40,-57 15,-21 30,-42 45,-64 13,-19 26,-39 39,-58 15,-22 29,-43 43,-65 13,-20 26,-39 38,-59 14,-22 28,-44 42,-67 12,-19 24,-39 36,-59 15,-24 29,-48 43,-71 10,-19 21,-37 32,-56 17,-29 33,-58 49,-88 8,-13 15,-27 23,-41 23,-43 46,-86 68,-129 8,-15 15,-30 23,-45 14,-29 29,-59 44,-88 8,-19 17,-37 26,-55 12,-27 25,-54 37,-81 9,-19 17,-38 26,-57 11,-27 23,-53 35,-80 8,-20 17,-40 25,-60 11,-26 21,-52 32,-78 8,-21 16,-42 25,-63 9,-26 19,-51 29,-77 8,-21 16,-42 23,-64 10,-26 19,-52 28,-79 7,-21 15,-42 22,-63 9,-28 18,-55 27,-83 6,-20 13,-40 19,-60 9,-31 18,-62 27,-92 5,-18 11,-35 16,-53 11,-42 23,-84 34,-126 2,-7 3,-13 5,-20 13,-49 25,-99 36,-148 4,-15 7,-29 10,-43 7,-35 15,-70 23,-106 4,-19 8,-39 11,-59 6,-30 12,-61 18,-92 4,-20 7,-41 11,-62 5,-30 10,-60 15,-89 3,-22 6,-44 9,-66 5,-29 9,-58 13,-87 3,-23 5,-45 8,-67 4,-30 7,-59 10,-89 3,-22 5,-44 7,-67 3,-30 6,-59 8,-89 2,-22 4,-44 5,-66 3,-32 5,-63 7,-94 1,-21 2,-42 3,-63 2,-35 3,-70 4,-106 1,-17 1,-34 2,-51 1,-53 2,-106 2,-159 0,-53 -1,-106 -2,-159 -1,-17 -1,-34 -2,-51 -1,-35 -2,-71 -4,-106 -1,-21 -2,-41 -3,-62 -2,-32 -4,-63 -7,-94 -1,-23 -3,-45 -5,-67 -2,-29 -5,-59 -8,-89 -2,-22 -4,-45 -7,-67 -3,-29 -6,-59 -10,-89 -3,-22 -5,-44 -8,-66 -4,-29 -8,-59 -13,-88 -3,-22 -6,-43 -9,-65 -5,-30 -10,-60 -15,-89 -4,-21 -7,-42 -11,-63 -6,-31 -12,-61 -18,-92 -3,-19 -7,-39 -11,-59 -8,-36 -16,-71 -23,-106 -3,-14 -6,-28 -10,-42 -11,-50 -23,-100 -36,-149l-5 -20c-11,-42 -23,-84 -34,-126 -5,-17 -11,-35 -16,-52 -9,-31 -18,-62 -27,-93 -6,-20 -13,-40 -19,-60 -9,-28 -18,-55 -27,-82 -7,-22 -15,-43 -22,-64 -9,-26 -18,-53 -28,-79 -7,-21 -15,-43 -23,-64 -10,-25 -20,-51 -29,-77 -9,-21 -17,-42 -25,-63 -11,-26 -21,-52 -32,-77 -8,-21 -17,-41 -25,-61 -12,-27 -24,-53 -35,-80 -9,-19 -17,-38 -26,-57 -12,-27 -25,-54 -37,-80 -9,-19 -18,-37 -26,-55 -15,-30 -30,-59 -44,-89 -8,-15 -15,-30 -23,-44 -22,-44 -45,-87 -68,-130 -8,-14 -15,-27 -23,-41 -16,-30 -32,-59 -49,-88 -11,-19 -22,-37 -32,-55 -14,-24 -28,-48 -43,-72 -12,-20 -24,-39 -36,-59 -14,-22 -28,-45 -42,-67 -12,-20 -25,-39 -38,-58 -14,-22 -28,-44 -43,-66 -13,-19 -26,-39 -39,-58 -15,-21 -30,-43 -45,-64 -13,-19 -26,-38 -40,-57 -15,-21 -30,-42 -46,-63 -14,-19 -27,-38 -42,-56 -15,-21 -31,-41 -47,-62 -14,-18 -28,-37 -43,-55 -16,-21 -33,-41 -49,-62 -15,-18 -29,-35 -43,-53 -18,-22 -37,-43 -55,-64 -19,-22 -38,-45 -57,-66 -25,-30 -51,-59 -77,-88 -16,-17 -32,-35 -49,-52 -17,-19 -34,-38 -52,-56 -17,-18 -34,-35 -51,-53 -17,-17 -34,-35 -50,-52 -18,-18 -36,-35 -55,-53 -17,-17 -34,-34 -51,-50 -18,-17 -36,-34 -54,-51 -17,-17 -35,-33 -53,-50 -18,-17 -37,-34 -56,-51 -17,-16 -35,-31 -53,-47 -19,-16 -38,-33 -57,-49 -18,-16 -36,-31 -54,-46 -20,-17 -40,-33 -59,-50 -18,-14 -35,-28 -53,-42 -21,-17 -41,-33 -63,-50 -17,-14 -35,-27 -53,-41 -21,-16 -42,-32 -63,-47 -19,-15 -39,-29 -59,-44 -42,-30 -83,-60 -126,-89 -16,-11 -32,-22 -48,-34 -24,-15 -47,-31 -71,-46 -17,-12 -34,-23 -52,-35 -23,-15 -47,-29 -70,-44 -18,-11 -36,-23 -54,-34 -24,-14 -47,-28 -71,-42 -19,-11 -38,-23 -57,-34 -23,-13 -46,-26 -69,-39 -20,-11 -40,-23 -59,-34 -24,-13 -48,-25 -71,-38 -20,-10 -39,-21 -59,-31 -24,-13 -48,-25 -73,-38 -19,-9 -39,-19 -58,-29 -25,-12 -50,-24 -74,-36 -20,-9 -40,-18 -60,-28 -25,-11 -50,-23 -75,-34 -19,-8 -37,-16 -56,-24 -27,-12 -54,-24 -81,-36 -9,-4 -19,-7 -28,-11 -66,-27 -132,-54 -199,-79 -14,-5 -27,-11 -41,-16 -28,-10 -57,-20 -85,-30 -19,-6 -38,-13 -56,-20 -28,-9 -56,-18 -83,-27 -20,-7 -40,-13 -60,-19 -27,-9 -55,-17 -82,-26 -21,-6 -41,-12 -62,-18 -27,-8 -54,-15 -82,-23 -21,-6 -42,-12 -63,-17 -27,-7 -55,-15 -82,-21 -22,-6 -43,-11 -65,-16 -28,-7 -55,-13 -83,-20 -21,-4 -42,-9 -64,-13 -28,-6 -56,-12 -84,-18 -22,-5 -43,-9 -65,-13 -28,-5 -56,-10 -85,-15 -21,-4 -42,-7 -63,-11 -29,-5 -59,-10 -88,-14l0 -1993z"/>
    <path class="fil4" d="M12800 9405c1256,0 2354,682 2941,1697l1470 -848 294 -171c-939,-1623 -2695,-2716 -4705,-2716 -3001,0 -5433,2433 -5433,5433 0,3001 2432,5433 5433,5433 2010,0 3766,-1092 4705,-2716l-294 -170 -1470 -849c-587,1015 -1685,1698 -2941,1698 -1876,0 -3396,-1521 -3396,-3396 0,-1875 1520,-3395 3396,-3395z"/>
   </g>
  </g>
 </g>
</svg>
