<?xml version="1.0" encoding="UTF-8"?>
<!DOCTYPE svg PUBLIC "-//W3C//DTD SVG 1.1//EN" "http://www.w3.org/Graphics/SVG/1.1/DTD/svg11.dtd">
<!-- Creator: CorelDRAW X7 -->
<svg xmlns="http://www.w3.org/2000/svg" xml:space="preserve" width="48px" height="48px" version="1.1" style="shape-rendering:geometricPrecision; text-rendering:geometricPrecision; image-rendering:optimizeQuality; fill-rule:evenodd; clip-rule:evenodd"
viewBox="0 0 4800 4800"
 xmlns:xlink="http://www.w3.org/1999/xlink">
 <defs>
  <style type="text/css">
   <![CDATA[
    .fil4 {fill:#F0C84D}
    .fil2 {fill:#02813E}
    .fil3 {fill:#2C30FA}
    .fil1 {fill:#DEDEDE}
    .fil0 {fill:#EBEBEB}
   ]]>
  </style>
 </defs>
 <g id="Layer_x0020_1">
  <metadata id="CorelCorpID_0Corel-Layer"/>
  <g id="_272039024">
   <rect class="fil0" width="4800" height="4800" rx="988" ry="988"/>
   <path class="fil1" d="M4800 2624l0 1188c0,544 -444,988 -988,988l-930 0 -301 -170 124 -213 -1097 -656 62 34 64 31 65 29 66 26 68 23 70 20 71 16 71 14 73 10 0 -250 -470 -302 -1 -1 -1 0 -1 -1 -2 -1 -1 -1 -1 -1 -1 0 -2 -1 -1 -1 -2 -1 -2 -2 -1 -1 -2 -1 -1 -1 -2 -1 -2 -1 -1 -1 -1 -1 -1 0 -1 -1 -1 -1 -2 -1 -1 -1 -1 0 -3 -2 -3 -2 -3 -3 -3 -2 -3 -2 -2 -2 -3 -2 -3 -2 -2 -1 -1 -1 -2 -1 -1 -1 -1 -1 -2 -1 -1 -1 -2 -1 -1 -1 -2 -1 -1 -1 -1 -2 -2 -1 -1 -1 -2 -1 -1 -1 -1 -1 -2 -1 -1 -1 -1 -1 -2 -1 -1 -1 -1 -1 -1 -1 -2 -1 -1 -1 -2 -1 -1 -1 -2 -2 -1 -1 -2 -1 -1 -1 -1 -1 -2 -1 -1 -1 -1 -1 -1 -1 -1 -1 -2 -1 -1 -1 -1 -1 -2 -1 -1 -1 -2 -2 -1 -1 -1 -1 -2 -1 -1 -1 -1 -1 -2 -1 -1 -1 -1 -2 -1 -1 -2 -1 -1 -1 -1 -1 -2 -1 -1 -1 -1 -1 -2 -2 -1 -1 -1 -1 -2 -1 -1 -1 -1 -1 -1 -1 -2 -1 -1 -2 -1 -1 -1 -1 -2 -1 -1 -1 -1 -1 -1 -1 -2 -2 -1 -1 -2 -1 -1 -1 -1 -1 -1 -2 -2 -1 -1 -1 -1 -1 -1 -1 -2 -1 -1 -2 -1 -1 -1 -1 -2 -1 -1 -1 -1 -1 -1 -2 -2 -1 -1 -1 -1 -1 -1 -1 -2 -2 -1 -1 -1 -1 -1 -1 -1 -1 -2 -1 -1 -2 -1 -1 -1 -1 -2 -1 -1 -2 -1 -1 -1 -1 -2 -1 -1 -2 -1 -1 -1 -1 -2 -1 -1 -1 -1 -2 -1 -1 -1 -1 -1 -1 -2 -1 -1 -2 -1 -1 -1 -1 -2 -1 -1 -2 -1 -1 -1 -1 -1 -1 -2 -2 -1 -1 -1 -1 -1 -2 -1 -1 -2 -1 -1 -2 -1 -1 -1 -1 -1 -1 -1 -2 -2 -1 -1 -1 -1 -1 -1 -1 -1 -2 -2 -2 -2 -2 -2 -2 -1 -2 -2 -2 -2 -2 -2 -2 -2 -2 -1 -2 -1 -1 -2 -2 -1 -1 -1 -2 -2 -1 -1 -2 -1 -2 -2 -1 -1 -2 -1 -1 -1 -2 -2 -1 -1 -2 -1 -1 -1 -2 -2 -1 -1 -1 -1 -1 -1 -2 -1 -1 -1 -1 -1 -1 -1 -2 -1 -1 -1 -1 -1 -2 -1 -1 -1 -2 -2 -1 -1 -2 -1 -1 -1 -1 -1 -2 -1 -1 -1 -1 -1 -2 -1 -1 -1 -1 -1 -1 -1 -2 -1 -1 -1 -2 -1 -1 -2 -2 -1 -1 -1 -2 -1 -1 -1 -1 -1 -2 -1 -1 -1 -1 -1 -2 -1 -1 -1 -1 -1 -2 -1 -1 -1 -2 -1 -1 -1 -1 -1 -2 -1 -1 -1 -2 -1 -1 -1 -2 -1 -1 -1 -1 -1 -2 -1 -1 -1 -1 -1 -2 -1 -1 -1 -2 -1 -1 -1 -2 -1 -1 -1 -2 -1 -1 -1 -2 -1 -1 -1 -1 -1 -2 -1 -1 -1 -2 -1 -1 -1 -1 -1 -2 -1 -1 -1 -1 -1 -2 -1 -2 -1 -1 -1 -2 -1 -1 -1 -2 -1 -1 0 -2 -1 -1 -1 -1 -1 -2 -1 -1 -1 -1 -1 -2 -1 -1 -1 -2 -1 -1 -1 -2 -1 -1 -1 -2 -1 -2 -1 -1 -1 -2 0 -1 -1 -2 -1 -1 -1 -1 -1 -2 -1 -1 0 -1 -1 -2 -1 -1 -1 -2 -1 -2 -1 -2 -1 -1 -1 -2 -1 -2 -1 -1 -1 -2 -1 -1 -1 -1 0 -1 -1 -2 -1 -1 -1 -1 0 -2 -2 -2 -1 -2 -1 -2 -1 -2 -1 -2 -1 -2 -1 -2 -2 -2 0 -1 -1 -1 0 -1 -1 -1 0 -1 -1 -1 0 -1 -1 -1 -1 -3 -2 -3 -2 -3 -1 -3 -2 -3 -1 -3 -2 -3 -2 -3 0 -1 -1 -1 0 -1 -1 -1 0 -1 -1 -1 0 -1 -1 -2 -1 -2 -1 -2 -1 -2 -1 -2 -1 -2 -1 -2 -1 -2 -1 -2 -1 -1 0 -2 -1 -1 -1 -1 0 -2 -1 -1 0 -1 -1 -1 -1 -2 -1 -2 -1 -2 0 -2 -1 -2 -1 -2 -1 -2 -1 -2 -1 -1 0 -1 -1 -2 0 -1 -1 -1 -1 -1 0 -2 -1 -1 -1 -2 0 -2 -1 -2 -1 -2 -1 -2 -1 -1 -1 -2 0 -2 -1 -2 -1 -1 0 -1 -1 -2 0 -1 -1 -2 0 -1 -1 -2 -1 -1 -1 -2 0 -2 -1 -2 -1 -2 -1 -1 0 -2 -1 -2 -1 -1 0 -2 -1 -1 0 -2 -1 -1 -1 -2 0 -1 -1 -2 0 -2 -1 -2 -1 -1 0 -2 -1 -2 -1 -2 -1 -1 0 -2 -1 -2 0 -1 -1 -2 0 -1 -1 -2 0 -1 -1 -2 -1 -1 0 -2 -1 -2 -1 -2 0 -2 -1 -2 -1 -1 0 -2 -1 -2 0 -2 -1 -1 0 -2 -1 -1 0 -2 -1 -1 0 -1 -1 -2 -1 -2 0 -2 -1 -2 0 -2 -1 -2 -1 -2 0 -1 -1 -2 0 -2 -1 -1 0 -2 -1 -1 0 -2 -1 -1 0 -1 0 -2 -1 -2 -1 -2 0 -2 -1 -2 -1 -3 0 -2 -1 -2 -1 -2 0 -1 0 -2 -1 -1 0 -1 0 -1 -1 -2 0 -1 0 -1 -1 -3 -1 -3 -1 -3 -1 -3 -1 -3 0 -3 -1 -3 -1 -3 -1 -3 -1 -4 -1 -3 -1 -4 0 -3 -1 -4 -1 -3 -1 -4 -1 -3 0 -1 0 -1 0 -1 -1 -1 0 -1 0 -1 0 -1 0 -1 -1 -3 -1 -2 0 -3 -1 -2 0 -2 -1 -3 0 -2 -1 -3 0 -1 0 -2 -1 -1 0 -1 0 -2 0 -1 -1 -2 0 -1 0 -2 -1 -2 0 -3 -1 -2 0 -2 -1 -2 0 -2 0 -2 0 -2 -1 -1 0 -2 0 -1 -1 -2 0 -1 0 -2 0 -1 -1 -2 0 -2 0 -2 -1 -2 0 -2 0 -2 -1 -3 0 -2 0 -1 -1 -2 0 -1 0 -2 0 -1 0 -2 -1 -1 0 -2 0 -2 -1 -2 0 -2 0 -2 0 -2 -1 -2 0 -2 0 -2 0 -2 -1 -1 0 -2 0 -2 0 -1 0 -2 -1 -1 0 -2 0 -2 0 -2 -1 -2 0 -2 0 -2 0 -2 -1 -2 0 -3 0 -1 0 -2 0 -1 0 -2 -1 -1 0 -2 0 -2 0 -1 0 -2 0 -2 -1 -2 0 -3 0 -2 0 -2 0 -2 0 -2 -1 -1 0 -2 0 -1 0 -2 0 -2 0 -1 0 -2 -1 -1 0 -3 0 -2 0 -2 0 -2 0 -2 0 -3 0 -2 -1 -2 0 -1 0 -2 0 -1 0 -2 0 -1 0 -2 0 -1 0 -2 0 -2 -1 -3 0 -2 0 -3 0 -2 0 -2 0 -3 0 -2 0 -2 0 -1 0 -1 0 -1 0 -1 0 -2 0 -1 0 -1 0 -4 -1 -4 0 -3 0 -4 0 -4 0 -3 0 -4 0 -4 0 -4 0 -3 0 -4 0 -4 0 -4 1 -3 0 -4 0 -4 0 -1 0 -1 0 -1 0 -1 0 -2 0 -1 0 -1 0 -1 0 -3 0 -2 0 -3 0 -2 0 -3 0 -2 1 -3 0 -2 0 -2 0 -1 0 -2 0 -1 0 -1 0 -2 0 -1 0 -2 1 -2 0 -2 0 -2 0 -3 0 -2 0 -2 0 -2 0 -2 1 -2 0 -2 0 -1 0 -2 0 -1 0 -2 0 -1 1 -2 0 -2 0 -2 0 -2 0 -2 0 -2 1 -3 0 -2 0 -2 0 -1 0 -2 0 -1 1 -2 0 -1 0 -2 0 -2 0 -1 0 -2 1 -2 0 -2 0 -3 0 -2 1 -2 0 -2 0 -2 0 -1 1 -2 0 -2 0 -1 0 -2 0 -1 1 -2 0 -1 0 -2 0 -2 1 -2 0 -2 0 -3 0 -2 1 -2 0 -2 0 -1 1 -2 0 -1 0 -2 0 -1 0 -2 1 -2 0 -1 0 -2 1 -2 0 -2 0 -2 1 -2 0 -3 0 -2 1 -2 0 -1 0 -2 0 -1 1 -2 0 -1 0 -2 1 -1 0 -2 0 -2 0 -2 1 -2 0 -2 1 -2 0 -2 1 -3 0 -2 0 -1 1 -1 0 -2 0 -1 0 -2 1 -1 0 -1 0 -2 1 -2 0 -3 1 -2 0 -3 1 -2 0 -3 1 -2 1 -3 0 -1 0 -1 0 -1 0 -1 1 -1 0 -1 0 -1 0 -1 1 -3 1 -4 1 -3 1 -4 0 -3 1 -4 1 -3 1 -3 0 -1 0 0 0 -1 1 0 0 -1 0 0 0 -1 0 0 1 -3 1 -3 0 -3 1 -3 1 -3 1 -3 1 -3 1 -3 0 -1 0 -1 1 -2 0 -1 0 -1 1 -1 0 -1 0 -2 1 -2 1 -2 0 -2 1 -2 1 -2 0 -3 1 -2 1 -2 0 -1 0 -2 1 -1 0 -2 1 -1 0 -1 1 -2 0 -1 1 -2 0 -2 1 -2 1 -2 0 -2 1 -2 0 -2 1 -2 1 -1 0 -2 1 -1 0 -2 1 -1 0 -2 1 -1 0 -2 1 -2 0 -1 1 -2 1 -2 0 -2 1 -2 1 -2 0 -2 1 -1 1 -2 0 -1 1 -1 0 -2 1 -1 0 -2 1 -1 0 -2 1 -2 1 -2 1 -2 0 -1 1 -2 1 -2 0 -2 1 -1 0 -2 1 -1 1 -2 0 -1 1 -2 0 -1 1 -2 1 -2 0 -1 1 -2 1 -2 1 -2 0 -2 1 -1 1 -2 1 -2 0 -1 1 -1 0 -2 1 -1 0 -2 1 -1 1 -2 0 -1 1 -2 1 -2 1 -2 1 -2 1 -2 0 -2 1 -2 1 -1 0 -1 1 -2 1 -1 0 -1 1 -2 0 -1 1 -1 1 -2 1 -2 1 -2 1 -2 0 -2 1 -2 1 -1 1 -2 1 -2 0 -1 1 -1 0 -2 1 -1 1 -1 0 -1 1 -2 1 -2 1 -2 1 -2 1 -2 1 -2 1 -2 1 -2 1 -2 1 -1 0 -1 1 -1 0 -2 1 0 0 -2 1 -1 0 -1 2 -3 2 -3 1 -3 2 -3 1 -3 2 -3 2 -3 1 -3 1 -1 0 -1 1 -1 0 -1 1 -1 0 -1 1 -1 0 -1 2 -2 1 -2 1 -2 1 -2 1 -2 1 -2 1 -2 2 -2 0 -1 1 -2 1 -1 1 -1 0 -2 1 -1 1 -1 1 -1 1 -2 1 -2 1 -2 1 -1 1 -2 1 -2 1 -1 1 -2 1 -1 0 -2 1 -1 1 -1 1 -2 1 -1 1 -2 0 -1 1 -2 1 -1 1 -2 1 -1 1 -2 1 -1 1 -2 1 -2 1 -1 1 -1 1 -2 1 -1 1 -1 1 -2 1 -1 0 -2 1 -1 1 -2 1 -1 1 -2 1 -1 1 -2 1 -1 1 -2 1 -1 1 -2 1 -1 1 -1 1 -2 1 -1 1 -1 1 -2 1 -1 1 -2 1 -1 1 -2 1 -1 1 -2 1 -1 1 -2 1 -1 1 -1 1 -2 1 -1 1 -1 1 -2 1 -1 1 -1 1 -2 1 -1 1 -2 1 -1 1 -2 1 -1 1 -2 1 -1 1 -1 1 -2 1 -1 1 -1 1 -2 1 -1 1 -1 1 -2 1 -1 1 -2 1 -1 2 -1 1 -2 1 -1 1 -2 1 -1 1 -2 1 -1 1 -1 1 -1 1 -2 1 -1 1 -1 1 -2 1 -1 1 -2 2 -1 1 -1 1 -2 1 -1 1 -2 1 -1 1 -1 1 -2 1 -1 1 -1 1 -2 1 -1 1 -1 2 -1 1 -2 1 -1 1 -2 2 -1 1 -2 1 -1 1 -2 2 -1 1 -2 1 -1 2 -2 1 -1 1 -2 2 -2 1 -1 1 -2 2 -2 2 -2 2 -2 2 -2 1 -2 2 -2 2 -2 2 -2 1 -1 1 -2 1 -1 1 -1 2 -1 1 -1 1 -2 1 -1 1 -1 1 -1 2 -2 1 -1 1 -1 1 -2 1 -1 2 -1 1 -2 1 -1 1 -1 1 -1 2 -1 1 -2 1 -1 1 -1 2 -1 1 -2 1 -1 1 -1 1 -1 1 -1 2 -2 1 -1 1 -1 1 -1 2 -2 1 -1 1 -1 1 -2 2 -1 1 -1 1 -1 1 -1 2 -2 1 -1 1 -1 1 -1 1 -1 2 -1 1 -2 1 -1 1 -1 2 -1 1 -1 1 -2 1 -1 2 -1 1 -1 1 -1 1 -1 2 -2 1 -1 1 -1 1 -1 2 -1 1 -1 1 -2 1 -1 2 -1 1 -1 2 -1 1 -1 1 -2 1 -1 2 -1 1 -1 1 -1 1 -1 2 -1 1 -1 1 -2 1 -1 2 -1 1 -1 1 -1 2 -1 1 -2 1 -1 2 -1 1 -1 1 -1 2 -1 1 -1 1 -1 1 -1 2 -1 1 -1 1 -2 2 -1 1 -1 1 -1 2 -1 1 -1 2 -2 1 -1 1 -1 2 -1 1 -1 1 -1 1 -1 1 -1 2 -1 1 -1 1 -1 2 -1 1 -1 2 -1 1 -2 2 -1 1 -1 2 -1 1 -1 1 -1 1 -1 2 -1 1 -1 1 -1 2 -1 1 -1 1 -1 2 -1 1 -1 2 -1 1 -1 1 -1 2 -2 1 -1 2 -1 1 -1 2 -1 1 -1 1 -1 2 -1 1 -1 2 -1 3 -2 2 -2 3 -2 3 -2 3 -2 3 -2 3 -2 3 -2 1 -1 1 -1 2 -1 1 -1 1 0 1 -1 1 -1 1 -1 2 -1 2 -1 1 -1 2 -1 1 -1 2 -1 2 -1 1 -2 2 0 1 -1 1 -1 1 -1 2 -1 1 0 1 -1 1 -1 2 -1 2 -1 1 -1 2 -1 1 -1 2 -1 2 -1 1 -1 2 -1 1 -1 1 -1 1 0 2 -1 1 -1 1 -1 2 -1 1 -1 2 -1 1 -1 2 -1 2 -1 1 -1 2 -1 2 -1 1 0 1 -1 2 -1 1 -1 1 -1 2 0 1 -1 1 -1 2 -1 2 -1 1 -1 2 -1 2 -1 1 -1 2 0 1 -1 2 -1 1 -1 2 -1 1 0 1 -1 2 -1 1 -1 2 -1 1 0 2 -1 2 -1 1 -1 2 -1 1 -1 2 -1 2 -1 1 -1 2 0 1 -1 1 -1 2 0 1 -1 1 -1 2 -1 2 0 1 -1 2 -1 2 -1 1 -1 2 -1 2 -1 1 -1 2 0 1 -1 2 -1 1 0 1 -1 2 -1 1 0 1 -1 2 -1 2 -1 2 -1 1 0 2 -1 2 -1 2 -1 1 -1 2 0 1 -1 2 -1 1 -1 1 0 2 -1 1 0 2 -1 1 -1 2 -1 2 -1 2 0 1 -1 2 -1 2 -1 2 -1 1 0 1 -1 2 0 1 -1 1 0 1 -1 2 0 1 -1 2 -1 2 -1 2 -1 2 0 2 -1 2 -1 1 -1 2 -1 1 0 1 0 0 -1 1 0 1 0 0 0 1 -1 1 0 4 -2 5 -2 4 -1 5 -2 5 -2 5 -2 4 -2 5 -2 1 0 1 0 1 -1 1 0 1 0 1 -1 1 0 1 -1 2 0 2 -1 2 -1 2 0 2 -1 1 -1 2 -1 2 0 2 -1 1 0 1 -1 2 0 1 -1 2 0 1 -1 1 0 2 -1 2 0 2 -1 2 -1 2 0 2 -1 2 0 2 -1 1 -1 1 0 2 0 1 -1 2 0 1 -1 1 0 2 -1 2 0 2 -1 2 -1 1 0 2 -1 2 0 2 -1 2 0 2 -1 1 0 2 -1 1 0 1 -1 2 0 1 0 2 -1 2 0 2 -1 2 -1 1 0 2 -1 2 0 2 -1 2 0 2 -1 1 0 2 0 1 -1 2 0 1 -1 2 0 1 0 2 -1 2 -1 2 0 2 0 2 -1 2 0 1 -1 2 0 2 -1 1 0 2 -1 2 0 1 0 2 -1 1 0 2 0 2 -1 1 0 2 -1 2 0 2 -1 2 0 2 -1 2 0 2 0 1 -1 2 0 1 0 2 -1 1 0 2 0 1 -1 2 0 2 0 2 -1 2 0 2 -1 2 0 2 -1 2 0 1 0 2 -1 1 0 2 0 2 0 1 -1 2 0 1 0 2 -1 2 0 2 0 2 -1 2 0 2 0 2 -1 2 0 1 -1 2 0 1 0 2 0 1 0 2 -1 1 0 2 0 12 -2 12 -2 12 -2 12 -1 13 -2 12 -1 12 -1 13 -1 12 -1 13 -1 12 -1 13 0 12 -1 13 0 12 0 13 0 0 -33 -492 -456 129 0 363 341 0 -341 129 0 -156 -269 -155 -269 1658 1682 -9 -24 -28 -66 -30 -64 -33 -63 -36 -61 -38 -59 -41 -57 -44 -56 -45 -53 -48 -51 1276 1326z"/>
   <g>
    <path class="fil2" d="M2218 3964c-783,-90 -1392,-756 -1392,-1564 0,-744 517,-1368 1211,-1532l0 -160 -129 0 155 -269 155 -269 155 269 156 269 -129 0 0 489c-68,0 -134,5 -198,16 -4,1 -8,1 -12,2 -5,1 -11,2 -16,3 -4,0 -8,1 -12,2 -5,1 -11,2 -16,3 -4,1 -8,2 -12,3 -5,1 -10,2 -15,4 -4,1 -9,2 -13,3 -5,1 -10,2 -15,4 -4,1 -8,2 -12,3 -5,1 -10,3 -15,4 -4,1 -8,2 -12,4 -5,1 -10,3 -15,4 -4,1 -8,3 -11,4 -6,2 -11,3 -16,5 -3,1 -7,3 -11,4 -5,2 -10,3 -15,5 -3,1 -6,2 -8,3 -13,5 -25,10 -37,15 -2,1 -4,2 -6,2 -5,2 -10,5 -15,7 -3,1 -7,3 -10,4 -5,3 -10,5 -14,7 -4,2 -8,3 -12,5 -4,2 -9,5 -14,7 -3,2 -7,3 -11,5 -4,3 -9,5 -13,7 -4,2 -8,4 -11,6 -5,3 -9,5 -13,7 -4,2 -8,5 -12,7 -4,2 -8,5 -13,7 -3,2 -7,4 -10,6 -5,3 -9,6 -13,8 -4,2 -7,5 -11,7 -4,2 -8,5 -13,8 -3,2 -6,4 -10,6 -4,3 -8,6 -13,9 -3,2 -6,4 -9,7 -8,5 -16,11 -23,16 -4,3 -8,6 -12,8 -4,3 -7,6 -11,9 -4,3 -7,5 -10,8 -4,3 -8,6 -12,9 -3,3 -7,6 -10,8 -4,3 -7,6 -11,10 -3,2 -7,5 -10,8 -4,3 -7,6 -11,9 -3,3 -7,6 -10,9 -3,3 -7,7 -10,10 -4,3 -7,6 -10,9 -4,3 -7,6 -10,10 -4,3 -7,6 -10,9 -3,3 -7,7 -10,10 -3,3 -6,7 -10,10 -3,3 -6,6 -9,10 -4,3 -7,7 -10,10 -3,3 -6,7 -9,10 -5,5 -10,11 -15,16 -3,5 -7,9 -10,13 -4,4 -7,8 -11,12 -2,3 -5,6 -8,10 -3,4 -6,7 -9,11 -3,4 -5,7 -8,11 -3,4 -6,7 -9,11 -2,4 -5,7 -8,11 -3,4 -5,8 -8,12 -3,3 -5,7 -8,10 -3,4 -5,8 -8,12 -3,4 -5,8 -8,11 -2,4 -5,8 -8,12 -2,4 -4,8 -7,11 -2,5 -5,9 -8,13 -2,4 -4,7 -6,11 -3,5 -6,9 -8,14 -2,3 -4,6 -6,10 -4,5 -7,11 -10,16 -1,3 -2,6 -4,8 -4,8 -9,16 -13,24 -1,3 -2,6 -4,9 -3,5 -5,11 -8,16 -2,4 -3,7 -5,11 -2,5 -5,10 -7,15 -2,3 -3,7 -5,10 -2,5 -4,10 -6,15 -2,4 -4,8 -5,12 -2,5 -4,9 -6,14 -2,4 -3,8 -5,12 -2,5 -3,10 -5,15 -2,4 -3,8 -5,11 -1,5 -3,10 -5,15 -1,4 -3,8 -4,12 -2,5 -3,11 -5,16 -1,4 -2,7 -3,11 -2,6 -4,12 -6,17 -1,4 -2,7 -2,10 -3,8 -5,16 -7,24 0,1 -1,2 -1,4 -2,9 -5,18 -7,27 0,3 -1,6 -2,8 -1,7 -2,14 -4,20 -1,4 -1,8 -2,11 -1,6 -2,12 -3,17 -1,4 -2,8 -2,12 -1,6 -2,11 -3,17 -1,4 -1,8 -2,12 -1,6 -1,11 -2,17 -1,4 -1,8 -2,12 0,6 -1,11 -2,17 0,4 -1,8 -1,12 -1,6 -1,11 -1,17 -1,4 -1,8 -2,13 0,5 0,11 -1,17 0,4 0,8 0,12 -1,6 -1,13 -1,20 0,3 0,6 0,9 -1,10 -1,20 -1,30 0,10 0,20 1,30 0,3 0,6 0,10 0,6 0,13 1,19 0,4 0,8 0,12 1,6 1,12 1,18 1,4 1,8 2,12 0,6 0,11 1,17 0,4 1,8 1,12 1,6 2,12 2,17 1,4 1,8 2,13 1,5 1,10 2,16 1,4 1,8 2,12 1,6 2,11 3,17 0,4 1,8 2,12 1,6 2,11 3,17 1,4 1,7 2,11 2,7 3,13 4,20 1,3 2,5 2,8 2,9 5,19 7,28l1 3c2,8 4,16 7,24 0,3 1,7 2,10 2,6 4,12 6,17 1,4 2,8 3,12 2,5 3,10 5,15 1,4 3,8 4,12 2,5 4,10 5,15 2,4 3,8 5,12 2,4 3,9 5,14 2,4 3,8 5,12 2,5 4,10 6,14 1,4 3,8 5,12 2,5 4,10 6,15 2,3 3,7 5,10 2,6 5,11 7,16 2,3 3,7 5,10 3,6 5,11 8,16 2,3 3,6 4,9 4,8 9,16 13,24 2,3 3,5 4,8 3,5 6,11 10,16 2,4 4,7 6,11 2,4 5,9 8,13 2,4 4,7 6,11 3,4 6,9 8,13 3,3 5,7 7,11 3,4 6,8 8,12 3,4 5,7 8,11 3,4 5,8 8,12 3,4 5,7 8,11 3,4 5,8 8,11 3,4 6,8 8,11 3,4 6,8 9,12 3,3 5,6 8,10 3,4 6,8 9,11 3,4 6,7 8,10 4,4 7,8 11,12 3,5 7,9 10,13 5,5 10,11 15,16 3,4 6,7 9,10 3,3 6,7 10,11 3,3 6,6 9,10 4,3 7,6 10,9 3,3 7,7 10,10 3,3 6,6 10,10 3,3 6,6 10,9 3,3 6,6 10,9 3,4 7,7 10,10 3,3 7,6 10,9 4,3 7,6 11,9 3,3 7,6 10,9 4,3 7,6 11,9 3,3 7,5 10,8 4,3 8,6 12,9 3,3 6,5 10,8 4,3 7,6 11,9 4,3 8,5 12,8 7,6 15,11 23,17 3,2 6,4 9,6 5,3 9,6 13,9 4,2 7,4 10,6 5,3 9,6 13,9 4,2 7,4 11,6 4,3 8,5 13,8 3,2 7,4 10,6 5,3 9,5 13,8 4,2 8,4 12,6 4,2 8,5 13,7 3,2 7,4 11,6 4,2 9,4 13,7 4,2 8,4 11,5 5,3 10,5 14,7 4,2 8,4 12,5 4,2 9,5 14,7 3,1 7,3 10,4 5,3 10,5 15,7 2,1 4,1 6,2 12,5 24,10 37,15 2,1 5,2 8,3 5,2 10,4 15,5 4,2 8,3 11,4 5,2 10,4 16,5 3,2 7,3 11,4 5,2 10,3 15,5 4,1 8,2 12,3 5,2 10,3 15,4 4,2 8,3 12,4 5,1 10,2 15,4 4,1 9,2 13,3 5,1 10,2 15,3 4,1 8,2 12,3 5,1 11,2 16,3 4,1 8,2 12,2 5,2 11,3 16,3 4,1 8,2 12,2 5,1 11,2 16,3l0 374z"/>
    <path class="fil3" d="M2581 836c784,91 1393,756 1393,1564 0,744 -517,1368 -1211,1532l0 161 129 0 -155 268 -156 269 -155 -269 -155 -268 129 0 0 -489c67,0 133,-6 198,-17 4,0 8,-1 12,-2 5,0 10,-1 16,-3 4,0 8,-1 12,-2 5,-1 10,-2 16,-3 4,-1 8,-2 12,-3 5,-1 10,-2 15,-3 4,-1 8,-2 12,-3 5,-2 11,-3 16,-4 4,-1 8,-2 12,-4 5,-1 10,-2 15,-4 4,-1 8,-2 11,-3 6,-2 11,-3 16,-5 4,-1 7,-2 11,-4 5,-1 10,-3 16,-5 3,-1 7,-2 10,-4 6,-1 11,-3 16,-5 3,-1 5,-2 8,-3 12,-5 25,-10 37,-15 2,-1 4,-1 5,-2 6,-2 11,-4 16,-7 3,-1 7,-3 10,-4 5,-2 9,-5 14,-7 4,-1 8,-3 11,-5 5,-2 10,-4 14,-7 4,-1 8,-3 11,-5 5,-3 9,-5 14,-7 4,-2 7,-4 11,-6 4,-2 9,-5 13,-7 4,-2 8,-4 11,-6 5,-3 9,-5 13,-8 4,-2 7,-4 11,-6 4,-3 9,-5 13,-8 4,-2 7,-4 10,-6 5,-3 9,-6 14,-9 3,-2 6,-4 9,-6 5,-3 9,-6 14,-9 3,-2 6,-4 9,-6 8,-6 15,-11 23,-17 4,-3 8,-5 11,-8 4,-3 8,-6 12,-9 3,-3 7,-5 10,-8 4,-3 8,-6 12,-9 3,-3 6,-5 10,-8 3,-3 7,-6 11,-9 3,-3 7,-6 10,-9 4,-3 7,-6 11,-9 3,-3 6,-6 10,-9 3,-3 7,-6 10,-10 3,-3 7,-6 10,-9 3,-3 7,-6 10,-9 3,-4 7,-7 10,-10 3,-3 7,-7 10,-10 3,-3 6,-6 9,-9 4,-4 7,-7 10,-10 3,-4 6,-8 10,-11 3,-3 6,-6 9,-10 5,-5 10,-11 14,-16 4,-4 8,-8 11,-13 3,-4 7,-8 10,-12 3,-3 6,-6 8,-10 3,-3 7,-7 10,-11 2,-4 5,-7 8,-10 3,-4 6,-8 8,-12 3,-3 6,-7 8,-11 3,-3 6,-7 9,-11 2,-4 5,-7 8,-11 2,-4 5,-8 8,-12 2,-4 5,-7 7,-11 3,-4 6,-8 8,-12 3,-4 5,-8 7,-11 3,-4 6,-9 8,-13 3,-4 5,-7 7,-11 3,-4 5,-9 8,-13 2,-4 4,-7 6,-11 3,-5 6,-11 9,-16 2,-3 3,-5 5,-8 4,-8 8,-16 12,-24 2,-3 3,-6 5,-9 2,-5 5,-10 8,-16 1,-3 3,-7 5,-10 2,-5 4,-10 7,-16 1,-3 3,-7 4,-10 3,-5 5,-10 7,-15 2,-4 3,-8 5,-12 2,-4 4,-9 6,-14 1,-4 3,-8 4,-12 2,-5 4,-10 6,-14 1,-4 3,-8 4,-12 2,-5 4,-10 5,-15 2,-4 3,-8 5,-12 1,-5 3,-10 5,-15 1,-4 2,-8 3,-12 2,-5 4,-11 5,-17 1,-3 2,-7 3,-10 2,-8 5,-16 7,-24 0,-1 0,-2 1,-3 2,-10 4,-19 6,-28 1,-3 2,-5 2,-8 2,-7 3,-13 5,-20 0,-4 1,-7 2,-11 1,-6 2,-11 3,-17 1,-4 1,-8 2,-12 1,-6 2,-11 3,-17 0,-4 1,-8 2,-12 0,-5 1,-11 2,-16 1,-5 1,-9 2,-13 0,-5 1,-11 1,-17 1,-4 1,-8 2,-12 0,-6 1,-11 1,-17 1,-4 1,-8 1,-12 1,-6 1,-12 1,-18 1,-4 1,-8 1,-12 0,-6 1,-13 1,-19 0,-4 0,-7 0,-10 0,-10 0,-20 0,-30 0,-10 0,-20 0,-30 0,-3 0,-6 0,-9 0,-7 -1,-14 -1,-20 0,-4 0,-8 -1,-12 0,-6 0,-12 -1,-17 0,-5 0,-9 -1,-13 0,-6 -1,-11 -1,-17 -1,-4 -1,-8 -2,-12 0,-6 -1,-11 -1,-17 -1,-4 -1,-8 -2,-12 -1,-6 -2,-11 -2,-17 -1,-4 -2,-8 -2,-12 -1,-6 -2,-11 -3,-17 -1,-4 -1,-8 -2,-12 -1,-5 -2,-11 -3,-17 -1,-3 -2,-7 -2,-11 -2,-6 -3,-13 -5,-20 0,-2 -1,-5 -2,-8 -2,-9 -4,-18 -6,-27l-1 -4c-2,-8 -5,-16 -7,-24 -1,-3 -2,-6 -3,-10 -1,-5 -3,-11 -5,-17 -1,-4 -2,-7 -3,-11 -2,-5 -4,-11 -5,-16 -2,-4 -3,-8 -5,-12 -1,-5 -3,-10 -5,-15 -1,-3 -3,-7 -4,-11 -2,-5 -4,-10 -6,-15 -1,-4 -3,-8 -4,-12 -2,-5 -4,-9 -6,-14 -2,-4 -3,-8 -5,-12 -2,-5 -4,-10 -7,-15 -1,-3 -3,-7 -4,-10 -3,-5 -5,-10 -7,-15 -2,-4 -4,-7 -5,-11 -3,-5 -6,-11 -8,-16 -2,-3 -3,-6 -5,-9 -4,-8 -8,-16 -12,-24 -2,-2 -3,-5 -5,-8 -3,-5 -6,-11 -9,-16 -2,-4 -4,-7 -6,-10 -3,-5 -5,-9 -8,-14 -2,-4 -4,-7 -7,-11 -2,-4 -5,-8 -8,-13 -2,-3 -4,-7 -7,-11 -2,-4 -5,-8 -8,-12 -2,-3 -5,-7 -7,-11 -3,-4 -6,-8 -8,-12 -3,-3 -6,-7 -8,-10 -3,-4 -6,-8 -9,-12 -2,-4 -5,-7 -8,-11 -2,-4 -5,-7 -8,-11 -3,-4 -6,-7 -8,-11 -3,-4 -7,-7 -10,-11 -2,-4 -5,-7 -8,-10 -3,-4 -7,-8 -10,-12 -3,-4 -7,-9 -11,-13 -4,-5 -9,-11 -14,-16 -3,-3 -6,-7 -9,-10 -4,-3 -7,-7 -10,-10 -3,-4 -6,-7 -10,-10 -3,-3 -6,-7 -9,-10 -3,-3 -7,-7 -10,-10 -3,-3 -7,-6 -10,-9 -3,-4 -7,-7 -10,-10 -3,-3 -7,-6 -10,-9 -3,-3 -7,-7 -10,-10 -4,-3 -7,-6 -10,-9 -4,-3 -7,-6 -11,-9 -3,-3 -7,-6 -10,-8 -4,-4 -8,-7 -11,-10 -4,-2 -7,-5 -10,-8 -4,-3 -8,-6 -12,-9 -3,-3 -7,-5 -10,-8 -4,-3 -8,-6 -12,-9 -3,-2 -7,-5 -11,-8 -8,-5 -15,-11 -23,-16 -3,-3 -6,-5 -9,-7 -5,-3 -9,-6 -14,-9 -3,-2 -6,-4 -9,-6 -5,-3 -9,-6 -14,-8 -3,-2 -6,-5 -10,-7 -4,-2 -9,-5 -13,-8 -4,-2 -7,-4 -11,-6 -4,-2 -8,-5 -13,-7 -3,-2 -7,-5 -11,-7 -4,-2 -9,-4 -13,-7 -4,-2 -7,-4 -11,-6 -5,-2 -9,-4 -14,-7 -3,-2 -7,-3 -11,-5 -4,-2 -9,-5 -14,-7 -3,-2 -7,-3 -11,-5 -5,-2 -9,-4 -14,-7 -3,-1 -7,-3 -10,-4 -5,-2 -10,-5 -16,-7 -1,0 -3,-1 -5,-2 -12,-5 -25,-10 -37,-15 -3,-1 -5,-2 -8,-3 -5,-2 -10,-3 -16,-5 -3,-1 -7,-3 -10,-4 -6,-2 -11,-3 -16,-5 -4,-1 -7,-3 -11,-4 -5,-1 -10,-3 -16,-4 -3,-2 -7,-3 -11,-4 -5,-1 -10,-3 -15,-4 -4,-1 -8,-2 -12,-3 -5,-2 -11,-3 -16,-4 -4,-1 -8,-2 -12,-3 -5,-2 -10,-3 -15,-4 -4,-1 -8,-2 -12,-3 -6,-1 -11,-2 -16,-3 -4,-1 -8,-2 -12,-2 -6,-1 -11,-2 -16,-3 -4,-1 -8,-1 -12,-2 -6,-1 -11,-2 -17,-3l0 -374z"/>
    <path class="fil4" d="M2400 1763c236,0 441,129 551,319l276 -159 55 -32c-176,-305 -505,-510 -882,-510 -563,0 -1019,457 -1019,1019 0,563 456,1019 1019,1019 377,0 706,-205 882,-509l-55 -32 -276 -160c-110,191 -315,319 -551,319 -352,0 -637,-285 -637,-637 0,-352 285,-637 637,-637z"/>
   </g>
  </g>
 </g>
</svg>
