<?xml version="1.0" encoding="UTF-8"?>
<!DOCTYPE svg PUBLIC "-//W3C//DTD SVG 1.1//EN" "http://www.w3.org/Graphics/SVG/1.1/DTD/svg11.dtd">
<!-- Creator: CorelDRAW X7 -->
<svg xmlns="http://www.w3.org/2000/svg" xml:space="preserve" width="512px" height="92px" version="1.1" style="shape-rendering:geometricPrecision; text-rendering:geometricPrecision; image-rendering:optimizeQuality; fill-rule:evenodd; clip-rule:evenodd"
viewBox="0 0 51200 9200"
 xmlns:xlink="http://www.w3.org/1999/xlink">
 <defs>
  <style type="text/css">
   <![CDATA[
    .fil2 {fill:#F0C84D}
    .fil0 {fill:#02813E}
    .fil1 {fill:#2C30FA}
    .fil4 {fill:#F0C84D;fill-rule:nonzero}
    .fil3 {fill:#02813E;fill-rule:nonzero}
   ]]>
  </style>
 </defs>
 <g id="Layer_x0020_1">
  <metadata id="CorelCorpID_0Corel-Layer"/>
  <g id="_372806704">
   <path class="fil0" d="M3032 8001c-1707,-196 -3032,-1644 -3032,-3401 0,-1619 1125,-2975 2637,-3332l0 -350 -280 0 337 -584 338 -584 338 584 337 584 -280 0 0 1064c-147,0 -291,12 -431,36 -9,1 -17,2 -26,4 -11,2 -23,4 -34,6 -9,2 -18,4 -27,5 -11,3 -23,5 -34,7 -9,2 -18,4 -27,6 -11,3 -22,5 -33,8 -9,2 -18,4 -27,7 -11,2 -22,5 -33,8 -9,2 -17,5 -26,7 -11,3 -22,6 -34,10 -8,2 -16,5 -25,7 -11,3 -22,7 -33,10 -8,3 -16,6 -25,8 -11,4 -22,8 -33,11 -8,3 -16,6 -24,9 -11,4 -23,8 -34,12 -6,2 -11,4 -17,6 -27,11 -54,21 -81,32 -4,2 -8,3 -12,5 -11,5 -22,10 -33,14 -7,4 -15,7 -22,10 -11,5 -21,10 -31,14 -8,4 -16,8 -24,12 -11,5 -21,10 -31,14 -8,4 -16,8 -24,12 -10,5 -19,11 -29,16 -8,4 -16,8 -24,12 -10,5 -20,11 -29,16 -8,4 -16,9 -25,14 -9,5 -18,10 -28,16 -7,4 -15,9 -23,13 -10,6 -19,12 -29,18 -7,4 -15,9 -22,14 -10,6 -19,11 -29,18 -7,4 -14,9 -21,14 -10,6 -19,12 -29,19 -6,4 -13,9 -20,13 -17,12 -34,24 -51,37 -8,6 -16,11 -24,17 -9,7 -17,13 -25,20 -8,5 -15,11 -23,17 -8,6 -17,13 -25,20 -7,6 -14,11 -21,17 -9,7 -17,14 -25,20 -7,6 -14,13 -22,19 -8,7 -15,13 -23,20 -7,6 -15,13 -22,19 -8,7 -15,14 -23,21 -7,7 -14,14 -21,20 -8,7 -15,14 -22,21 -7,7 -14,14 -21,21 -8,7 -15,14 -22,21 -7,7 -14,14 -21,21 -7,8 -14,15 -21,22 -7,8 -14,15 -21,23 -7,7 -13,14 -20,21 -11,12 -21,24 -32,36 -7,9 -15,18 -23,27 -7,9 -15,17 -22,26 -6,7 -12,14 -17,22 -7,8 -14,16 -21,25 -6,7 -11,15 -17,22 -7,9 -13,17 -20,26 -5,7 -11,15 -17,23 -6,8 -12,17 -18,25 -6,8 -11,16 -17,23 -6,9 -12,18 -18,27 -5,7 -11,15 -16,23 -6,9 -12,18 -18,27 -5,8 -10,16 -15,24 -6,9 -12,18 -17,27 -5,8 -10,16 -15,24 -6,10 -12,20 -17,29 -5,8 -9,15 -13,23 -7,12 -14,24 -21,36 -3,5 -6,11 -9,17 -9,17 -19,35 -28,52 -3,6 -6,12 -9,18 -6,13 -12,24 -18,37 -4,7 -7,15 -11,22 -5,11 -10,22 -15,33 -3,8 -7,16 -10,23 -5,11 -10,22 -15,33 -3,8 -6,16 -10,24 -4,11 -9,21 -13,32 -3,9 -7,17 -10,26 -4,10 -8,21 -12,31 -3,9 -6,18 -9,26 -4,11 -8,22 -12,32 -3,9 -6,18 -9,26 -3,11 -7,23 -11,34 -2,8 -5,16 -7,25 -4,12 -8,25 -12,37 -2,7 -4,14 -6,22 -5,17 -9,34 -14,51 -1,3 -1,5 -2,8 -5,20 -10,40 -15,61 -1,5 -2,11 -4,17 -3,14 -6,29 -9,43 -2,8 -3,16 -5,24 -2,13 -5,25 -7,38 -2,8 -3,17 -5,25 -2,12 -4,25 -6,37 -1,9 -2,18 -4,26 -1,12 -3,24 -5,36 -1,9 -2,18 -3,27 -1,12 -3,24 -4,36 -1,10 -2,19 -3,28 -1,12 -2,24 -3,36 -1,9 -2,18 -2,27 -1,13 -2,26 -3,39 0,8 -1,17 -1,25 -1,14 -1,29 -2,43 0,7 0,14 -1,21 0,22 0,43 0,65 0,22 0,43 0,65 1,7 1,14 1,21 1,14 1,28 2,43 0,8 1,17 1,25 1,13 2,26 3,39 0,9 1,18 2,27 1,12 2,24 3,36 1,9 2,18 3,27 1,12 3,24 4,37 1,9 2,18 3,27 2,12 4,23 5,35 2,9 3,18 4,27 2,12 4,24 6,36 2,9 3,18 5,26 2,13 5,25 7,37 2,9 3,17 5,25 3,14 6,28 9,43 2,6 3,11 4,17 5,20 10,41 15,61l2 8c5,17 9,34 14,51 2,7 4,14 6,22 4,12 8,25 12,37 2,9 5,17 7,25 4,11 8,22 11,33 3,9 6,18 9,26 4,11 8,22 12,33 3,8 6,17 9,26 4,10 8,21 12,31 3,9 7,17 10,26 4,10 9,21 13,31 4,9 7,17 10,25 5,11 10,22 15,33 3,7 7,15 10,23 5,11 10,22 15,33 4,7 7,15 11,22 6,12 12,24 18,36 3,6 6,12 9,18 9,18 19,36 28,53 3,6 6,11 9,17 7,12 14,24 21,36 4,8 8,15 13,22 5,10 11,20 17,30 5,8 10,16 15,24 5,9 11,18 17,27 5,8 10,16 15,24 6,9 12,18 18,27 5,7 11,15 16,23 6,9 12,18 18,27 6,7 11,15 17,23 6,8 12,17 18,25 6,8 12,16 17,23 7,9 13,17 20,25 6,8 11,16 17,23 7,9 14,17 21,25 5,7 11,15 17,22 7,9 15,17 22,26 8,9 16,18 23,27 11,12 21,24 32,36 7,7 13,14 20,21 7,8 14,15 21,23 7,7 14,14 21,21 7,7 14,15 21,21 7,8 14,15 22,22 7,7 14,14 21,21 7,7 14,14 22,21 7,6 14,13 21,20 8,7 15,14 23,20 7,7 15,13 22,20 8,7 15,13 23,20 8,6 15,12 22,19 8,6 16,13 25,20 7,6 14,11 21,17 8,7 17,14 25,20 8,6 15,11 23,17 8,7 16,13 25,19 8,6 16,12 24,18 17,12 34,25 51,36 7,5 14,10 20,14 10,7 20,13 29,19 7,5 14,10 21,14 10,6 19,12 29,18 7,5 15,10 22,14 10,6 19,12 29,17 8,5 16,10 23,14 10,6 19,11 28,16 9,5 17,9 25,14 9,5 19,10 29,16 8,4 16,8 24,12 10,5 19,11 29,15 8,4 16,8 24,12 10,5 20,10 31,15 8,4 16,8 24,11 10,5 20,10 31,15 7,3 15,6 22,9 11,5 22,10 33,15 4,1 8,3 12,4 27,12 54,22 81,33 6,2 11,4 17,6 11,4 23,8 34,12 8,3 16,6 24,8 11,4 22,8 33,12 9,2 17,5 25,7 11,4 22,7 33,11 9,2 17,5 25,7 12,3 23,7 34,10 9,2 17,4 26,7 11,3 22,5 33,8 9,3 18,5 27,7 11,2 22,5 33,8 9,2 18,4 27,5 11,3 23,5 34,8 9,1 18,3 27,5 11,2 23,4 34,6 9,2 17,3 26,4 12,2 24,4 36,6l0 813z"/>
   <path class="fil1" d="M3823 1199c1706,196 3032,1644 3032,3401 0,1619 -1125,2975 -2637,3332l0 349 280 0 -338 585 -337 584 -338 -584 -338 -585 280 0 0 -1063c147,0 291,-12 432,-36 8,-1 17,-2 25,-4 12,-2 23,-4 35,-6 9,-2 18,-4 26,-5 12,-3 24,-5 35,-8 9,-1 17,-3 26,-5 11,-3 23,-6 34,-8 9,-2 17,-4 26,-7 12,-3 23,-5 34,-8 8,-3 17,-5 26,-7 11,-3 22,-7 33,-10 9,-2 17,-5 25,-7 12,-4 23,-7 34,-11 8,-2 16,-5 24,-7 12,-4 23,-8 34,-12 8,-2 15,-5 23,-8 12,-4 23,-8 35,-12 5,-2 11,-4 17,-6 27,-11 54,-21 81,-33 4,-1 7,-3 11,-4 11,-5 22,-10 33,-15 8,-3 15,-6 23,-9 10,-5 20,-10 31,-15 8,-3 16,-7 24,-11 10,-5 20,-10 30,-15 8,-4 16,-8 24,-12 10,-4 20,-10 30,-15 8,-4 16,-8 24,-12 10,-6 19,-11 29,-16 8,-5 16,-9 24,-14 10,-5 19,-10 28,-16 8,-4 16,-9 24,-14 9,-5 19,-11 28,-17 8,-4 15,-9 22,-14 10,-6 20,-12 29,-18 7,-4 14,-9 22,-14 9,-6 19,-12 28,-19 7,-4 14,-9 20,-14 17,-12 34,-24 51,-36 8,-6 17,-12 25,-18 8,-6 17,-12 25,-19 7,-6 15,-11 22,-17 9,-6 17,-13 26,-20 7,-6 14,-11 21,-17 8,-7 16,-14 24,-20 8,-7 15,-13 22,-19 8,-7 16,-13 24,-20 7,-7 14,-13 21,-20 8,-6 16,-13 23,-20 7,-7 15,-14 22,-20 7,-7 15,-14 22,-21 7,-7 14,-14 21,-21 7,-7 15,-14 22,-22 7,-6 14,-14 20,-21 8,-7 14,-14 21,-21 8,-8 15,-15 22,-23 6,-7 13,-14 19,-21 11,-12 22,-24 32,-36 8,-9 16,-18 23,-27 8,-9 15,-17 23,-26 5,-7 11,-15 17,-22 7,-8 14,-16 20,-25 6,-7 12,-15 18,-23 6,-8 13,-16 19,-25 6,-7 12,-15 17,-23 7,-8 13,-17 19,-25 6,-8 11,-16 16,-23 7,-9 13,-18 19,-27 5,-8 10,-16 16,-23 6,-9 11,-18 17,-27 5,-8 11,-16 16,-24 5,-9 11,-18 17,-27 5,-8 10,-16 15,-24 5,-10 11,-20 17,-30 4,-7 9,-14 13,-22 7,-12 14,-24 20,-36 3,-6 6,-11 9,-17 10,-17 19,-35 28,-53 3,-6 6,-12 9,-18 6,-12 13,-24 18,-36 4,-7 8,-15 11,-22 5,-11 10,-22 16,-33 3,-8 6,-16 10,-23 5,-11 9,-22 14,-33 4,-8 7,-16 10,-25 5,-10 9,-21 13,-31 4,-9 7,-17 11,-26 4,-10 8,-21 11,-31 4,-9 7,-18 10,-26 4,-11 8,-22 11,-33 3,-8 6,-17 9,-26 4,-11 8,-22 11,-33 3,-8 6,-16 8,-25 4,-12 8,-25 11,-37 2,-8 5,-15 7,-22 4,-17 9,-34 14,-51 0,-3 1,-6 2,-8 5,-20 10,-41 14,-61 2,-6 3,-11 4,-17 3,-15 7,-29 10,-43 1,-8 3,-16 4,-25 3,-12 5,-24 8,-37 1,-8 3,-17 4,-26 2,-12 4,-24 6,-36 1,-9 3,-18 4,-27 2,-11 4,-23 5,-35 1,-9 2,-18 4,-27 1,-13 2,-25 4,-37 1,-9 2,-18 3,-27 1,-12 2,-24 3,-36 0,-9 1,-18 2,-27 1,-13 2,-26 2,-39 1,-8 1,-17 2,-25 0,-15 1,-29 1,-43 1,-7 1,-14 1,-21 1,-22 1,-43 1,-65 0,-22 0,-43 -1,-65 0,-7 0,-14 -1,-21 0,-14 -1,-29 -1,-43 -1,-8 -1,-17 -2,-25 0,-13 -1,-26 -2,-39 -1,-9 -2,-18 -2,-27 -1,-12 -2,-24 -3,-36 -1,-9 -2,-18 -3,-28 -2,-12 -3,-24 -4,-36 -2,-9 -3,-18 -4,-27 -1,-12 -3,-24 -5,-36 -1,-8 -3,-17 -4,-26 -2,-12 -4,-25 -6,-37 -1,-8 -3,-17 -4,-25 -3,-13 -5,-25 -8,-38 -1,-8 -3,-16 -4,-24 -3,-14 -7,-29 -10,-43 -1,-6 -2,-12 -4,-17 -4,-21 -9,-41 -14,-61l-2 -8c-5,-17 -10,-34 -14,-51 -3,-8 -5,-15 -7,-22 -3,-12 -7,-25 -11,-37 -2,-9 -5,-17 -8,-25 -3,-11 -7,-23 -11,-34 -3,-8 -6,-17 -9,-26 -3,-10 -7,-21 -11,-32 -3,-8 -6,-17 -10,-26 -3,-10 -7,-21 -11,-31 -4,-9 -7,-17 -11,-26 -4,-11 -8,-21 -13,-32 -3,-8 -6,-16 -10,-24 -5,-11 -9,-22 -14,-33 -4,-7 -7,-15 -10,-23 -6,-11 -11,-22 -16,-33 -3,-7 -7,-15 -11,-22 -5,-13 -12,-24 -18,-37 -3,-6 -6,-12 -9,-18 -9,-17 -18,-35 -28,-52 -3,-6 -6,-12 -9,-17 -6,-12 -13,-24 -20,-36 -4,-8 -9,-15 -13,-23 -6,-9 -12,-19 -17,-29 -5,-8 -10,-16 -15,-24 -6,-9 -12,-18 -17,-27 -5,-8 -11,-16 -16,-24 -6,-9 -11,-18 -17,-27 -6,-8 -11,-16 -16,-23 -6,-9 -12,-18 -19,-27 -5,-7 -10,-15 -16,-23 -6,-8 -12,-17 -19,-25 -5,-8 -11,-16 -17,-23 -6,-9 -13,-17 -19,-26 -6,-7 -12,-15 -18,-22 -6,-9 -13,-17 -20,-25 -6,-8 -12,-15 -17,-22 -8,-9 -15,-17 -23,-26 -7,-9 -15,-18 -23,-27 -10,-12 -21,-24 -32,-36 -6,-7 -13,-14 -19,-21 -7,-8 -14,-15 -22,-23 -7,-7 -14,-14 -21,-22 -6,-7 -13,-14 -20,-21 -7,-7 -15,-14 -22,-21 -7,-7 -14,-14 -21,-21 -7,-7 -15,-14 -22,-21 -7,-7 -15,-13 -22,-20 -7,-7 -15,-14 -23,-21 -7,-6 -14,-12 -21,-19 -8,-7 -16,-13 -24,-20 -7,-6 -14,-13 -22,-19 -8,-6 -16,-13 -24,-20 -7,-6 -14,-11 -21,-17 -9,-7 -17,-14 -26,-20 -7,-6 -15,-12 -22,-17 -8,-7 -17,-13 -25,-20 -8,-6 -17,-11 -25,-17 -17,-13 -34,-25 -51,-37 -6,-4 -13,-9 -20,-13 -9,-7 -19,-13 -28,-19 -8,-5 -15,-10 -22,-14 -9,-7 -19,-12 -29,-18 -7,-5 -14,-10 -22,-14 -9,-6 -19,-12 -28,-18 -8,-4 -16,-9 -24,-13 -9,-6 -18,-11 -28,-16 -8,-5 -16,-10 -24,-14 -10,-5 -19,-11 -29,-16 -8,-4 -16,-8 -24,-12 -10,-5 -20,-11 -30,-16 -8,-4 -16,-8 -24,-12 -10,-4 -20,-9 -30,-14 -8,-4 -16,-8 -24,-12 -11,-4 -21,-9 -31,-14 -8,-3 -15,-6 -23,-10 -11,-4 -22,-9 -33,-14 -4,-2 -7,-3 -11,-5 -27,-11 -54,-21 -81,-32 -6,-2 -12,-4 -17,-6 -12,-4 -23,-8 -35,-12 -8,-3 -15,-6 -23,-9 -11,-3 -23,-7 -34,-11 -8,-2 -16,-5 -24,-8 -11,-3 -22,-7 -34,-10 -8,-2 -16,-5 -25,-7 -11,-4 -22,-7 -33,-10 -9,-2 -18,-5 -26,-7 -11,-3 -22,-6 -34,-8 -9,-3 -17,-5 -26,-7 -11,-3 -23,-5 -34,-8 -9,-2 -17,-4 -26,-6 -11,-2 -23,-4 -35,-7 -8,-1 -17,-3 -26,-5 -12,-2 -23,-4 -35,-6 -8,-2 -17,-3 -25,-4 -12,-2 -24,-5 -36,-6l0 -813z"/>
   <path class="fil2" d="M3427 3215c513,0 961,279 1201,692l600 -346 121 -69c-384,-662 -1101,-1108 -1922,-1108 -1225,0 -2218,992 -2218,2216 0,1224 993,2216 2218,2216 821,0 1538,-446 1922,-1108l-121 -70 -600 -346c-240,414 -688,693 -1201,693 -765,0 -1386,-620 -1386,-1385 0,-765 621,-1385 1386,-1385z"/>
   <path class="fil3" d="M10807 3441l0 645c-287,-171 -538,-256 -754,-256 -215,0 -387,74 -517,222 -129,148 -194,347 -194,597 0,236 69,425 205,567 135,142 317,213 545,213 199,0 438,-81 715,-244l0 645c-311,105 -570,157 -778,157 -356,0 -660,-131 -908,-393 -249,-261 -374,-581 -374,-958 0,-383 127,-708 380,-974 254,-265 563,-398 926,-398 235,0 486,59 754,177zm430 -140l563 0 0 1620c0,150 42,271 125,363 84,91 195,137 331,137 157,0 279,-46 366,-139 86,-91 129,-221 129,-389l0 -1592 563 0 0 1716c0,150 -39,306 -117,469 -79,161 -199,285 -362,372 -162,86 -344,129 -545,129 -365,0 -631,-101 -800,-304 -169,-202 -253,-415 -253,-638l0 -1744zm2618 0l875 0c266,0 477,70 631,209 154,140 232,330 232,567 0,136 -35,277 -106,424 -72,146 -203,261 -394,344l744 1105 -655 0 -690 -1025 -66 0 0 1025 -571 0 0 -2649zm571 471l0 690 126 0c302,0 453,-122 453,-365 0,-100 -39,-179 -118,-237 -78,-59 -188,-88 -327,-88l-134 0zm1841 -471l875 0c266,0 476,70 631,209 154,140 232,330 232,567 0,136 -36,277 -107,424 -71,146 -202,261 -393,344l744 1105 -655 0 -690 -1025 -66 0 0 1025 -571 0 0 -2649zm571 471l0 690 125 0c303,0 454,-122 454,-365 0,-100 -39,-179 -118,-237 -78,-59 -188,-88 -327,-88l-134 0zm1853 -471l1494 0 0 525 -923 0 0 533 923 0 0 516 -923 0 0 550 923 0 0 525 -1494 0 0 -2649zm3732 0l558 0 0 2649 -553 0 -1217 -1715 0 1715 -571 0 0 -2649 564 0 1219 1703 0 -1703zm3074 140l0 645c-287,-171 -538,-256 -754,-256 -215,0 -388,74 -517,222 -129,148 -194,347 -194,597 0,236 68,425 204,567 136,142 318,213 545,213 200,0 438,-81 716,-244l0 645c-311,105 -571,157 -778,157 -357,0 -660,-131 -909,-393 -249,-261 -374,-581 -374,-958 0,-383 127,-708 381,-974 254,-265 563,-398 926,-398 234,0 485,59 754,177zm227 -140l633 0 491 819 490 -819 641 0 -844 1409 0 1240 -567 0 0 -1240 -844 -1409z"/>
   <path class="fil4" d="M31946 3441l0 645c-287,-171 -538,-256 -754,-256 -215,0 -387,74 -517,222 -129,148 -193,347 -193,597 0,236 68,425 204,567 136,142 318,213 545,213 199,0 438,-81 715,-244l0 645c-311,105 -570,157 -778,157 -356,0 -660,-131 -908,-393 -249,-261 -374,-581 -374,-958 0,-383 127,-708 380,-974 254,-265 563,-398 926,-398 235,0 486,59 754,177zm343 1184c0,-392 130,-715 389,-971 260,-255 567,-382 922,-382 394,0 719,128 976,384 257,257 386,581 386,972 0,389 -128,712 -382,969 -254,257 -575,386 -961,386 -387,0 -705,-128 -955,-384 -250,-255 -375,-580 -375,-974zm1339 -824c-222,-4 -401,72 -538,230 -137,158 -205,361 -205,610 0,235 70,430 209,585 139,155 315,232 527,232 223,0 403,-76 540,-229 137,-152 205,-354 205,-604 0,-247 -67,-445 -201,-594 -135,-150 -313,-226 -537,-230zm3564 -500l559 0 0 2649 -553 0 -1218 -1715 0 1715 -571 0 0 -2649 564 0 1219 1703 0 -1703zm873 0l579 0 669 1760 667 -1760 584 0 -1005 2649 -492 0 -1002 -2649zm2850 0l1493 0 0 525 -922 0 0 533 922 0 0 516 -922 0 0 550 922 0 0 525 -1493 0 0 -2649zm1969 0l875 0c266,0 476,70 631,209 154,140 232,330 232,567 0,136 -35,277 -107,424 -71,146 -202,261 -393,344l744 1105 -655 0 -690 -1025 -66 0 0 1025 -571 0 0 -2649zm571 471l0 690 126 0c302,0 453,-122 453,-365 0,-100 -39,-179 -118,-237 -78,-59 -188,-88 -327,-88l-134 0zm1627 -471l1783 0 0 562 -609 0 0 2087 -570 0 0 -2087 -604 0 0 -562zm2167 0l1494 0 0 525 -923 0 0 533 923 0 0 516 -923 0 0 550 923 0 0 525 -1494 0 0 -2649zm1969 0l875 0c267,0 477,70 631,209 155,140 232,330 232,567 0,136 -35,277 -106,424 -71,146 -202,261 -393,344l743 1105 -655 0 -689 -1025 -67 0 0 1025 -571 0 0 -2649zm571 471l0 690 126 0c303,0 454,-122 454,-365 0,-100 -40,-179 -118,-237 -79,-59 -189,-88 -328,-88l-134 0z"/>
  </g>
 </g>
</svg>
