<?xml version="1.0" encoding="UTF-8"?>
<!DOCTYPE svg PUBLIC "-//W3C//DTD SVG 1.1//EN" "http://www.w3.org/Graphics/SVG/1.1/DTD/svg11.dtd">
<!-- Creator: CorelDRAW X7 -->
<svg xmlns="http://www.w3.org/2000/svg" xml:space="preserve" width="512px" height="512px" version="1.1" style="shape-rendering:geometricPrecision; text-rendering:geometricPrecision; image-rendering:optimizeQuality; fill-rule:evenodd; clip-rule:evenodd"
viewBox="0 0 51200 51200"
 xmlns:xlink="http://www.w3.org/1999/xlink">
 <defs>
  <style type="text/css">
   <![CDATA[
    .fil4 {fill:#F0C84D}
    .fil2 {fill:#02813E}
    .fil3 {fill:#2C30FA}
    .fil1 {fill:#DEDEDE}
    .fil0 {fill:#EBEBEB}
   ]]>
  </style>
 </defs>
 <g id="Layer_x0020_1">
  <metadata id="CorelCorpID_0Corel-Layer"/>
  <g id="_526861816">
   <rect class="fil0" width="51200" height="51200" rx="10536" ry="10536"/>
   <path class="fil1" d="M51200 27989l0 12675c0,5795 -4741,10536 -10536,10536l-9926 0 -3202 -1816 1313 -2274 -11693 -6997 660 366 678 336 695 305 710 276 726 243 741 210 753 178 767 143 778 108 0 -2665 -5014 -3218 -14 -8 -13 -9 -13 -8 -13 -9 -13 -8 -13 -9 -13 -9 -13 -9 -18 -11 -18 -12 -17 -11 -18 -12 -17 -12 -18 -11 -18 -12 -17 -12 -12 -8 -12 -9 -13 -8 -12 -8 -12 -9 -12 -8 -12 -9 -12 -8 -32 -22 -32 -22 -31 -22 -31 -23 -31 -22 -32 -22 -31 -23 -31 -22 -15 -11 -15 -11 -15 -11 -15 -10 -15 -11 -15 -11 -15 -11 -14 -11 -16 -12 -16 -12 -15 -11 -16 -12 -15 -12 -16 -12 -15 -12 -16 -12 -13 -10 -14 -10 -13 -11 -14 -10 -13 -10 -14 -11 -13 -10 -14 -11 -15 -12 -16 -12 -16 -13 -15 -12 -16 -13 -15 -12 -16 -13 -16 -12 -13 -11 -13 -10 -13 -11 -13 -10 -14 -11 -13 -10 -13 -11 -13 -11 -15 -12 -15 -12 -14 -12 -15 -13 -15 -12 -15 -12 -14 -13 -15 -12 -14 -11 -13 -12 -14 -11 -13 -12 -14 -11 -14 -12 -13 -11 -14 -12 -14 -12 -14 -12 -14 -13 -15 -12 -14 -13 -14 -12 -14 -12 -15 -13 -13 -12 -13 -12 -14 -11 -13 -12 -13 -12 -14 -12 -13 -12 -13 -12 -14 -12 -14 -13 -14 -13 -14 -12 -14 -13 -14 -13 -14 -12 -14 -13 -13 -12 -14 -13 -13 -12 -13 -12 -14 -13 -13 -12 -13 -13 -13 -12 -14 -13 -13 -12 -14 -13 -13 -13 -14 -13 -13 -13 -14 -12 -13 -13 -13 -13 -13 -12 -13 -13 -12 -12 -13 -13 -13 -12 -13 -12 -12 -13 -14 -13 -13 -14 -14 -13 -14 -14 -13 -13 -14 -14 -13 -13 -14 -14 -12 -12 -13 -13 -13 -13 -12 -13 -13 -13 -12 -13 -13 -13 -12 -12 -13 -14 -13 -13 -13 -13 -13 -13 -13 -14 -12 -13 -13 -13 -13 -14 -13 -13 -13 -14 -13 -14 -13 -15 -13 -14 -13 -14 -13 -14 -13 -14 -12 -13 -13 -13 -12 -13 -12 -13 -12 -13 -12 -13 -12 -13 -12 -13 -19 -21 -20 -22 -19 -22 -20 -22 -19 -22 -20 -22 -19 -22 -19 -22 -14 -16 -15 -17 -14 -16 -14 -17 -14 -16 -14 -17 -14 -16 -15 -17 -13 -16 -14 -16 -14 -16 -13 -16 -14 -16 -14 -17 -13 -16 -14 -16 -11 -13 -10 -13 -11 -14 -11 -13 -11 -13 -10 -13 -11 -14 -11 -13 -12 -15 -13 -16 -12 -15 -12 -15 -13 -16 -12 -15 -13 -15 -12 -16 -11 -14 -11 -14 -11 -14 -10 -14 -11 -14 -11 -14 -11 -14 -10 -14 -12 -15 -12 -15 -12 -15 -12 -15 -11 -16 -12 -15 -12 -16 -11 -15 -11 -14 -10 -14 -11 -14 -10 -14 -11 -15 -10 -14 -11 -14 -10 -14 -12 -16 -11 -15 -12 -16 -11 -16 -12 -15 -11 -16 -11 -16 -12 -15 -10 -14 -10 -15 -10 -14 -10 -14 -10 -14 -10 -15 -10 -14 -10 -14 -11 -16 -12 -16 -11 -16 -11 -16 -11 -17 -11 -15 -11 -17 -12 -16 -9 -14 -10 -15 -10 -14 -10 -15 -10 -14 -10 -15 -10 -15 -9 -14 -11 -16 -11 -17 -11 -16 -10 -16 -11 -17 -11 -16 -11 -16 -10 -17 -10 -14 -9 -15 -10 -14 -9 -15 -9 -14 -10 -15 -9 -15 -9 -14 -11 -17 -11 -17 -10 -16 -11 -17 -10 -17 -11 -17 -10 -17 -10 -17 -10 -15 -9 -14 -9 -15 -9 -15 -9 -15 -9 -14 -9 -15 -9 -15 -11 -18 -11 -18 -10 -17 -11 -18 -10 -18 -11 -18 -10 -18 -10 -18 -9 -14 -8 -13 -8 -14 -8 -14 -8 -14 -8 -13 -8 -14 -8 -14 -13 -22 -12 -22 -13 -22 -12 -22 -12 -22 -13 -23 -12 -22 -12 -22 -6 -10 -5 -10 -6 -11 -6 -10 -5 -10 -6 -10 -6 -10 -5 -11 -18 -32 -17 -32 -17 -33 -18 -32 -17 -32 -17 -33 -16 -32 -17 -33 -6 -11 -5 -11 -6 -11 -6 -11 -5 -11 -6 -11 -5 -12 -6 -11 -11 -22 -11 -22 -11 -22 -11 -22 -11 -22 -11 -22 -11 -23 -11 -22 -6 -14 -7 -13 -6 -14 -7 -14 -6 -14 -7 -13 -6 -14 -7 -14 -9 -20 -10 -20 -9 -20 -10 -20 -9 -21 -10 -20 -9 -20 -9 -20 -7 -15 -6 -14 -6 -14 -7 -14 -6 -14 -6 -15 -7 -14 -6 -14 -9 -20 -8 -20 -9 -20 -9 -20 -9 -20 -8 -20 -9 -20 -9 -20 -6 -15 -7 -15 -6 -15 -6 -15 -7 -15 -6 -16 -6 -15 -7 -15 -7 -19 -9 -19 -8 -20 -7 -19 -8 -20 -8 -19 -8 -19 -8 -20 -6 -15 -6 -16 -7 -16 -6 -16 -6 -16 -6 -16 -6 -16 -7 -15 -7 -20 -7 -19 -8 -19 -7 -19 -7 -19 -8 -20 -7 -19 -7 -19 -6 -16 -6 -16 -6 -16 -6 -16 -6 -16 -5 -15 -6 -17 -6 -15 -7 -20 -7 -20 -7 -20 -7 -19 -7 -20 -7 -20 -7 -20 -6 -20 -6 -15 -6 -16 -5 -16 -5 -16 -6 -16 -5 -16 -6 -16 -5 -16 -7 -20 -7 -21 -6 -20 -7 -21 -7 -20 -6 -21 -7 -21 -7 -20 -4 -15 -5 -15 -5 -16 -5 -15 -5 -15 -5 -15 -4 -15 -5 -16 -7 -23 -7 -23 -7 -23 -7 -23 -7 -23 -6 -23 -7 -23 -7 -23 -4 -13 -4 -13 -3 -13 -4 -13 -4 -14 -4 -13 -4 -13 -4 -13 -9 -32 -8 -31 -9 -31 -9 -32 -8 -32 -8 -31 -9 -32 -8 -31 -11 -40 -9 -37 -9 -37 -10 -37 -9 -37 -9 -37 -9 -38 -8 -37 -9 -37 -3 -11 -2 -10 -2 -11 -3 -10 -2 -11 -2 -11 -3 -10 -2 -11 -6 -26 -6 -27 -6 -26 -5 -26 -6 -27 -6 -26 -5 -27 -6 -26 -3 -15 -3 -15 -3 -15 -3 -15 -3 -15 -3 -15 -2 -14 -3 -15 -5 -23 -4 -23 -5 -23 -4 -23 -5 -22 -4 -23 -4 -23 -4 -23 -3 -16 -3 -16 -3 -15 -2 -16 -3 -16 -3 -16 -3 -15 -2 -16 -4 -22 -4 -23 -3 -22 -4 -22 -4 -22 -4 -22 -3 -22 -4 -23 -2 -16 -3 -17 -2 -16 -3 -16 -2 -17 -3 -17 -2 -16 -2 -17 -4 -21 -3 -22 -3 -22 -3 -22 -3 -21 -3 -22 -3 -22 -3 -22 -2 -17 -2 -16 -2 -17 -3 -17 -2 -16 -2 -17 -2 -17 -2 -17 -3 -22 -2 -22 -3 -22 -2 -22 -3 -22 -2 -22 -3 -23 -2 -22 -2 -16 -2 -17 -1 -17 -2 -17 -2 -16 -2 -17 -1 -17 -2 -17 -2 -22 -2 -22 -2 -23 -2 -22 -2 -22 -2 -22 -2 -23 -2 -22 -1 -17 -2 -16 -1 -17 -1 -17 -2 -16 -1 -17 -1 -16 -1 -17 -2 -24 -2 -23 -1 -24 -2 -23 -1 -24 -2 -23 -1 -24 -1 -23 -1 -16 -1 -15 -1 -16 -1 -16 -1 -15 -1 -16 -1 -16 -1 -15 -1 -26 -1 -27 -1 -26 -1 -27 -1 -26 -1 -26 -1 -27 -1 -26 0 -13 -1 -13 0 -13 0 -13 -1 -13 0 -13 -1 -13 0 -13 -1 -39 -1 -40 -1 -40 0 -39 -1 -40 0 -40 0 -39 0 -40 0 -40 0 -39 0 -40 1 -40 0 -39 1 -40 1 -39 1 -40 0 -13 1 -13 0 -13 1 -13 0 -13 0 -13 1 -13 0 -12 1 -27 1 -26 1 -27 1 -26 1 -27 1 -26 1 -26 1 -27 1 -15 1 -16 1 -16 1 -15 1 -16 1 -15 1 -16 1 -16 1 -23 1 -24 2 -23 1 -24 2 -23 1 -24 2 -23 2 -24 1 -16 1 -17 1 -17 2 -16 1 -17 1 -17 2 -16 1 -17 2 -22 2 -22 2 -23 2 -22 2 -22 2 -22 2 -23 2 -22 2 -17 1 -16 2 -17 2 -17 2 -17 1 -17 2 -16 2 -17 2 -22 3 -22 2 -23 3 -22 2 -22 3 -22 2 -22 3 -22 2 -17 2 -17 2 -16 2 -17 3 -17 2 -16 2 -17 2 -17 3 -22 3 -21 3 -22 3 -22 3 -22 3 -22 3 -21 4 -22 2 -17 2 -16 3 -17 2 -16 3 -17 2 -16 3 -17 2 -16 4 -22 3 -22 4 -23 4 -22 4 -22 3 -22 4 -22 4 -23 2 -15 3 -16 3 -16 3 -16 2 -15 3 -16 3 -16 3 -15 4 -23 4 -23 4 -23 5 -23 4 -23 5 -23 4 -23 5 -22 3 -15 2 -15 3 -15 3 -15 3 -15 3 -15 3 -15 3 -14 6 -27 5 -26 6 -27 6 -26 5 -27 6 -26 6 -27 6 -26 2 -11 3 -10 2 -11 2 -10 3 -11 2 -10 2 -11 3 -11 9 -37 8 -37 9 -37 9 -37 9 -38 10 -37 9 -37 9 -37 2 -5 1 -5 1 -5 2 -4 1 -5 1 -5 2 -5 1 -5 8 -32 9 -32 8 -31 9 -32 8 -31 9 -32 8 -31 9 -32 4 -13 4 -13 4 -13 4 -13 3 -13 4 -14 4 -13 4 -13 7 -23 7 -23 6 -23 7 -23 7 -23 7 -23 7 -23 7 -23 5 -15 4 -15 5 -16 5 -15 5 -15 5 -15 5 -15 4 -16 7 -20 7 -21 6 -20 7 -21 7 -20 6 -21 7 -20 7 -21 5 -16 6 -16 5 -16 6 -16 5 -16 5 -15 6 -16 6 -16 6 -20 7 -20 7 -20 7 -19 7 -20 7 -20 7 -20 7 -19 6 -16 6 -16 5 -16 6 -16 6 -16 6 -16 6 -16 6 -16 7 -19 7 -19 8 -19 7 -19 7 -20 8 -19 7 -19 7 -19 7 -16 6 -16 6 -16 6 -16 7 -16 6 -15 6 -16 6 -16 8 -19 8 -20 8 -19 8 -19 7 -20 8 -19 9 -19 7 -20 7 -15 6 -15 6 -15 7 -15 6 -15 6 -16 7 -15 6 -15 9 -20 9 -20 8 -20 9 -20 9 -20 9 -20 8 -20 9 -20 6 -14 7 -14 6 -14 6 -15 7 -14 6 -14 6 -14 7 -14 9 -21 9 -20 10 -20 9 -20 10 -20 9 -21 10 -20 9 -20 7 -14 6 -14 7 -13 6 -14 7 -14 6 -13 7 -14 6 -14 11 -22 11 -22 11 -22 11 -23 11 -22 11 -22 11 -22 11 -22 6 -11 5 -11 6 -11 5 -11 6 -12 6 -11 5 -11 6 -11 17 -33 16 -32 17 -33 17 -32 18 -32 17 -32 17 -33 18 -32 5 -10 6 -11 6 -10 5 -10 6 -10 6 -10 5 -11 6 -10 12 -22 12 -22 13 -22 12 -22 12 -23 13 -22 12 -22 13 -22 8 -13 8 -14 8 -14 8 -14 8 -14 8 -13 8 -14 9 -14 10 -18 10 -18 11 -17 10 -19 11 -17 10 -18 11 -18 11 -18 9 -15 9 -15 9 -14 9 -15 9 -15 9 -14 9 -15 10 -15 10 -17 10 -17 11 -17 10 -16 11 -17 10 -17 11 -17 11 -17 9 -14 9 -15 10 -14 9 -15 9 -14 10 -15 9 -14 10 -15 10 -16 11 -17 11 -16 11 -16 10 -17 11 -16 11 -16 11 -17 9 -14 10 -15 10 -14 10 -15 10 -14 10 -15 10 -14 9 -15 12 -16 11 -16 11 -16 11 -16 11 -16 11 -17 12 -16 11 -16 10 -14 10 -14 10 -14 10 -15 10 -14 10 -14 10 -14 10 -14 12 -16 11 -16 11 -16 12 -15 11 -16 12 -15 11 -16 12 -16 10 -14 11 -14 10 -14 11 -14 10 -14 11 -15 10 -14 11 -14 11 -15 12 -16 12 -15 11 -15 12 -15 12 -16 12 -15 12 -15 10 -14 11 -14 11 -14 11 -14 10 -14 11 -14 11 -14 11 -14 12 -15 13 -16 12 -15 13 -15 12 -16 12 -15 13 -15 12 -16 11 -13 11 -13 10 -14 11 -13 11 -13 11 -13 10 -14 11 -13 14 -16 13 -16 14 -16 14 -16 13 -16 14 -17 14 -16 13 -16 15 -16 14 -17 14 -16 14 -17 14 -16 14 -17 15 -16 14 -17 19 -22 19 -22 20 -22 19 -22 20 -22 19 -21 20 -22 19 -22 12 -13 12 -13 12 -13 12 -13 12 -13 12 -13 13 -13 12 -13 13 -14 13 -14 13 -14 13 -14 13 -14 13 -14 13 -14 13 -14 13 -14 12 -13 13 -13 13 -13 13 -13 13 -14 13 -13 13 -13 12 -13 13 -13 12 -13 13 -13 12 -13 13 -13 13 -12 12 -13 14 -14 13 -13 14 -14 13 -13 14 -13 14 -14 13 -13 14 -14 12 -12 13 -13 13 -12 13 -13 12 -12 13 -13 13 -12 13 -12 13 -13 14 -13 13 -13 14 -13 13 -13 14 -12 13 -13 14 -13 13 -12 13 -13 13 -12 14 -12 13 -13 13 -12 14 -12 13 -12 14 -13 14 -13 14 -13 14 -12 14 -13 14 -13 14 -12 14 -13 13 -12 13 -12 14 -12 13 -12 13 -12 14 -11 13 -12 13 -12 15 -12 14 -13 14 -12 14 -12 15 -13 14 -12 14 -12 14 -13 14 -11 13 -12 14 -11 14 -12 13 -11 14 -12 14 -11 13 -12 15 -12 15 -12 14 -13 15 -12 15 -12 14 -13 15 -12 15 -12 13 -11 13 -10 13 -11 14 -11 13 -10 13 -10 13 -11 13 -11 16 -12 16 -13 15 -12 16 -13 15 -12 16 -12 16 -13 15 -12 14 -11 13 -10 14 -10 13 -11 14 -10 13 -10 14 -11 13 -10 16 -12 15 -12 16 -12 15 -11 16 -12 15 -12 16 -12 16 -12 14 -11 15 -11 15 -10 15 -11 15 -11 15 -11 15 -11 15 -11 31 -22 31 -22 32 -23 31 -22 31 -22 32 -22 31 -22 32 -22 12 -9 12 -8 12 -9 12 -8 12 -9 13 -8 12 -9 12 -8 17 -12 18 -12 18 -11 17 -12 18 -11 17 -12 18 -12 18 -11 13 -9 13 -8 13 -9 13 -9 13 -8 13 -9 13 -9 14 -8 17 -11 17 -11 18 -12 17 -11 18 -11 18 -11 17 -11 18 -11 13 -8 14 -9 13 -8 14 -9 13 -8 14 -9 14 -8 13 -9 18 -10 17 -11 18 -10 18 -11 17 -11 18 -10 17 -11 18 -10 14 -9 15 -8 14 -9 14 -8 14 -9 15 -8 14 -8 14 -9 18 -10 17 -10 17 -10 17 -9 18 -10 17 -10 17 -10 17 -10 15 -8 15 -8 15 -9 15 -8 15 -8 14 -9 15 -8 15 -8 18 -10 18 -10 17 -9 18 -10 18 -10 18 -9 18 -10 17 -9 15 -8 14 -8 15 -8 15 -7 14 -8 15 -8 14 -7 15 -8 18 -9 18 -10 19 -9 18 -10 18 -9 19 -9 18 -10 18 -9 15 -7 14 -8 15 -7 14 -7 15 -8 14 -7 15 -7 15 -7 18 -9 19 -9 18 -9 19 -9 18 -10 19 -9 19 -9 18 -9 15 -7 15 -7 15 -7 15 -6 15 -7 15 -8 15 -7 15 -6 19 -9 18 -9 19 -8 19 -9 19 -9 19 -9 18 -8 19 -9 14 -6 14 -6 14 -6 13 -6 14 -6 14 -6 14 -6 14 -6 20 -9 20 -9 21 -9 20 -9 20 -8 21 -9 20 -9 21 -9 7 -2 7 -3 7 -3 7 -3 6 -3 7 -3 7 -2 7 -3 50 -21 49 -20 50 -20 49 -20 50 -19 50 -20 50 -19 50 -19 11 -4 10 -4 10 -4 11 -4 10 -3 10 -4 11 -4 10 -4 21 -8 21 -8 21 -7 21 -8 22 -7 21 -8 21 -7 21 -7 14 -5 14 -5 15 -5 14 -5 14 -6 14 -5 14 -4 15 -5 20 -8 21 -6 20 -7 21 -7 21 -7 21 -7 20 -7 21 -6 15 -5 15 -5 15 -5 14 -5 15 -4 15 -5 15 -5 15 -5 20 -6 21 -7 20 -6 21 -6 21 -7 20 -6 21 -6 21 -6 15 -5 16 -5 15 -4 15 -5 16 -4 15 -5 15 -4 16 -5 20 -6 21 -6 20 -6 21 -5 20 -6 21 -6 20 -5 21 -6 16 -5 16 -4 15 -4 16 -5 16 -4 16 -4 16 -4 16 -5 20 -5 21 -5 20 -6 21 -5 20 -5 20 -5 21 -6 20 -5 17 -4 16 -4 16 -4 17 -4 16 -4 16 -4 16 -4 17 -4 20 -4 21 -5 20 -5 21 -5 21 -5 20 -5 21 -5 21 -4 16 -4 16 -3 16 -4 16 -3 16 -4 16 -3 16 -4 16 -3 21 -5 21 -4 21 -4 21 -5 21 -4 21 -5 21 -4 22 -4 16 -4 16 -3 16 -3 17 -3 16 -3 16 -3 16 -3 17 -3 21 -4 21 -5 21 -3 21 -4 21 -4 21 -4 21 -4 22 -4 15 -3 16 -2 16 -3 16 -2 16 -3 15 -3 16 -2 16 -3 129 -21 130 -19 129 -18 131 -17 131 -16 131 -14 131 -13 132 -12 133 -10 132 -9 133 -8 134 -6 134 -5 134 -3 134 -2 135 -1 0 -349 -5245 -4867 1373 0 3872 3641 0 -3641 1372 0 -1654 -2865 -1654 -2865 17675 17938 -95 -260 -293 -702 -323 -685 -353 -668 -381 -650 -410 -630 -436 -611 -463 -590 -487 -568 -513 -546 13615 14145z"/>
   <g>
    <path class="fil2" d="M23664 42278c-8361,-961 -14854,-8060 -14854,-16678 0,-7939 5512,-14591 12918,-16339l0 -1715 -1373 0 1654 -2865 1655 -2865 1654 2865 1654 2865 -1372 0 0 5216c-720,0 -1426,60 -2113,174 -42,7 -85,14 -127,21 -56,10 -112,21 -169,32 -43,8 -86,16 -130,25 -56,11 -112,23 -169,35 -42,9 -85,18 -128,28 -55,12 -110,25 -164,38 -44,11 -87,21 -131,32 -54,14 -109,28 -163,42 -43,12 -85,23 -127,35 -55,15 -110,30 -165,46 -41,12 -81,24 -122,37 -56,16 -111,33 -166,50 -39,13 -79,26 -118,39 -56,18 -111,36 -166,55 -38,13 -75,26 -113,39 -56,20 -113,40 -169,61 -28,10 -55,21 -83,31 -134,51 -266,103 -398,158 -18,7 -37,15 -55,22 -55,23 -109,47 -163,71 -37,16 -74,32 -111,48 -50,23 -100,46 -150,70 -40,18 -80,36 -120,55 -50,24 -99,49 -148,73 -39,19 -78,38 -117,58 -49,25 -98,50 -146,75 -39,20 -78,41 -117,62 -47,25 -95,51 -142,77 -40,22 -79,44 -119,66 -46,26 -92,52 -138,79 -38,23 -76,45 -114,68 -47,28 -94,56 -141,84 -36,23 -72,46 -109,68 -46,30 -93,59 -140,89 -35,22 -70,46 -105,69 -47,31 -94,62 -140,93 -33,22 -65,45 -98,68 -84,58 -167,117 -250,177 -40,29 -80,58 -120,87 -41,32 -83,64 -124,95 -36,28 -72,55 -108,83 -42,33 -83,66 -125,99 -35,28 -70,57 -105,85 -40,32 -79,65 -118,98 -36,31 -73,61 -109,92 -38,33 -76,66 -114,99 -36,32 -71,63 -106,95 -38,34 -75,67 -112,102 -36,32 -71,65 -106,98 -36,34 -73,68 -108,103 -35,33 -69,66 -103,99 -36,36 -72,72 -108,108 -34,34 -67,68 -100,103 -35,35 -69,70 -103,106 -35,37 -70,75 -105,112 -32,35 -64,69 -96,104 -52,58 -104,116 -155,175 -38,44 -76,88 -114,132 -36,43 -73,86 -109,129 -29,35 -57,71 -86,106 -33,41 -66,82 -99,123 -29,37 -58,75 -87,112 -31,40 -62,81 -93,122 -29,38 -57,76 -85,113 -30,42 -61,84 -91,125 -27,38 -54,76 -80,114 -30,43 -60,86 -90,129 -26,39 -53,77 -79,116 -29,44 -57,87 -86,131 -25,39 -50,78 -75,116 -28,45 -56,90 -84,135 -24,39 -49,79 -72,118 -29,48 -57,95 -85,143 -21,37 -43,73 -64,110 -34,59 -67,118 -99,177 -15,27 -31,54 -46,82 -46,86 -92,172 -136,259 -15,30 -30,59 -45,89 -29,59 -59,118 -88,177 -18,37 -35,73 -52,110 -25,54 -51,108 -75,162 -18,37 -34,75 -51,113 -24,54 -47,107 -70,160 -17,40 -34,81 -51,121 -21,52 -42,103 -63,155 -17,42 -33,84 -50,127 -20,51 -39,102 -58,153 -16,43 -32,85 -47,128 -19,52 -37,105 -56,158 -14,42 -29,85 -43,127 -19,55 -36,109 -54,164 -13,41 -26,81 -38,122 -19,61 -37,123 -55,184 -10,35 -21,70 -31,105 -24,84 -46,168 -68,253 -4,13 -7,26 -11,39 -25,99 -50,198 -72,297 -7,28 -13,57 -19,85 -16,70 -31,141 -46,212 -8,39 -16,79 -24,119 -12,60 -24,121 -35,183 -7,41 -14,83 -21,125 -11,59 -20,119 -30,178 -7,44 -13,88 -20,132 -8,58 -16,116 -24,174 -6,45 -12,89 -17,134 -7,59 -14,118 -20,177 -5,45 -10,89 -14,134 -6,59 -11,119 -16,178 -4,45 -7,89 -11,133 -4,63 -8,126 -12,188 -2,42 -5,84 -7,125 -3,71 -6,141 -8,212 -1,34 -3,69 -3,103 -3,105 -4,211 -4,317 0,106 1,212 4,317 0,35 2,69 3,104 3,70 5,141 8,211 2,42 5,83 7,125 4,63 8,125 12,188 4,44 7,89 11,133 5,59 10,119 16,178 4,45 9,90 14,134 6,59 13,119 20,177 5,45 11,90 17,134 8,58 16,116 24,174 7,45 13,88 20,132 10,60 19,119 30,178 7,42 14,84 21,126 11,61 24,122 35,183 8,39 16,79 24,119 15,70 30,141 46,211 6,28 12,57 19,85 23,99 47,199 72,297l11 39c22,85 44,169 68,253 10,35 21,70 31,105 18,62 36,123 55,184 12,41 25,81 38,122 18,55 35,110 54,164 14,43 29,85 43,127 19,53 37,106 56,159 15,42 31,84 47,127 19,51 38,102 58,154 17,42 33,84 50,126 21,52 42,104 63,155 17,40 34,81 51,121 23,54 47,107 70,160 17,38 33,76 51,114 24,54 50,107 75,161 17,37 34,74 52,110 29,60 59,118 88,177 15,30 30,60 45,89 44,87 90,174 136,259 15,28 31,55 46,82 32,59 65,118 99,177 21,37 43,73 64,110 28,48 56,96 85,143 23,40 48,79 72,118 28,45 56,90 84,135 25,39 50,77 75,116 29,44 57,87 86,131 26,39 53,78 79,116 30,43 60,86 90,129 26,38 53,76 80,114 30,42 61,83 91,125 28,38 56,76 85,113 31,41 62,82 93,122 29,38 58,75 87,112 33,41 66,82 99,123 29,35 57,71 86,106 36,43 73,86 109,129 38,44 76,88 114,132 51,59 103,118 155,175 32,35 64,69 96,104 35,38 70,75 105,112 34,36 68,71 103,107 33,34 66,68 100,102 36,37 72,72 108,108 34,33 68,67 103,100 35,34 72,68 108,102 35,33 70,66 106,99 37,34 74,68 112,101 35,32 70,64 106,95 38,33 76,66 114,99 36,31 73,62 109,92 39,33 78,66 118,98 35,29 70,57 105,85 42,33 83,67 125,99 36,28 72,56 108,83 41,32 83,64 124,95 40,29 80,58 120,87 83,60 166,119 250,178 33,22 65,45 98,67 46,32 94,62 140,93 35,24 70,47 105,69 47,30 94,59 140,89 37,23 73,45 109,68 47,28 94,56 141,84 38,23 76,46 114,68 46,27 92,53 138,79 40,22 79,44 119,67 47,25 95,51 142,77 39,20 78,41 117,61 48,25 97,51 146,75 39,20 78,39 117,58 49,25 98,49 148,73 40,19 80,37 120,56 50,23 100,46 150,69 37,16 74,32 111,48 54,24 108,48 163,71 18,8 37,15 55,23 132,54 264,107 398,157 28,10 55,21 83,32 56,20 113,40 169,60 38,13 75,27 113,40 55,18 111,36 166,55 39,12 79,25 118,38 55,17 111,34 166,51 41,12 81,24 122,36 55,16 110,31 165,47 42,11 84,23 127,34 54,14 109,28 163,42 44,11 87,21 131,32 54,13 109,26 164,38 43,10 86,19 128,28 57,12 113,24 169,36 44,9 87,16 130,25 57,10 113,21 169,31 42,8 85,14 127,21 59,10 118,20 177,29l0 3985z"/>
    <path class="fil3" d="M27536 8923c8360,960 14853,8060 14853,16677 0,7940 -5512,14591 -12917,16339l0 1715 1372 0 -1654 2865 -1654 2865 -1655 -2865 -1654 -2865 1373 0 0 -5216c719,0 1425,-60 2113,-174 42,-7 84,-13 126,-21 56,-10 113,-21 169,-31 43,-9 87,-16 130,-25 56,-12 113,-24 169,-36 43,-9 85,-18 128,-28 55,-12 110,-25 165,-38 43,-11 87,-21 130,-32 55,-14 109,-28 164,-42 42,-11 84,-23 127,-34 55,-16 109,-31 164,-47 41,-12 82,-24 123,-36 55,-17 110,-34 165,-51 40,-13 79,-26 118,-38 56,-19 111,-37 166,-55 38,-13 76,-27 113,-40 57,-20 113,-40 169,-60 28,-11 56,-22 83,-32 134,-51 267,-103 398,-157 19,-8 37,-15 56,-23 54,-23 109,-47 163,-71 37,-16 74,-32 110,-48 51,-23 101,-46 151,-69 39,-19 80,-37 119,-56 50,-24 100,-48 149,-73 39,-19 78,-38 116,-58 49,-24 98,-50 147,-75 39,-20 77,-41 116,-61 48,-26 95,-52 142,-77 40,-23 80,-45 119,-67 46,-26 92,-52 138,-79 39,-22 77,-45 115,-68 47,-28 93,-56 140,-84 37,-22 73,-46 109,-68 47,-30 94,-59 140,-89 35,-22 70,-45 105,-69 47,-30 94,-61 141,-93 32,-22 64,-45 97,-67 84,-59 168,-118 250,-178 40,-29 80,-58 120,-87 42,-31 83,-63 124,-95 36,-27 72,-55 108,-83 42,-32 84,-66 125,-99 35,-28 70,-56 105,-85 40,-32 79,-65 118,-98 37,-30 73,-61 109,-92 38,-33 76,-66 114,-99 36,-31 71,-63 107,-95 37,-33 75,-67 112,-101 35,-33 70,-66 106,-99 36,-34 72,-68 108,-102 34,-33 68,-67 102,-100 36,-36 72,-71 108,-108 34,-34 67,-68 101,-102 34,-36 69,-71 103,-107 35,-37 69,-74 104,-112 32,-34 64,-69 96,-104 53,-58 104,-116 156,-175 38,-44 75,-88 113,-132 37,-43 73,-86 109,-129 29,-35 58,-71 86,-106 33,-41 67,-82 99,-123 30,-37 58,-74 87,-112 31,-40 63,-81 94,-122 28,-37 56,-75 84,-113 31,-42 61,-83 91,-125 27,-38 54,-76 81,-114 30,-43 60,-86 89,-129 26,-38 53,-77 79,-116 29,-44 57,-87 86,-131 25,-38 50,-77 75,-116 28,-45 56,-90 84,-135 24,-39 49,-78 73,-118 28,-47 56,-95 84,-143 22,-37 44,-73 65,-110 33,-59 66,-118 99,-177 15,-27 30,-54 45,-82 47,-85 92,-172 137,-259 15,-29 29,-59 44,-89 30,-59 59,-117 88,-177 18,-36 35,-73 52,-110 26,-54 51,-107 76,-161 17,-38 33,-76 50,-114 24,-53 47,-106 70,-160 17,-40 34,-81 51,-121 21,-52 42,-103 63,-155 17,-42 34,-84 50,-126 20,-52 39,-103 59,-154 15,-43 31,-85 46,-127 19,-53 38,-106 56,-159 15,-42 29,-84 44,-127 18,-54 36,-109 53,-164 13,-41 26,-81 39,-122 18,-61 36,-122 54,-184 11,-35 21,-70 31,-105 24,-84 46,-168 69,-253 3,-13 7,-26 10,-39 26,-99 50,-198 73,-297 6,-28 12,-57 18,-85 16,-70 32,-141 46,-211 8,-40 16,-80 24,-119 12,-61 24,-122 35,-183 7,-42 15,-84 22,-126 10,-59 20,-119 29,-178 7,-44 14,-87 20,-132 8,-58 17,-116 24,-174 6,-44 12,-89 17,-134 7,-58 14,-118 21,-177 5,-44 9,-89 13,-134 6,-59 11,-118 16,-178 4,-44 8,-89 11,-133 5,-63 8,-125 12,-188 2,-42 5,-83 7,-125 4,-70 6,-141 8,-211 1,-35 3,-69 4,-104 2,-105 4,-211 4,-317 0,-106 -1,-212 -4,-317 -1,-34 -3,-69 -4,-103 -2,-71 -4,-141 -8,-212 -2,-41 -5,-83 -7,-125 -4,-62 -7,-125 -12,-188 -3,-44 -7,-88 -11,-133 -5,-59 -10,-119 -16,-178 -4,-45 -8,-89 -13,-134 -7,-59 -14,-118 -21,-177 -5,-45 -11,-89 -17,-134 -7,-58 -16,-116 -24,-174 -6,-44 -13,-88 -20,-132 -9,-59 -19,-119 -29,-178 -7,-42 -15,-84 -22,-125 -11,-62 -23,-123 -35,-183 -8,-40 -16,-80 -24,-119 -14,-71 -30,-142 -46,-212 -6,-28 -12,-57 -18,-85 -24,-99 -47,-198 -73,-297l-10 -39c-23,-85 -45,-169 -69,-253 -10,-35 -20,-70 -31,-105 -18,-61 -36,-123 -54,-184 -13,-41 -26,-81 -39,-122 -17,-55 -35,-109 -53,-164 -15,-42 -29,-85 -44,-127 -18,-53 -37,-106 -56,-158 -15,-43 -31,-85 -46,-128 -20,-51 -39,-102 -59,-153 -16,-43 -33,-85 -50,-127 -21,-52 -42,-103 -63,-155 -17,-40 -34,-81 -51,-121 -23,-53 -46,-106 -70,-160 -17,-38 -33,-76 -50,-113 -25,-54 -50,-108 -76,-162 -17,-37 -34,-73 -52,-110 -29,-59 -58,-118 -88,-177 -15,-30 -29,-59 -44,-89 -45,-87 -90,-173 -137,-259 -15,-28 -30,-55 -45,-82 -33,-59 -66,-118 -99,-177 -21,-37 -43,-73 -65,-110 -28,-48 -56,-95 -84,-143 -24,-39 -49,-79 -73,-118 -28,-45 -56,-90 -84,-135 -25,-38 -50,-77 -75,-116 -29,-44 -57,-87 -86,-131 -26,-39 -53,-77 -79,-116 -29,-43 -59,-86 -89,-129 -27,-38 -54,-76 -81,-114 -30,-41 -60,-83 -91,-125 -28,-37 -56,-75 -84,-113 -31,-41 -63,-82 -94,-122 -29,-37 -57,-75 -87,-112 -32,-41 -66,-82 -99,-123 -28,-35 -57,-71 -86,-106 -36,-43 -72,-86 -109,-129 -38,-44 -75,-88 -113,-132 -52,-59 -103,-117 -156,-175 -32,-35 -64,-69 -96,-104 -35,-37 -69,-75 -104,-112 -34,-36 -69,-71 -103,-106 -34,-35 -67,-69 -101,-103 -36,-36 -72,-72 -108,-108 -34,-33 -68,-66 -102,-99 -36,-35 -72,-69 -108,-103 -36,-33 -71,-66 -106,-98 -37,-35 -75,-68 -112,-102 -36,-32 -71,-63 -107,-95 -38,-33 -76,-66 -114,-99 -36,-31 -72,-61 -109,-92 -39,-33 -78,-66 -118,-98 -35,-28 -70,-57 -105,-85 -41,-33 -83,-66 -125,-99 -36,-28 -72,-55 -108,-83 -41,-31 -82,-63 -124,-95 -40,-29 -80,-58 -120,-87 -83,-60 -166,-119 -250,-177 -33,-23 -65,-46 -97,-68 -47,-31 -94,-62 -141,-93 -35,-23 -70,-47 -105,-69 -46,-30 -93,-59 -140,-89 -36,-22 -72,-45 -109,-68 -46,-28 -93,-56 -140,-84 -38,-23 -76,-45 -115,-68 -45,-27 -92,-52 -138,-79 -39,-22 -79,-44 -119,-66 -47,-26 -94,-52 -142,-77 -38,-21 -77,-41 -116,-62 -49,-25 -98,-50 -147,-75 -38,-20 -77,-39 -116,-58 -49,-24 -99,-49 -149,-73 -39,-19 -80,-37 -119,-55 -50,-24 -100,-47 -151,-70 -36,-16 -73,-32 -110,-48 -54,-24 -109,-48 -163,-71 -19,-7 -37,-15 -56,-22 -131,-55 -264,-107 -398,-158 -27,-10 -55,-21 -83,-31 -56,-21 -112,-40 -169,-61 -37,-13 -75,-26 -113,-39 -55,-19 -110,-37 -166,-55 -39,-13 -78,-26 -118,-39 -55,-17 -110,-34 -165,-50 -41,-13 -82,-25 -123,-37 -55,-16 -109,-31 -164,-46 -43,-12 -85,-23 -127,-35 -55,-14 -109,-28 -164,-42 -43,-11 -87,-21 -130,-32 -55,-13 -110,-26 -165,-38 -43,-10 -85,-19 -128,-28 -56,-12 -113,-24 -169,-35 -43,-9 -87,-17 -130,-25 -56,-11 -113,-22 -169,-32 -42,-7 -84,-14 -126,-21 -59,-10 -118,-20 -177,-29l0 -3984z"/>
    <path class="fil4" d="M25600 18809c2513,0 4707,1366 5882,3395l2939 -1697 590 -340c-1879,-3248 -5390,-5432 -9411,-5432 -6001,0 -10866,4864 -10866,10865 0,6001 4865,10866 10866,10866 4021,0 7532,-2185 9411,-5433l-590 -340 -2939 -1697c-1175,2030 -3369,3395 -5882,3395 -3751,0 -6791,-3040 -6791,-6791 0,-3750 3040,-6791 6791,-6791z"/>
   </g>
  </g>
 </g>
</svg>
