<?xml version="1.0" encoding="UTF-8"?>
<!DOCTYPE svg PUBLIC "-//W3C//DTD SVG 1.1//EN" "http://www.w3.org/Graphics/SVG/1.1/DTD/svg11.dtd">
<!-- Creator: CorelDRAW X7 -->
<svg xmlns="http://www.w3.org/2000/svg" xml:space="preserve" width="72px" height="72px" version="1.1" style="shape-rendering:geometricPrecision; text-rendering:geometricPrecision; image-rendering:optimizeQuality; fill-rule:evenodd; clip-rule:evenodd"
viewBox="0 0 7200 7200"
 xmlns:xlink="http://www.w3.org/1999/xlink">
 <defs>
  <style type="text/css">
   <![CDATA[
    .fil4 {fill:#F0C84D}
    .fil2 {fill:#02813E}
    .fil3 {fill:#2C30FA}
    .fil1 {fill:#DEDEDE}
    .fil0 {fill:#EBEBEB}
   ]]>
  </style>
 </defs>
 <g id="Layer_x0020_1">
  <metadata id="CorelCorpID_0Corel-Layer"/>
  <g id="_533703352">
   <rect class="fil0" width="7200" height="7200" rx="1482" ry="1482"/>
   <path class="fil1" d="M7200 3936l0 1782c0,815 -667,1482 -1482,1482l-1395 0 -451 -255 185 -320 -1645 -984 93 52 96 47 97 43 100 38 102 35 104 29 106 25 108 20 110 16 0 -375 -706 -453 -1 -1 -2 -1 -2 -1 -2 -2 -2 -1 -2 -1 -2 -1 -1 -1 -3 -2 -2 -2 -3 -1 -2 -2 -3 -2 -2 -1 -3 -2 -2 -2 -2 -1 -2 -1 -1 -1 -2 -1 -2 -1 -1 -2 -2 -1 -2 -1 -4 -3 -5 -3 -4 -3 -4 -3 -5 -4 -4 -3 -5 -3 -4 -3 -2 -2 -2 -1 -2 -2 -2 -1 -3 -2 -2 -1 -2 -2 -2 -1 -2 -2 -2 -2 -2 -1 -3 -2 -2 -2 -2 -1 -2 -2 -2 -2 -2 -1 -2 -2 -2 -1 -2 -1 -2 -2 -2 -1 -2 -2 -2 -1 -2 -2 -2 -2 -2 -1 -2 -2 -2 -2 -3 -2 -2 -2 -2 -1 -2 -2 -2 -1 -2 -2 -1 -1 -2 -2 -2 -1 -2 -2 -2 -1 -2 -2 -2 -2 -2 -1 -2 -2 -2 -2 -2 -2 -2 -1 -2 -2 -2 -2 -2 -1 -2 -2 -2 -1 -2 -2 -2 -2 -2 -1 -2 -2 -2 -2 -2 -1 -2 -2 -2 -2 -2 -2 -2 -1 -2 -2 -2 -2 -2 -2 -1 -1 -2 -2 -2 -1 -2 -2 -2 -2 -2 -1 -2 -2 -2 -2 -2 -2 -2 -1 -2 -2 -2 -2 -2 -2 -2 -2 -2 -1 -1 -2 -2 -2 -2 -2 -2 -1 -2 -2 -2 -2 -2 -2 -1 -1 -2 -2 -2 -2 -2 -2 -2 -1 -2 -2 -2 -2 -2 -2 -2 -2 -1 -1 -2 -2 -2 -2 -2 -2 -2 -1 -1 -2 -2 -2 -2 -2 -2 -2 -2 -1 -2 -2 -2 -2 -2 -2 -1 -2 -2 -2 -2 -2 -2 -2 -2 -1 -1 -2 -2 -2 -2 -2 -2 -2 -2 -2 -1 -1 -2 -2 -2 -2 -2 -2 -2 -2 -1 -2 -2 -1 -2 -2 -2 -2 -2 -2 -1 -2 -2 -2 -2 -2 -2 -2 -2 -2 -2 -2 -2 -2 -1 -2 -2 -2 -2 -1 -1 -2 -2 -2 -2 -2 -1 -2 -2 -2 -3 -3 -3 -3 -2 -3 -3 -3 -3 -3 -2 -3 -3 -3 -3 -3 -2 -3 -2 -2 -2 -2 -2 -3 -2 -2 -2 -2 -2 -3 -2 -2 -2 -2 -2 -2 -2 -3 -2 -2 -1 -2 -2 -2 -2 -3 -2 -2 -2 -2 -1 -2 -2 -2 -1 -1 -2 -2 -1 -2 -2 -2 -1 -2 -2 -2 -2 -2 -2 -2 -1 -2 -2 -3 -2 -2 -1 -2 -2 -2 -2 -2 -1 -2 -2 -2 -1 -2 -2 -2 -1 -2 -2 -2 -1 -2 -2 -2 -2 -2 -1 -2 -2 -2 -2 -3 -1 -2 -2 -2 -2 -2 -1 -2 -2 -2 -1 -2 -2 -2 -1 -2 -2 -2 -1 -2 -1 -2 -2 -2 -2 -2 -1 -3 -2 -2 -1 -2 -2 -2 -2 -2 -1 -3 -2 -2 -1 -2 -1 -2 -2 -2 -1 -2 -2 -2 -1 -2 -2 -2 -1 -2 -2 -2 -1 -2 -2 -3 -1 -2 -2 -2 -2 -2 -1 -3 -1 -2 -2 -2 -1 -2 -2 -2 -1 -2 -1 -2 -2 -2 -1 -2 -2 -2 -1 -3 -2 -2 -1 -2 -2 -2 -1 -3 -2 -2 -1 -2 -2 -2 -1 -2 -1 -3 -2 -2 -1 -2 -1 -2 -2 -2 -1 -2 -1 -2 -2 -2 -1 -3 -2 -2 -1 -3 -2 -2 -1 -2 -2 -3 -1 -2 -1 -2 -2 -2 -1 -2 -1 -2 -1 -2 -2 -2 -1 -2 -1 -3 -2 -2 -1 -3 -2 -2 -1 -3 -2 -2 -1 -3 -2 -3 -1 -1 -1 -2 -1 -2 -1 -2 -2 -2 -1 -2 -1 -2 -1 -2 -2 -3 -1 -3 -2 -3 -2 -3 -2 -3 -1 -4 -2 -3 -2 -3 -1 -1 0 -2 -1 -1 -1 -2 -1 -1 -1 -1 0 -2 -1 -1 -3 -5 -2 -4 -2 -5 -3 -4 -2 -5 -3 -5 -2 -4 -2 -5 -1 -1 -1 -2 -1 -1 0 -2 -1 -2 -1 -1 -1 -2 -1 -1 -1 -3 -2 -4 -1 -3 -2 -3 -1 -3 -2 -3 -2 -3 -1 -3 -1 -2 -1 -2 -1 -2 -1 -2 -1 -2 -1 -2 0 -2 -1 -2 -2 -2 -1 -3 -1 -3 -2 -3 -1 -3 -1 -3 -2 -3 -1 -2 -1 -2 -1 -2 -1 -2 -1 -2 0 -2 -1 -2 -1 -2 -1 -2 -1 -3 -2 -3 -1 -3 -1 -3 -1 -2 -1 -3 -2 -3 -1 -3 -1 -2 -1 -2 -1 -2 0 -2 -1 -2 -1 -3 -1 -2 -1 -2 -1 -3 -1 -2 -1 -3 -1 -3 -2 -2 -1 -3 -1 -3 -1 -3 -1 -2 -1 -2 -1 -2 0 -3 -1 -2 -1 -2 -1 -2 -1 -2 -1 -3 -1 -3 -1 -3 -1 -2 -1 -3 -1 -3 -1 -2 -1 -3 -1 -2 -1 -3 -1 -2 -1 -2 0 -2 -1 -2 -1 -3 -1 -2 -1 -3 -1 -3 -1 -2 -1 -3 -1 -3 -1 -3 -1 -2 -1 -3 0 -2 -1 -3 -1 -2 -1 -2 0 -2 -1 -3 -1 -2 -1 -2 -1 -3 -1 -3 -1 -3 -1 -3 0 -3 -1 -2 -1 -3 -1 -3 -1 -2 -1 -2 0 -3 -1 -2 -1 -2 0 -2 -1 -2 -1 -2 -1 -3 -1 -4 -1 -3 -1 -3 0 -3 -1 -4 -1 -3 -1 -3 -1 -2 0 -2 -1 -2 -1 -2 0 -1 -1 -2 0 -2 -1 -2 -1 -4 -1 -5 -1 -4 -2 -5 -1 -4 -1 -5 -1 -4 -1 -4 -2 -6 -1 -5 -1 -5 -2 -6 -1 -5 -1 -5 -1 -5 -2 -6 -1 -5 0 -1 -1 -2 0 -1 0 -2 -1 -1 0 -2 0 -1 -1 -2 0 -3 -1 -4 -1 -4 -1 -4 -1 -3 -1 -4 0 -4 -1 -3 -1 -3 0 -2 0 -2 -1 -2 0 -2 -1 -2 0 -2 0 -2 -1 -3 -1 -4 0 -3 -1 -3 -1 -3 0 -3 -1 -4 0 -3 -1 -2 0 -2 0 -3 -1 -2 0 -2 -1 -2 0 -2 0 -3 -1 -3 0 -3 -1 -3 -1 -3 0 -3 -1 -3 0 -4 -1 -3 0 -2 0 -2 -1 -3 0 -2 0 -2 -1 -3 0 -2 0 -2 -1 -3 0 -3 -1 -3 0 -3 0 -3 -1 -4 0 -3 -1 -3 0 -2 0 -2 -1 -3 0 -2 0 -2 -1 -3 0 -2 0 -2 0 -4 -1 -3 0 -3 -1 -3 0 -3 0 -3 -1 -3 0 -3 0 -3 0 -2 -1 -2 0 -3 0 -2 -1 -3 0 -2 0 -2 0 -3 0 -4 -1 -3 0 -3 0 -3 -1 -3 0 -3 0 -3 0 -3 -1 -2 0 -2 0 -3 0 -2 0 -2 -1 -3 0 -2 0 -3 0 -4 0 -3 0 -3 -1 -4 0 -3 0 -3 0 -3 -1 -3 0 -2 0 -2 0 -2 0 -2 0 -3 0 -2 0 -2 0 -4 -1 -4 0 -3 0 -4 0 -4 0 -3 0 -4 0 -4 -1 -2 0 -1 0 -2 0 -2 0 -2 0 -2 0 -1 0 -2 0 -6 0 -5 0 -6 0 -6 0 -5 0 -6 0 -5 0 -6 0 -5 0 -6 0 -6 0 -5 0 -6 0 -5 0 -6 0 -6 0 -1 0 -2 0 -2 0 -2 0 -2 0 -1 0 -2 1 -2 0 -4 0 -3 0 -4 0 -4 0 -4 0 -3 1 -4 0 -4 0 -2 0 -2 0 -2 0 -3 0 -2 0 -2 1 -2 0 -2 0 -4 0 -3 0 -3 1 -4 0 -3 0 -3 0 -3 0 -4 0 -2 1 -2 0 -3 0 -2 0 -2 0 -3 1 -2 0 -2 0 -4 0 -3 1 -3 0 -3 0 -3 1 -3 0 -3 0 -3 0 -3 0 -2 1 -3 0 -2 0 -2 1 -3 0 -2 0 -2 0 -3 1 -4 0 -3 0 -3 1 -3 0 -3 1 -3 0 -3 0 -3 0 -2 1 -2 0 -3 0 -2 1 -2 0 -3 0 -2 1 -3 0 -3 1 -3 0 -3 0 -3 1 -3 0 -4 1 -3 0 -2 0 -2 1 -3 0 -2 0 -2 1 -2 0 -3 0 -2 1 -3 0 -3 1 -4 0 -3 1 -3 1 -3 0 -3 1 -3 0 -2 0 -3 1 -2 0 -2 1 -2 0 -2 0 -3 1 -2 0 -3 1 -3 0 -3 1 -4 1 -3 0 -3 1 -3 1 -4 0 -2 0 -2 1 -2 0 -2 1 -2 0 -2 0 -2 1 -2 1 -4 0 -4 1 -3 1 -4 1 -4 1 -4 1 -3 0 -4 1 -2 0 -1 0 -1 1 -2 0 -1 0 -2 1 -1 0 -2 1 -5 1 -5 2 -6 1 -5 1 -5 2 -5 1 -6 1 -5 0 0 1 -1 0 -1 0 0 0 -1 0 -1 1 -1 0 0 1 -5 1 -4 1 -5 1 -4 2 -4 1 -5 1 -4 1 -5 1 -2 0 -1 1 -2 0 -2 1 -2 1 -2 0 -2 1 -2 1 -3 1 -3 1 -3 0 -4 1 -3 1 -3 1 -3 1 -3 1 -3 1 -2 0 -2 1 -2 1 -2 0 -2 1 -2 1 -3 1 -2 1 -3 1 -3 0 -3 1 -3 1 -3 1 -3 1 -3 1 -2 1 -2 1 -2 0 -3 1 -2 1 -2 1 -2 0 -3 1 -2 1 -3 1 -3 1 -3 1 -3 1 -2 1 -3 1 -3 1 -2 1 -2 1 -3 0 -2 1 -2 1 -2 1 -2 1 -3 1 -2 1 -3 1 -3 1 -2 1 -3 1 -3 1 -3 1 -2 1 -3 1 -2 1 -2 1 -2 0 -2 1 -3 1 -2 1 -2 1 -3 1 -3 1 -2 2 -3 1 -3 1 -2 1 -3 1 -3 1 -2 1 -2 1 -2 1 -2 0 -3 1 -2 1 -2 1 -2 1 -3 2 -3 1 -2 1 -3 1 -3 1 -3 2 -3 1 -2 1 -2 1 -2 1 -2 0 -2 1 -2 1 -2 1 -2 1 -2 1 -3 2 -3 1 -3 1 -3 2 -3 1 -2 1 -3 2 -3 1 -2 0 -2 1 -2 1 -2 1 -2 1 -2 1 -2 1 -2 1 -3 2 -3 2 -3 1 -3 2 -3 1 -3 2 -3 1 -3 1 -2 1 -2 1 -1 1 -2 0 -1 1 -2 1 -1 1 -2 2 -5 2 -4 3 -5 2 -4 3 -5 2 -4 2 -5 3 -4 1 -2 0 -1 1 -2 1 -1 1 -2 1 -1 0 -2 1 -1 2 -3 2 -3 1 -3 2 -3 2 -3 2 -4 1 -3 2 -3 1 -2 1 -2 1 -2 2 -2 1 -1 1 -2 1 -2 1 -2 2 -3 1 -2 2 -3 1 -2 2 -3 1 -2 2 -3 1 -2 1 -2 2 -3 1 -2 1 -2 1 -2 2 -2 1 -2 1 -2 2 -2 1 -3 2 -2 1 -3 2 -2 1 -2 2 -3 1 -2 1 -2 2 -2 1 -2 1 -2 2 -2 1 -2 1 -2 2 -2 1 -3 2 -2 1 -2 2 -3 1 -2 2 -2 1 -2 2 -3 1 -2 2 -2 1 -2 1 -2 2 -2 1 -2 2 -2 1 -2 1 -2 2 -3 2 -2 1 -2 2 -2 1 -3 2 -2 1 -2 2 -2 1 -2 2 -2 1 -2 1 -2 2 -2 1 -2 2 -2 1 -2 2 -3 2 -2 1 -2 2 -2 1 -2 2 -3 2 -2 1 -2 1 -2 2 -2 1 -2 2 -2 1 -2 2 -2 1 -2 2 -2 2 -2 1 -2 2 -2 2 -2 1 -3 2 -2 2 -2 1 -2 2 -2 1 -2 2 -2 1 -2 2 -2 1 -2 2 -2 2 -2 1 -2 2 -2 2 -2 1 -2 2 -3 2 -2 2 -2 1 -2 2 -2 1 -1 2 -2 1 -2 2 -2 1 -2 2 -2 2 -2 2 -2 2 -3 1 -2 2 -2 2 -2 2 -3 2 -2 2 -2 2 -3 2 -2 2 -2 2 -3 2 -2 2 -2 2 -3 3 -3 3 -3 2 -3 3 -3 3 -3 2 -3 3 -3 3 -3 2 -2 1 -2 2 -2 2 -1 1 -2 2 -2 2 -2 1 -2 2 -2 2 -2 2 -2 2 -2 2 -2 2 -2 1 -2 2 -2 2 -1 2 -2 2 -2 1 -2 2 -2 2 -2 2 -2 2 -1 1 -2 2 -2 2 -2 2 -2 2 -2 1 -1 2 -2 2 -2 2 -2 2 -2 1 -2 2 -2 2 -1 2 -2 2 -2 2 -2 2 -2 2 -2 1 -1 2 -2 2 -2 2 -2 2 -1 1 -2 2 -2 2 -2 2 -1 2 -2 2 -2 2 -2 2 -2 2 -1 1 -2 2 -2 2 -2 2 -1 2 -2 2 -2 2 -2 1 -1 2 -2 2 -2 2 -2 2 -1 2 -2 2 -2 2 -2 2 -2 2 -1 2 -2 2 -2 2 -1 2 -2 2 -2 1 -1 2 -2 2 -2 2 -1 2 -2 2 -2 2 -2 2 -1 2 -2 2 -2 2 -1 2 -2 2 -2 2 -1 2 -2 2 -2 2 -1 2 -2 2 -1 2 -2 2 -2 2 -2 2 -1 2 -2 2 -2 2 -2 2 -1 2 -2 2 -1 2 -2 1 -1 2 -2 2 -1 2 -1 2 -2 2 -2 3 -2 2 -2 2 -1 2 -2 2 -2 2 -2 2 -1 2 -1 2 -2 2 -1 2 -2 2 -1 2 -2 2 -1 2 -2 2 -2 2 -1 2 -2 3 -1 2 -2 2 -2 2 -1 2 -2 2 -2 2 -1 3 -2 2 -1 2 -2 2 -1 2 -2 4 -3 5 -3 4 -3 5 -3 4 -3 4 -3 5 -4 4 -3 2 -1 2 -1 1 -1 2 -1 2 -2 1 -1 2 -1 2 -1 2 -2 3 -2 2 -1 3 -2 2 -1 3 -2 2 -2 3 -1 1 -1 2 -2 2 -1 2 -1 2 -1 2 -2 2 -1 1 -1 3 -2 2 -1 3 -2 2 -1 3 -2 2 -1 3 -2 2 -1 2 -2 2 -1 2 -1 2 -1 2 -1 2 -2 2 -1 1 -1 3 -2 2 -1 3 -1 2 -2 3 -1 2 -2 3 -1 2 -2 2 -1 2 -1 2 -1 2 -2 2 -1 2 -1 2 -1 2 -1 3 -2 2 -1 3 -2 2 -1 2 -1 3 -2 2 -1 3 -1 2 -2 2 -1 2 -1 2 -1 2 -1 2 -2 2 -1 2 -1 3 -1 2 -2 3 -1 2 -1 3 -2 2 -1 3 -1 2 -2 2 -1 2 -1 2 -1 3 -1 2 -1 2 -1 2 -1 2 -1 2 -2 3 -1 3 -1 2 -2 3 -1 2 -1 3 -2 2 -1 2 -1 2 -1 2 -1 3 -1 2 -1 2 -1 2 -1 2 -1 2 -1 3 -2 3 -1 2 -1 3 -2 2 -1 3 -1 3 -1 2 -1 2 -1 2 -1 2 -1 2 -1 2 -1 2 -1 3 -1 2 -1 3 -2 2 -1 3 -1 3 -1 2 -1 3 -2 3 -1 2 -1 2 -1 1 0 2 -1 2 -1 2 -1 2 -1 2 -1 3 -1 3 -1 3 -1 3 -2 2 -1 3 -1 3 -1 3 -2 1 0 1 0 1 -1 1 0 1 -1 1 0 1 0 1 -1 7 -3 7 -3 7 -2 7 -3 7 -3 7 -3 7 -2 7 -3 1 0 2 -1 1 -1 2 0 1 -1 2 0 1 -1 2 0 2 -1 3 -2 3 -1 3 -1 3 -1 3 -1 3 -1 3 -1 2 -1 2 0 2 -1 2 -1 2 0 2 -1 2 -1 2 0 3 -1 3 -1 3 -1 3 -1 3 -1 3 -1 3 -1 2 -1 3 -1 2 -1 2 0 2 -1 2 -1 2 0 2 -1 2 -1 3 0 3 -1 3 -1 3 -1 3 -1 3 -1 2 -1 3 -1 3 0 2 -1 2 -1 2 0 2 -1 2 -1 3 0 2 -1 3 -1 2 0 3 -1 3 -1 3 -1 3 -1 3 -1 3 0 2 -1 2 -1 2 0 3 -1 2 0 2 -1 2 -1 3 0 2 -1 3 -1 3 0 3 -1 3 -1 3 -1 3 0 3 -1 2 -1 2 0 3 -1 2 0 2 -1 2 0 3 -1 2 -1 3 0 3 -1 3 -1 3 0 2 -1 3 -1 3 0 3 -1 2 -1 3 0 2 0 2 -1 2 0 3 -1 2 -1 2 0 3 -1 3 0 3 -1 3 0 3 -1 3 -1 3 0 3 -1 2 0 2 -1 3 0 2 -1 2 0 3 -1 2 0 2 0 3 -1 3 -1 3 0 3 -1 3 0 3 -1 3 0 3 -1 2 0 2 -1 3 0 2 0 2 -1 2 0 2 0 3 -1 18 -3 18 -2 18 -3 19 -2 18 -3 19 -2 18 -1 19 -2 18 -2 19 -1 19 -1 18 -1 19 0 19 -1 19 0 19 0 0 -49 -738 -685 193 0 545 512 0 -512 193 0 -233 -403 -232 -403 2485 2523 -13 -37 -41 -98 -46 -97 -49 -94 -54 -91 -58 -89 -61 -85 -65 -83 -69 -80 -72 -77 1915 1989z"/>
   <g>
    <path class="fil2" d="M3328 5946c-1176,-136 -2089,-1134 -2089,-2346 0,-1116 775,-2052 1816,-2298l0 -241 -193 0 233 -403 233 -403 232 403 233 403 -193 0 0 734c-101,0 -201,8 -297,24 -6,1 -12,2 -18,3 -8,2 -16,3 -24,5 -6,1 -12,2 -18,3 -8,2 -16,3 -24,5 -6,1 -12,3 -18,4 -8,2 -15,4 -23,5 -6,2 -12,3 -18,5 -8,2 -16,4 -23,6 -6,1 -12,3 -18,5 -8,2 -16,4 -23,6 -6,2 -12,4 -18,5 -7,3 -15,5 -23,7 -5,2 -11,4 -17,6 -7,2 -15,5 -23,7 -5,2 -10,4 -16,6 -8,3 -16,6 -23,9 -4,1 -8,3 -12,4 -19,7 -38,14 -56,22 -3,1 -5,2 -8,3 -8,4 -15,7 -23,10 -5,3 -10,5 -15,7 -8,3 -15,7 -22,10 -5,2 -11,5 -16,8 -7,3 -14,7 -21,10 -6,3 -11,5 -17,8 -7,4 -13,7 -20,11 -6,2 -11,5 -17,8 -6,4 -13,7 -20,11 -5,3 -11,6 -16,10 -7,3 -13,7 -20,11 -5,3 -11,6 -16,9 -6,4 -13,8 -20,12 -5,3 -10,6 -15,10 -6,4 -13,8 -20,12 -4,3 -9,6 -14,10 -7,4 -14,8 -20,13 -5,3 -9,6 -14,9 -12,9 -23,17 -35,25 -6,4 -11,8 -17,13 -6,4 -11,8 -17,13 -5,4 -10,8 -16,11 -5,5 -11,10 -17,15 -5,3 -10,7 -15,11 -5,5 -11,10 -17,14 -5,5 -10,9 -15,13 -5,5 -11,9 -16,14 -5,4 -10,9 -15,13 -5,5 -10,10 -16,15 -4,4 -9,9 -14,14 -5,4 -11,9 -16,14 -4,5 -9,9 -14,14 -5,5 -10,10 -15,15 -5,5 -10,10 -14,15 -5,5 -10,9 -15,14 -5,6 -10,11 -15,16 -4,5 -9,10 -13,15 -7,8 -15,16 -22,24 -5,7 -11,13 -16,19 -5,6 -10,12 -15,18 -4,5 -8,10 -12,15 -5,6 -10,12 -14,17 -4,6 -8,11 -12,16 -5,6 -9,12 -14,17 -4,6 -8,11 -11,16 -5,6 -9,12 -13,18 -4,5 -8,10 -12,16 -4,6 -8,12 -12,18 -4,5 -8,11 -11,16 -4,6 -8,13 -12,19 -4,5 -7,11 -11,16 -4,6 -8,13 -12,19 -3,6 -7,11 -10,17 -4,6 -8,13 -12,20 -3,5 -6,10 -9,15 -5,8 -9,17 -14,25 -2,4 -4,8 -6,12 -7,12 -13,24 -19,36 -3,4 -5,8 -7,13 -4,8 -8,16 -12,24 -3,6 -5,11 -7,16 -4,7 -7,15 -11,23 -2,5 -5,10 -7,16 -3,7 -7,15 -10,22 -2,6 -5,11 -7,17 -3,7 -6,15 -9,22 -2,6 -5,12 -7,18 -3,7 -6,14 -8,21 -2,6 -5,12 -7,18 -2,8 -5,15 -8,22 -2,6 -4,12 -6,18 -2,8 -5,16 -7,23 -2,6 -4,12 -6,18 -2,8 -5,17 -7,25 -2,5 -3,10 -5,15 -3,12 -6,24 -9,36 -1,2 -1,3 -2,5 -3,14 -7,28 -10,42 -1,4 -2,8 -3,12 -2,10 -4,20 -6,30 -1,5 -2,11 -3,16 -2,9 -4,18 -5,26 -1,6 -2,12 -3,18 -2,8 -3,17 -5,25 0,6 -1,12 -2,18 -2,9 -3,17 -4,25 -1,6 -1,12 -2,19 -1,8 -2,16 -3,25 -1,6 -1,12 -2,19 -1,8 -2,16 -2,25 -1,6 -1,12 -2,18 0,9 -1,18 -1,27 -1,6 -1,11 -1,17 -1,10 -1,20 -2,30 0,5 0,10 0,14 0,15 -1,30 -1,45 0,15 1,30 1,45 0,5 0,9 0,14 1,10 1,20 2,30 0,6 0,12 1,18 0,8 1,17 1,26 1,6 1,13 2,19 0,8 1,16 2,25 1,6 1,12 2,19 1,8 2,16 3,25 1,6 1,12 2,18 1,8 2,17 4,25 1,6 2,12 2,18 2,9 3,17 5,25 1,6 2,12 3,18 1,9 3,17 5,26 1,5 2,11 3,17 2,9 4,19 6,29 1,4 2,8 3,12 3,14 7,28 10,42l2 6c3,11 6,23 9,35 2,5 3,10 5,15 2,8 5,17 7,26 2,5 4,11 6,17 2,7 5,15 7,23 2,6 4,12 6,18 3,7 6,15 8,22 2,6 5,12 7,18 2,7 5,14 8,22 2,5 5,12 7,17 3,8 6,15 9,22 2,6 5,11 7,17 3,8 7,15 10,23 2,5 5,10 7,16 4,7 7,15 11,22 2,6 4,11 7,16 4,8 8,16 12,25 2,4 4,8 7,12 6,12 12,25 19,37 2,4 4,7 6,11 5,8 9,17 14,25 3,5 6,10 9,15 4,7 8,14 12,21 3,5 7,11 10,16 4,7 8,13 12,19 4,6 7,11 11,17 4,6 8,12 12,18 3,5 7,11 11,16 4,6 8,12 12,18 4,6 8,11 12,16 4,6 8,12 13,18 3,5 7,11 11,16 5,6 9,11 14,17 4,5 8,11 12,16 4,6 9,11 14,17 4,5 8,10 12,15 5,6 10,12 15,18 5,6 11,13 16,19 7,8 15,16 22,24 4,5 9,10 13,15 5,5 10,11 15,16 5,5 10,10 15,15 4,5 9,9 14,14 5,5 10,10 15,15 5,5 10,10 14,14 5,5 11,10 16,15 5,4 10,9 14,14 6,4 11,9 16,14 5,4 10,9 15,13 5,5 11,9 16,14 5,4 10,9 15,13 6,5 12,9 17,14 5,4 10,8 15,12 6,4 12,9 17,14 6,4 11,8 16,11 6,5 11,9 17,14 6,4 11,8 17,12 12,8 23,17 35,25 5,3 9,6 14,9 6,5 13,9 20,14 5,3 10,6 14,9 7,4 14,9 20,13 5,3 10,6 15,9 7,4 14,8 20,12 5,3 11,7 16,10 7,3 13,7 20,11 5,3 11,6 16,9 7,4 14,7 20,11 6,3 11,6 17,9 7,3 13,7 20,10 6,3 11,6 17,8 7,4 14,7 21,11 5,2 11,5 16,7 7,4 14,7 22,10 5,2 10,5 15,7 8,3 15,7 23,10 3,1 5,2 8,3 18,8 37,15 56,22 4,2 8,3 12,5 7,3 15,5 23,8 6,2 11,4 16,6 8,2 16,5 23,7 6,2 12,4 17,6 8,2 16,5 23,7 6,2 12,3 18,5 7,2 15,5 23,7 6,1 12,3 18,4 7,2 15,5 23,6 6,2 12,3 18,5 8,2 15,4 23,5 6,2 12,3 18,4 8,2 16,4 24,5 6,1 12,3 18,4 8,1 16,3 24,4 6,1 12,2 18,3 8,1 16,3 25,4l0 561z"/>
    <path class="fil3" d="M3872 1255c1176,135 2089,1133 2089,2345 0,1117 -775,2052 -1817,2298l0 241 193 0 -232 403 -233 403 -233 -403 -232 -403 193 0 0 -734c101,0 200,-8 297,-24 6,-1 12,-2 18,-3 8,-1 16,-3 24,-4 6,-1 12,-3 18,-4 8,-1 16,-3 24,-5 6,-1 12,-2 18,-4 7,-1 15,-3 23,-5 6,-2 12,-3 18,-5 8,-1 15,-4 23,-6 6,-1 12,-3 18,-4 8,-2 15,-5 23,-7 6,-2 12,-3 17,-5 8,-2 16,-5 24,-7 5,-2 11,-4 16,-6 8,-2 16,-5 24,-7 5,-2 10,-4 15,-6 8,-3 16,-5 24,-8 4,-2 8,-3 12,-5 19,-7 37,-14 56,-22 2,-1 5,-2 8,-3 7,-3 15,-7 23,-10 5,-2 10,-5 15,-7 7,-3 14,-6 21,-10 6,-2 11,-5 17,-7 7,-4 14,-7 21,-11 5,-2 11,-5 16,-8 7,-3 14,-7 21,-10 5,-3 11,-6 16,-9 7,-4 14,-7 20,-11 6,-3 11,-6 17,-9 7,-4 13,-8 19,-11 6,-3 11,-7 16,-10 7,-4 14,-8 20,-12 5,-3 10,-6 16,-9 6,-4 13,-9 19,-13 5,-3 10,-6 15,-9 7,-5 13,-9 20,-14 4,-3 9,-6 13,-9 12,-8 24,-17 36,-25 5,-4 11,-8 17,-12 5,-5 11,-9 17,-14 5,-3 10,-7 15,-11 6,-5 12,-10 18,-14 5,-4 10,-8 15,-12 5,-5 11,-9 16,-14 5,-4 10,-9 15,-13 6,-5 11,-9 16,-14 6,-4 11,-9 15,-13 6,-5 11,-10 16,-14 5,-5 10,-10 15,-14 5,-5 10,-10 15,-15 5,-4 10,-9 15,-14 5,-5 10,-10 15,-15 5,-5 9,-9 14,-14 5,-5 10,-10 15,-15 4,-5 9,-11 14,-16 5,-5 9,-10 14,-15 7,-8 14,-16 22,-24 5,-6 10,-13 16,-19 5,-6 10,-12 15,-18 4,-5 8,-10 12,-15 5,-6 9,-11 14,-17 4,-5 8,-11 12,-16 5,-6 9,-11 13,-17 4,-5 8,-11 12,-16 4,-6 9,-12 13,-18 4,-5 8,-10 11,-16 5,-6 9,-12 13,-18 4,-5 7,-11 11,-16 4,-6 8,-12 12,-18 4,-6 7,-11 11,-17 4,-6 8,-12 11,-19 4,-5 7,-11 11,-16 4,-7 8,-14 12,-21 3,-5 6,-10 9,-15 4,-8 9,-17 14,-25 2,-4 4,-7 6,-11 6,-12 13,-25 19,-37 2,-4 4,-8 6,-12 5,-9 9,-17 13,-25 2,-5 5,-10 7,-16 4,-7 7,-15 11,-22 2,-6 4,-11 7,-16 3,-8 6,-15 10,-23 2,-6 4,-11 7,-17 3,-7 6,-14 9,-22 2,-5 4,-12 7,-17 2,-8 5,-15 8,-22 2,-6 4,-12 6,-18 3,-7 6,-15 8,-22 2,-6 4,-12 6,-18 3,-8 5,-16 8,-23 2,-6 4,-12 5,-17 3,-9 6,-18 8,-26 2,-5 3,-10 4,-15 4,-12 7,-24 10,-35 0,-2 1,-4 2,-6 3,-14 7,-28 10,-42 1,-4 1,-8 2,-12 3,-10 5,-20 7,-29 1,-6 2,-12 3,-17 2,-9 3,-17 5,-26 1,-6 2,-12 3,-18 2,-8 3,-16 4,-25 1,-6 2,-12 3,-18 1,-8 2,-16 3,-25 1,-6 2,-12 3,-18 1,-9 2,-17 3,-25 0,-7 1,-13 2,-19 0,-9 1,-17 2,-25 0,-6 1,-13 1,-19 1,-9 2,-18 2,-26 0,-6 1,-12 1,-18 1,-10 1,-20 1,-30 0,-5 1,-9 1,-14 0,-15 0,-30 0,-45 0,-15 0,-30 0,-45 0,-4 -1,-9 -1,-14 0,-10 0,-20 -1,-30 0,-6 -1,-11 -1,-17 0,-9 -1,-18 -2,-27 0,-6 -1,-12 -1,-18 -1,-9 -2,-17 -2,-25 -1,-7 -2,-13 -2,-19 -1,-9 -2,-17 -3,-25 -1,-7 -2,-13 -3,-19 -1,-8 -2,-16 -3,-25 -1,-6 -2,-12 -3,-18 -1,-8 -2,-17 -4,-25 -1,-6 -2,-12 -3,-18 -2,-8 -3,-17 -5,-26 -1,-5 -2,-11 -3,-16 -2,-10 -4,-20 -7,-30 -1,-4 -1,-8 -2,-12 -4,-14 -7,-28 -10,-42l-2 -5c-3,-12 -6,-24 -10,-36 -1,-5 -2,-10 -4,-15 -2,-8 -5,-17 -8,-25 -1,-6 -3,-12 -5,-18 -3,-7 -5,-15 -8,-23 -2,-6 -4,-12 -6,-18 -2,-7 -5,-14 -8,-22 -2,-6 -4,-12 -6,-18 -3,-7 -6,-14 -8,-21 -3,-6 -5,-12 -7,-18 -3,-7 -6,-15 -9,-22 -3,-6 -5,-11 -7,-17 -4,-7 -7,-15 -10,-22 -3,-6 -5,-11 -7,-16 -4,-8 -7,-16 -11,-23 -2,-5 -5,-10 -7,-16 -4,-8 -8,-16 -13,-24 -2,-5 -4,-9 -6,-13 -6,-12 -13,-24 -19,-36 -2,-4 -4,-8 -6,-12 -5,-8 -10,-17 -14,-25 -3,-5 -6,-10 -9,-15 -4,-7 -8,-14 -12,-20 -4,-6 -7,-11 -11,-17 -3,-6 -7,-13 -11,-19 -4,-5 -7,-11 -11,-16 -4,-6 -8,-13 -12,-19 -4,-5 -7,-11 -11,-16 -4,-6 -8,-12 -13,-18 -3,-6 -7,-11 -11,-16 -4,-6 -9,-12 -13,-18 -4,-5 -8,-10 -12,-16 -4,-5 -8,-11 -13,-17 -4,-5 -8,-10 -12,-16 -5,-5 -9,-11 -14,-17 -4,-5 -8,-10 -12,-15 -5,-6 -10,-12 -15,-18 -6,-6 -11,-12 -16,-19 -8,-8 -15,-16 -22,-24 -5,-5 -9,-10 -14,-15 -5,-5 -10,-10 -14,-16 -5,-5 -10,-9 -15,-14 -5,-5 -9,-10 -14,-15 -5,-5 -10,-10 -15,-15 -5,-5 -10,-9 -15,-14 -5,-5 -10,-10 -15,-14 -5,-5 -10,-10 -15,-14 -5,-5 -10,-10 -16,-15 -4,-4 -9,-9 -15,-13 -5,-5 -10,-9 -16,-14 -5,-4 -10,-8 -15,-13 -5,-4 -11,-9 -16,-14 -5,-4 -10,-8 -15,-11 -6,-5 -12,-10 -18,-15 -5,-3 -10,-7 -15,-11 -6,-5 -12,-9 -17,-13 -6,-5 -12,-9 -17,-13 -12,-8 -24,-16 -36,-25 -4,-3 -9,-6 -13,-9 -7,-5 -13,-9 -20,-13 -5,-4 -10,-7 -15,-10 -6,-4 -13,-8 -19,-12 -6,-4 -11,-7 -16,-10 -6,-4 -13,-8 -20,-12 -5,-3 -10,-6 -16,-9 -6,-4 -12,-8 -19,-11 -6,-4 -11,-7 -17,-10 -6,-4 -13,-7 -20,-11 -5,-3 -11,-5 -16,-8 -7,-4 -14,-7 -21,-11 -5,-3 -11,-5 -16,-8 -7,-3 -14,-7 -21,-10 -6,-3 -11,-6 -17,-8 -7,-3 -14,-7 -21,-10 -5,-2 -10,-4 -15,-7 -8,-3 -16,-6 -23,-10 -3,-1 -6,-2 -8,-3 -19,-7 -37,-15 -56,-22 -4,-1 -8,-3 -12,-4 -8,-3 -16,-6 -24,-9 -5,-2 -10,-4 -15,-6 -8,-2 -16,-5 -24,-7 -5,-2 -11,-4 -16,-6 -8,-2 -16,-4 -24,-7 -5,-1 -11,-3 -17,-5 -8,-2 -15,-4 -23,-6 -6,-2 -12,-4 -18,-5 -8,-2 -15,-4 -23,-6 -6,-2 -12,-3 -18,-5 -8,-1 -16,-3 -23,-5 -6,-1 -12,-3 -18,-4 -8,-2 -16,-3 -24,-5 -6,-1 -12,-2 -18,-3 -8,-2 -16,-3 -24,-5 -6,-1 -12,-2 -18,-3 -8,-1 -17,-3 -25,-4l0 -560z"/>
    <path class="fil4" d="M3600 2645c353,0 662,192 827,478l413 -239 83 -48c-264,-457 -758,-764 -1323,-764 -844,0 -1528,684 -1528,1528 0,844 684,1528 1528,1528 565,0 1059,-307 1323,-764l-83 -48 -413 -238c-165,285 -474,477 -827,477 -528,0 -955,-427 -955,-955 0,-527 427,-955 955,-955z"/>
   </g>
  </g>
 </g>
</svg>
