<?xml version="1.0" encoding="UTF-8"?>
<!DOCTYPE svg PUBLIC "-//W3C//DTD SVG 1.1//EN" "http://www.w3.org/Graphics/SVG/1.1/DTD/svg11.dtd">
<!-- Creator: CorelDRAW X7 -->
<svg xmlns="http://www.w3.org/2000/svg" xml:space="preserve" width="96px" height="96px" version="1.1" style="shape-rendering:geometricPrecision; text-rendering:geometricPrecision; image-rendering:optimizeQuality; fill-rule:evenodd; clip-rule:evenodd"
viewBox="0 0 9600 9600"
 xmlns:xlink="http://www.w3.org/1999/xlink">
 <defs>
  <style type="text/css">
   <![CDATA[
    .fil4 {fill:#F0C84D}
    .fil2 {fill:#02813E}
    .fil3 {fill:#2C30FA}
    .fil1 {fill:#DEDEDE}
    .fil0 {fill:#EBEBEB}
   ]]>
  </style>
 </defs>
 <g id="Layer_x0020_1">
  <metadata id="CorelCorpID_0Corel-Layer"/>
  <g id="_274929440">
   <rect class="fil0" width="9600" height="9600" rx="1976" ry="1976"/>
   <path class="fil1" d="M9600 5248l0 2377c0,1086 -889,1975 -1976,1975l-1861 0 -600 -340 246 -427 -2192 -1312 123 69 127 63 131 57 133 52 136 45 139 40 141 33 144 27 146 20 0 -499 -940 -604 -3 -1 -2 -2 -3 -2 -2 -1 -3 -2 -2 -1 -3 -2 -2 -2 -3 -2 -4 -2 -3 -2 -3 -2 -4 -3 -3 -2 -3 -2 -3 -2 -3 -2 -2 -1 -2 -2 -3 -1 -2 -2 -2 -2 -2 -1 -3 -2 -6 -4 -5 -4 -6 -4 -6 -4 -6 -5 -6 -4 -6 -4 -6 -4 -2 -2 -3 -2 -3 -2 -3 -2 -3 -2 -2 -2 -3 -2 -3 -2 -3 -3 -3 -2 -3 -2 -3 -2 -3 -2 -3 -3 -2 -2 -3 -2 -3 -2 -2 -2 -3 -2 -3 -2 -2 -2 -3 -2 -2 -2 -3 -2 -3 -2 -2 -2 -3 -3 -3 -2 -3 -2 -3 -3 -3 -2 -3 -2 -3 -2 -2 -2 -2 -2 -3 -2 -2 -2 -3 -2 -2 -2 -3 -2 -2 -3 -3 -2 -3 -2 -3 -2 -3 -3 -2 -2 -3 -2 -3 -3 -2 -2 -3 -2 -3 -2 -2 -2 -3 -2 -2 -3 -3 -2 -2 -2 -3 -2 -3 -2 -2 -3 -3 -2 -3 -3 -2 -2 -3 -2 -3 -3 -2 -2 -3 -2 -2 -2 -3 -2 -2 -2 -3 -3 -2 -2 -3 -2 -2 -3 -3 -2 -3 -2 -2 -3 -3 -2 -2 -3 -3 -2 -3 -2 -2 -3 -3 -2 -2 -2 -3 -2 -2 -3 -3 -2 -2 -2 -3 -3 -2 -2 -3 -3 -2 -2 -3 -2 -2 -3 -3 -2 -2 -3 -3 -2 -2 -2 -3 -3 -2 -2 -2 -2 -3 -3 -2 -2 -2 -2 -3 -3 -2 -2 -3 -3 -3 -2 -2 -3 -3 -2 -2 -3 -3 -2 -2 -3 -3 -2 -2 -3 -2 -2 -3 -2 -2 -3 -2 -2 -3 -3 -2 -2 -3 -3 -2 -2 -2 -3 -3 -2 -2 -3 -3 -2 -2 -3 -2 -2 -3 -3 -2 -2 -3 -3 -2 -3 -3 -2 -2 -3 -2 -2 -3 -3 -2 -2 -2 -3 -3 -2 -2 -3 -2 -2 -2 -3 -3 -2 -2 -3 -4 -4 -3 -4 -4 -4 -4 -4 -3 -4 -4 -4 -3 -4 -4 -4 -3 -4 -2 -2 -3 -4 -3 -3 -2 -3 -3 -3 -3 -3 -2 -3 -3 -3 -2 -3 -3 -3 -3 -3 -2 -3 -3 -3 -2 -3 -3 -3 -2 -3 -2 -2 -2 -3 -2 -2 -2 -3 -2 -2 -2 -3 -2 -2 -2 -3 -3 -3 -2 -3 -2 -3 -3 -3 -2 -2 -2 -3 -3 -3 -2 -3 -2 -2 -2 -3 -2 -3 -2 -2 -2 -3 -2 -3 -2 -2 -2 -3 -2 -3 -2 -3 -3 -3 -2 -3 -2 -2 -2 -3 -2 -3 -2 -3 -2 -2 -2 -3 -2 -3 -2 -2 -2 -3 -2 -3 -2 -2 -2 -3 -2 -3 -3 -3 -2 -3 -2 -3 -2 -3 -2 -3 -2 -3 -2 -3 -2 -2 -2 -3 -2 -2 -2 -3 -2 -3 -2 -2 -1 -3 -3 -3 -2 -3 -2 -3 -2 -3 -2 -3 -2 -3 -2 -3 -2 -3 -2 -3 -2 -3 -2 -3 -2 -2 -1 -3 -2 -3 -2 -2 -2 -3 -2 -3 -2 -3 -2 -3 -2 -3 -2 -3 -2 -3 -2 -4 -2 -3 -2 -2 -2 -3 -1 -3 -2 -3 -2 -2 -2 -3 -1 -3 -2 -2 -2 -4 -2 -3 -2 -3 -2 -3 -2 -3 -2 -3 -2 -4 -2 -3 -2 -2 -1 -3 -2 -3 -2 -3 -1 -3 -2 -2 -2 -3 -1 -3 -2 -3 -3 -4 -2 -3 -1 -3 -2 -4 -2 -3 -2 -3 -2 -4 -2 -2 -1 -3 -2 -2 -1 -3 -2 -3 -1 -2 -2 -3 -1 -2 -3 -4 -2 -5 -2 -4 -3 -4 -2 -4 -2 -4 -3 -4 -2 -4 -1 -2 -1 -2 -1 -2 -1 -2 -1 -2 -1 -2 -1 -2 -2 -2 -3 -6 -3 -6 -3 -6 -3 -6 -4 -6 -3 -6 -3 -6 -3 -6 -1 -3 -1 -2 -1 -2 -1 -2 -1 -2 -1 -2 -1 -2 -1 -2 -3 -4 -2 -4 -2 -5 -2 -4 -2 -4 -2 -4 -2 -4 -2 -4 -1 -3 -1 -2 -2 -3 -1 -3 -1 -2 -1 -3 -1 -2 -2 -3 -2 -4 -1 -3 -2 -4 -2 -4 -2 -4 -1 -4 -2 -3 -2 -4 -1 -3 -1 -3 -1 -2 -2 -3 -1 -2 -1 -3 -1 -3 -1 -3 -2 -3 -2 -4 -1 -4 -2 -4 -2 -3 -1 -4 -2 -4 -2 -4 -1 -2 -1 -3 -1 -3 -1 -3 -1 -3 -2 -3 -1 -2 -1 -3 -1 -4 -2 -3 -2 -4 -1 -4 -1 -3 -2 -4 -1 -4 -2 -3 -1 -3 -1 -3 -1 -3 -2 -3 -1 -3 -1 -3 -1 -3 -1 -3 -2 -4 -1 -3 -1 -4 -2 -3 -1 -4 -1 -4 -2 -3 -1 -4 -1 -3 -1 -3 -2 -3 -1 -3 -1 -3 -1 -3 -1 -3 -1 -3 -1 -3 -2 -4 -1 -4 -1 -3 -2 -4 -1 -4 -1 -4 -1 -3 -1 -3 -1 -3 -2 -3 0 -3 -2 -3 0 -3 -2 -3 -1 -3 -1 -4 -1 -4 -1 -4 -2 -4 -1 -3 -1 -4 -1 -4 -2 -4 0 -3 -1 -3 -1 -2 -1 -3 -1 -3 -1 -3 -1 -3 -1 -3 -1 -4 -1 -4 -2 -5 -1 -4 -1 -4 -2 -5 -1 -4 -1 -4 -1 -3 -1 -2 0 -3 -1 -2 -1 -3 0 -2 -1 -3 -1 -2 -2 -6 -1 -6 -2 -6 -1 -6 -2 -6 -2 -5 -1 -6 -2 -6 -2 -8 -1 -7 -2 -7 -2 -7 -2 -7 -1 -7 -2 -6 -2 -7 -1 -7 -1 -2 0 -2 -1 -2 0 -2 0 -2 -1 -2 0 -2 -1 -2 -1 -5 -1 -5 -1 -5 -1 -5 -1 -5 -1 -5 -1 -5 -1 -5 -1 -3 0 -3 -1 -2 -1 -3 0 -3 -1 -3 0 -3 -1 -2 -1 -5 0 -4 -1 -4 -1 -4 -1 -5 -1 -4 -1 -4 0 -5 -1 -3 0 -3 -1 -3 0 -2 -1 -3 0 -3 -1 -3 0 -3 -1 -4 -1 -5 -1 -4 0 -4 -1 -4 -1 -4 0 -4 -1 -5 0 -3 -1 -3 0 -3 -1 -3 0 -3 -1 -3 0 -3 -1 -3 0 -4 -1 -4 0 -5 -1 -4 -1 -4 0 -4 -1 -4 0 -4 -1 -3 0 -3 -1 -3 0 -3 0 -4 -1 -3 0 -3 0 -3 -1 -4 0 -4 -1 -4 0 -5 -1 -4 0 -4 -1 -4 0 -4 -1 -3 0 -3 0 -4 -1 -3 0 -3 0 -3 -1 -3 0 -3 0 -4 -1 -5 0 -4 0 -4 -1 -4 0 -4 0 -5 -1 -4 0 -3 0 -3 -1 -3 0 -3 0 -3 0 -3 -1 -4 0 -3 0 -4 0 -5 -1 -4 0 -4 0 -5 -1 -4 0 -5 0 -4 0 -3 0 -3 -1 -3 0 -3 0 -3 0 -3 0 -2 0 -3 -1 -5 0 -5 0 -5 0 -5 0 -5 -1 -5 0 -5 0 -5 0 -2 0 -3 0 -2 0 -3 0 -2 0 -3 -1 -2 0 -2 0 -8 0 -7 0 -8 0 -7 0 -8 0 -7 0 -7 0 -8 0 -7 0 -8 0 -7 0 -8 0 -7 0 -8 0 -7 0 -7 0 -3 1 -2 0 -3 0 -2 0 -2 0 -3 0 -2 0 -3 0 -5 0 -5 1 -5 0 -5 0 -4 0 -5 0 -5 1 -5 0 -3 0 -3 0 -3 0 -3 0 -3 1 -3 0 -3 0 -3 0 -4 0 -5 1 -4 0 -4 0 -5 1 -4 0 -5 0 -4 0 -3 1 -3 0 -3 0 -3 0 -4 1 -3 0 -3 0 -3 1 -4 0 -4 0 -4 1 -5 0 -4 0 -4 1 -4 0 -4 0 -3 1 -4 0 -3 0 -3 1 -3 0 -3 0 -3 1 -4 0 -4 1 -4 0 -4 1 -4 0 -4 1 -4 0 -5 1 -4 0 -3 0 -3 1 -3 0 -3 0 -3 1 -4 0 -3 1 -3 0 -4 1 -4 0 -4 1 -4 1 -4 0 -4 1 -4 0 -5 1 -3 0 -3 1 -3 0 -3 1 -3 0 -3 1 -3 0 -3 1 -4 0 -5 1 -4 1 -4 0 -4 1 -4 1 -4 1 -4 0 -3 1 -3 0 -3 1 -3 0 -3 1 -3 0 -3 1 -3 0 -4 1 -5 1 -4 1 -4 1 -5 1 -4 0 -4 1 -4 1 -3 0 -3 1 -3 0 -3 1 -2 1 -3 0 -3 1 -3 1 -5 1 -5 1 -5 1 -5 1 -5 1 -4 1 -5 1 -5 1 -2 0 -2 1 -2 0 -2 0 -2 1 -2 0 -2 1 -2 1 -7 2 -7 2 -7 1 -7 2 -7 2 -7 2 -7 1 -7 1 -1 0 -1 0 -1 0 -1 1 -1 0 -1 0 0 0 -1 2 -6 1 -6 2 -6 2 -6 1 -6 2 -6 1 -6 2 -6 1 -2 1 -3 0 -2 1 -3 1 -2 0 -3 1 -2 1 -2 1 -5 1 -4 2 -4 1 -5 1 -4 2 -4 1 -5 1 -4 1 -3 1 -3 1 -3 1 -2 1 -3 1 -3 1 -3 0 -3 2 -4 1 -4 1 -3 1 -4 2 -4 1 -4 1 -4 1 -4 1 -3 2 -3 0 -3 2 -3 0 -2 2 -4 1 -3 1 -2 1 -4 1 -4 1 -4 2 -3 1 -4 1 -4 2 -3 1 -4 1 -3 1 -3 1 -3 1 -3 1 -3 2 -3 1 -3 1 -3 1 -4 2 -3 1 -4 1 -3 2 -4 1 -4 1 -3 2 -4 1 -3 1 -3 1 -3 2 -3 1 -3 1 -3 1 -3 1 -3 2 -3 1 -4 2 -4 1 -3 1 -4 2 -3 2 -4 1 -4 1 -2 1 -3 2 -3 1 -3 1 -3 1 -3 1 -2 1 -3 2 -4 2 -4 1 -3 2 -4 2 -4 1 -4 2 -3 2 -4 1 -3 1 -3 1 -2 1 -3 2 -3 1 -2 1 -3 1 -3 2 -3 2 -4 1 -4 2 -4 2 -4 2 -3 1 -4 2 -4 2 -2 1 -3 1 -3 1 -2 1 -3 2 -2 1 -3 1 -2 2 -5 2 -4 2 -4 2 -4 2 -4 2 -4 2 -5 3 -4 1 -2 1 -2 1 -2 1 -2 1 -2 1 -2 1 -2 1 -2 3 -6 3 -7 3 -6 4 -6 3 -6 3 -6 3 -6 3 -6 2 -2 1 -2 1 -2 1 -2 1 -2 1 -2 1 -1 1 -2 2 -4 3 -5 2 -4 2 -4 3 -4 2 -4 2 -4 3 -4 1 -3 2 -3 1 -2 2 -3 1 -2 2 -3 1 -3 2 -2 2 -3 2 -4 2 -3 2 -3 1 -4 2 -3 3 -4 2 -3 1 -3 2 -3 2 -2 1 -3 2 -3 2 -2 1 -3 2 -3 2 -3 2 -3 2 -3 2 -4 2 -3 2 -3 2 -3 2 -3 2 -3 1 -3 2 -2 2 -3 2 -3 1 -3 2 -2 2 -3 2 -3 2 -3 2 -3 2 -3 2 -3 2 -3 2 -4 2 -3 2 -2 2 -3 2 -3 1 -2 2 -3 2 -3 2 -3 2 -2 2 -3 2 -3 2 -3 2 -4 2 -2 2 -4 2 -2 3 -4 1 -2 2 -3 2 -3 2 -2 2 -3 2 -3 2 -2 2 -3 2 -3 2 -3 2 -3 2 -3 2 -3 3 -3 2 -2 2 -3 2 -3 2 -3 2 -2 2 -3 2 -3 2 -2 2 -3 2 -3 2 -2 2 -3 2 -3 2 -3 3 -3 2 -3 2 -3 2 -3 2 -2 2 -3 2 -2 2 -3 2 -3 2 -2 2 -3 2 -3 3 -2 2 -3 2 -3 3 -3 2 -3 2 -3 3 -3 2 -3 2 -2 2 -3 2 -2 2 -2 2 -3 2 -2 2 -3 2 -2 3 -3 2 -3 3 -4 2 -3 3 -3 3 -3 2 -3 3 -3 2 -3 3 -3 3 -3 2 -3 3 -3 3 -3 2 -3 3 -3 4 -5 3 -4 4 -4 3 -4 4 -4 4 -4 3 -4 4 -4 2 -3 3 -2 2 -3 2 -2 2 -2 3 -3 2 -2 2 -3 3 -2 2 -3 2 -3 3 -2 2 -3 3 -2 2 -3 3 -3 2 -2 2 -3 3 -2 2 -3 3 -2 2 -3 2 -2 3 -3 2 -2 3 -2 2 -3 2 -2 3 -3 2 -2 2 -3 3 -2 2 -2 3 -3 2 -2 3 -3 2 -3 3 -2 3 -3 2 -2 3 -2 2 -3 2 -2 3 -2 2 -3 2 -2 3 -2 2 -3 3 -2 2 -3 3 -2 2 -2 3 -3 2 -2 3 -3 2 -2 3 -2 2 -3 3 -2 2 -2 3 -3 2 -2 3 -2 2 -3 3 -2 3 -2 2 -3 3 -2 2 -2 3 -3 3 -2 2 -3 3 -2 2 -2 3 -2 2 -2 3 -3 2 -2 3 -2 2 -2 3 -3 3 -2 2 -2 3 -3 3 -2 2 -2 3 -3 3 -2 2 -2 3 -2 2 -2 3 -3 2 -2 3 -2 3 -2 2 -2 3 -2 3 -3 2 -2 3 -2 3 -3 3 -2 3 -2 2 -3 3 -1 2 -2 3 -2 2 -3 3 -2 2 -1 2 -2 3 -2 3 -3 3 -2 3 -2 3 -3 3 -2 3 -2 2 -3 3 -2 3 -2 2 -2 3 -2 2 -2 3 -2 3 -2 2 -2 3 -2 3 -2 2 -2 3 -2 3 -3 3 -2 3 -2 3 -2 3 -2 3 -2 3 -2 2 -3 3 -2 3 -2 3 -2 3 -2 2 -2 6 -4 6 -4 6 -4 6 -4 6 -5 6 -4 5 -4 6 -4 3 -2 2 -1 2 -2 2 -1 3 -2 2 -1 2 -2 3 -2 3 -2 3 -2 3 -2 4 -2 3 -3 3 -2 4 -2 3 -2 2 -2 3 -1 2 -2 3 -2 2 -1 3 -2 2 -1 3 -2 3 -2 3 -2 3 -2 4 -2 3 -2 3 -3 4 -2 3 -2 2 -1 3 -2 3 -1 2 -2 3 -2 2 -1 3 -2 2 -1 4 -2 3 -2 3 -2 4 -2 3 -2 3 -2 3 -2 4 -2 2 -2 3 -1 3 -2 2 -2 3 -1 3 -2 2 -1 3 -2 3 -2 4 -2 3 -2 3 -1 3 -2 3 -2 4 -2 3 -2 3 -1 3 -2 2 -1 3 -2 3 -2 3 -1 2 -2 3 -1 4 -2 3 -2 3 -2 4 -1 3 -2 3 -2 4 -2 3 -2 3 -1 2 -2 3 -1 3 -1 3 -2 2 -1 3 -2 3 -1 3 -2 4 -2 3 -1 3 -2 4 -2 3 -2 4 -2 3 -1 3 -2 3 -1 2 -1 3 -2 3 -1 3 -1 2 -2 3 -1 4 -2 3 -2 3 -1 4 -2 3 -2 4 -1 3 -2 4 -2 3 -1 3 -1 2 -2 3 -1 3 -1 3 -2 3 -1 2 -1 4 -2 3 -1 4 -2 3 -2 4 -1 3 -2 4 -2 4 -1 2 -1 3 -2 2 -1 3 -1 3 -1 2 -1 3 -1 2 -1 4 -2 4 -2 4 -1 4 -2 3 -2 4 -1 4 -2 4 -2 1 0 2 -1 1 0 1 -1 1 0 2 -1 1 0 1 -1 10 -4 9 -3 9 -4 9 -4 10 -3 9 -4 9 -4 10 -3 2 -1 2 -1 2 0 2 -1 2 -1 2 -1 1 0 2 -1 4 -2 4 -1 4 -2 4 -1 4 -1 4 -2 4 -1 4 -1 3 -1 2 -1 3 -1 3 -1 2 -1 3 -1 3 -1 2 -1 4 -1 4 -2 4 -1 4 -1 4 -1 4 -2 4 -1 3 -1 3 -1 3 -1 3 -1 3 -1 2 -1 3 -1 3 -1 3 -1 4 -1 3 -1 4 -1 4 -1 4 -1 4 -2 4 -1 4 -1 3 -1 2 -1 3 -1 3 0 3 -1 3 -1 3 -1 3 -1 3 -1 4 -1 4 -1 4 -1 4 -1 4 -1 4 -1 3 -2 3 0 3 -1 3 -1 3 -1 3 -1 3 0 3 -1 3 -1 4 -1 4 -1 4 -1 4 -1 3 -1 4 -1 4 -1 4 -1 3 -1 3 0 3 -1 3 -1 3 -1 3 0 3 -1 3 -1 4 -1 4 -1 4 -1 4 -1 4 0 3 -1 4 -1 4 -1 3 -1 3 0 3 -1 3 -1 3 0 3 -1 3 -1 3 0 4 -1 4 -1 4 -1 4 -1 4 -1 4 0 4 -1 4 -1 3 0 3 -1 3 -1 3 0 3 -1 3 0 3 -1 3 -1 4 0 4 -1 4 -1 4 -1 4 0 4 -1 4 -1 4 -1 3 0 3 0 3 -1 3 -1 3 0 3 0 3 -1 3 0 24 -4 24 -4 25 -3 24 -4 25 -2 24 -3 25 -3 25 -2 24 -2 25 -1 25 -2 25 -1 25 -1 25 -1 26 0 25 0 0 -65 -984 -913 258 0 726 683 0 -683 257 0 -310 -537 -310 -537 3314 3363 -18 -49 -55 -131 -60 -129 -66 -125 -72 -122 -77 -118 -82 -115 -86 -110 -92 -107 -96 -102 2553 2652z"/>
   <g>
    <path class="fil2" d="M4437 7927c-1568,-180 -2785,-1511 -2785,-3127 0,-1489 1033,-2736 2422,-3064l0 -321 -258 0 311 -537 310 -537 310 537 310 537 -257 0 0 978c-135,0 -267,11 -396,33 -8,1 -16,2 -24,3 -11,2 -21,4 -32,6 -8,2 -16,3 -24,5 -11,2 -21,4 -32,7 -8,1 -16,3 -24,5 -10,2 -20,5 -31,7 -8,2 -16,4 -24,6 -10,3 -21,5 -31,8 -8,2 -16,4 -24,6 -10,3 -20,6 -30,9 -8,2 -16,5 -23,7 -11,3 -21,6 -31,9 -8,3 -15,5 -23,8 -10,3 -20,7 -31,10 -7,2 -14,5 -21,8 -11,3 -21,7 -32,11 -5,2 -10,4 -15,6 -25,9 -50,19 -75,29 -3,2 -7,3 -10,4 -10,5 -21,9 -31,14 -7,3 -14,6 -20,9 -10,4 -19,8 -29,13 -7,3 -15,7 -22,10 -9,5 -19,9 -28,14 -7,3 -15,7 -22,11 -9,4 -18,9 -27,14 -8,4 -15,8 -22,11 -9,5 -18,10 -27,15 -7,4 -15,8 -22,12 -9,5 -17,10 -26,15 -7,4 -14,9 -21,13 -9,5 -18,10 -27,16 -7,4 -13,8 -20,12 -9,6 -18,11 -26,17 -7,4 -13,9 -20,13 -9,6 -18,11 -26,17 -7,5 -13,9 -19,13 -15,11 -31,22 -47,33 -7,6 -15,11 -22,17 -8,6 -16,12 -23,17 -7,6 -14,11 -21,16 -7,6 -15,12 -23,19 -7,5 -13,10 -20,15 -7,7 -15,13 -22,19 -7,6 -14,11 -20,17 -8,6 -15,12 -22,19 -6,6 -13,11 -20,17 -7,7 -14,13 -21,19 -6,7 -13,13 -20,19 -6,6 -13,13 -20,19 -6,6 -13,13 -19,19 -7,7 -14,13 -20,20 -7,7 -13,13 -19,19 -7,7 -13,14 -19,20 -7,7 -13,14 -20,21 -6,7 -12,13 -18,20 -10,11 -19,22 -29,33 -7,8 -14,16 -21,24 -7,8 -14,16 -21,25 -5,6 -11,13 -16,19 -6,8 -12,16 -19,23 -5,7 -10,15 -16,21 -6,8 -12,16 -17,23 -6,7 -11,15 -16,22 -6,7 -12,15 -17,23 -5,7 -10,14 -15,21 -6,8 -12,16 -17,25 -5,7 -10,14 -15,21 -5,9 -11,17 -16,25 -5,7 -9,14 -14,22 -6,8 -11,16 -16,25 -5,7 -9,15 -13,22 -6,9 -11,18 -16,27 -4,7 -8,14 -12,21 -7,11 -13,22 -19,33 -3,5 -6,10 -9,15 -8,16 -17,32 -25,49 -3,5 -6,11 -9,16 -5,11 -11,22 -16,34 -3,6 -6,13 -10,20 -4,10 -9,20 -14,30 -3,8 -6,15 -9,22 -5,10 -9,20 -14,30 -3,7 -6,15 -9,22 -4,10 -8,20 -12,29 -3,8 -6,16 -9,24 -4,10 -8,19 -11,29 -3,8 -6,16 -9,24 -4,10 -7,20 -10,30 -3,7 -6,15 -9,23 -3,11 -6,21 -10,31 -2,8 -4,15 -7,23 -3,11 -7,23 -10,35 -2,6 -4,13 -6,19 -4,16 -9,32 -13,48 0,2 -1,5 -2,7 -4,18 -9,37 -13,56 -2,5 -3,10 -4,16 -3,13 -6,26 -8,39 -2,8 -3,15 -5,23 -2,11 -4,22 -6,34 -2,8 -3,16 -5,24 -1,11 -3,22 -5,33 -1,8 -3,16 -4,24 -1,11 -3,22 -4,33 -1,8 -2,17 -3,25 -2,11 -3,22 -4,33 -1,9 -2,17 -3,26 -1,11 -2,22 -3,33 -1,8 -1,17 -2,25 -1,12 -1,23 -2,35 0,8 -1,16 -1,24 -1,13 -1,26 -2,39 0,7 0,13 -1,20 0,19 0,39 0,59 0,20 0,40 0,60 1,6 1,13 1,19 1,13 1,26 2,40 0,7 0,15 1,23 1,12 1,24 2,35 1,9 1,17 2,25 1,11 2,23 3,34 1,8 2,16 3,25 1,11 2,22 4,33 1,8 2,17 3,25 1,11 3,22 4,33 1,8 3,16 4,24 2,12 4,23 5,34 2,8 3,16 5,23 2,12 4,23 6,35 2,7 3,15 5,22 2,13 5,27 8,40 1,5 2,10 4,16 4,18 9,37 13,55l2 8c4,15 9,31 13,47 2,7 4,13 6,20 3,11 7,23 10,34 3,8 5,15 7,23 4,10 7,21 10,31 3,8 6,16 9,24 3,10 6,20 10,29 3,8 6,16 9,24 3,10 7,19 11,29 3,8 6,16 9,24 4,10 8,19 12,29 3,7 6,15 9,22 5,11 9,20 14,30 3,8 6,15 9,22 5,10 10,20 14,30 4,7 7,14 10,21 5,11 11,22 16,33 3,6 6,11 9,17 8,16 17,32 25,48 3,5 6,10 9,16 6,11 12,22 19,33 4,7 8,13 12,20 5,9 10,18 16,27 4,8 8,15 13,22 5,9 10,17 16,26 5,7 9,14 14,21 5,9 11,17 16,25 5,7 10,14 15,22 5,8 11,16 17,24 5,7 10,14 15,21 5,8 11,16 17,24 5,7 10,14 16,21 5,8 11,15 17,23 6,7 11,14 16,21 7,7 13,15 19,23 5,6 11,13 16,20 7,8 14,16 21,24 7,8 14,16 21,25 10,11 19,22 29,32 6,7 12,13 18,20 7,7 13,14 20,21 6,7 12,13 19,20 6,6 12,13 19,19 6,7 13,14 20,20 6,7 13,13 19,19 7,6 14,13 20,19 7,6 14,13 20,19 7,6 14,13 21,19 7,6 14,12 20,17 7,7 14,13 22,19 6,6 13,12 20,17 7,7 15,13 22,19 7,5 13,10 20,16 8,6 16,12 23,18 7,6 14,11 21,16 7,6 15,12 23,18 7,5 15,10 22,16 16,11 32,22 47,33 6,4 12,9 19,13 8,6 17,12 26,17 7,5 13,9 20,13 8,6 17,11 26,17 7,4 13,8 20,13 9,5 18,10 27,15 7,5 14,9 21,13 9,5 17,10 26,15 7,4 15,8 22,12 9,5 18,10 27,15 7,4 14,8 22,11 9,5 18,10 27,15 7,3 15,7 22,10 9,5 19,10 28,14 7,4 15,7 22,11 10,4 19,8 29,12 6,4 13,7 20,9 10,5 21,9 31,14 3,1 7,3 10,4 25,10 50,20 75,29 5,2 10,4 15,6 11,4 21,8 32,12 7,2 14,5 21,7 11,4 21,7 31,11 8,2 15,4 23,7 10,3 20,6 31,9 7,2 15,5 23,7 10,3 20,6 30,9 8,2 16,4 24,6 10,3 21,5 31,8 8,2 16,4 24,6 11,2 21,5 31,7 8,2 16,4 24,6 11,2 21,4 32,6 8,2 16,3 24,5 11,2 21,4 32,6 8,1 16,2 24,4 11,2 22,3 33,5l0 747z"/>
    <path class="fil3" d="M5163 1673c1567,180 2785,1511 2785,3127 0,1489 -1034,2736 -2422,3064l0 321 257 0 -310 538 -310 537 -310 -537 -310 -538 257 0 0 -978c135,0 267,-11 396,-32 8,-2 16,-3 24,-4 10,-2 21,-4 31,-6 8,-2 17,-3 25,-5 10,-2 21,-4 31,-6 8,-2 16,-4 25,-6 10,-2 20,-5 30,-7 9,-2 17,-4 25,-6 10,-3 20,-5 30,-8 8,-2 16,-4 24,-6 11,-3 21,-6 31,-9 8,-2 15,-5 23,-7 10,-3 21,-6 31,-9 7,-3 15,-5 22,-7 11,-4 21,-7 31,-11 8,-2 14,-5 22,-7 10,-4 21,-8 31,-12 6,-2 11,-4 16,-6 25,-9 50,-19 74,-29 4,-1 7,-3 11,-4 10,-5 20,-9 30,-14 7,-2 14,-5 21,-9 10,-4 19,-8 28,-12 8,-4 15,-7 23,-11 9,-4 18,-9 28,-14 7,-3 14,-7 22,-10 9,-5 18,-10 27,-15 7,-3 15,-7 22,-11 9,-5 18,-10 26,-15 8,-4 15,-8 23,-12 8,-5 17,-10 26,-15 7,-4 14,-8 21,-13 9,-5 18,-10 26,-15 7,-5 14,-9 21,-13 9,-6 17,-11 26,-17 7,-4 13,-8 20,-13 9,-5 17,-11 26,-17 6,-4 12,-9 18,-13 16,-11 32,-22 47,-33 8,-6 15,-11 23,-16 8,-6 15,-12 23,-18 7,-5 14,-10 20,-16 8,-6 16,-12 24,-18 6,-6 13,-11 19,-16 8,-6 15,-12 23,-19 6,-5 13,-11 20,-17 7,-6 14,-12 21,-19 7,-5 14,-11 20,-17 7,-6 14,-13 21,-19 7,-6 14,-13 20,-19 7,-6 14,-13 20,-19 7,-6 13,-12 20,-19 6,-6 13,-13 20,-20 6,-6 13,-13 19,-19 6,-7 13,-13 19,-20 7,-7 13,-14 20,-21 6,-7 12,-13 18,-20 10,-10 19,-21 29,-32 7,-9 14,-17 21,-25 7,-8 14,-16 21,-24 5,-7 10,-14 16,-20 6,-8 12,-16 18,-23 6,-7 11,-14 17,-21 5,-8 11,-15 17,-23 5,-7 11,-14 16,-21 6,-8 11,-16 17,-24 5,-7 10,-14 15,-21 6,-8 11,-16 17,-24 5,-8 10,-15 15,-22 5,-8 10,-16 16,-25 5,-7 9,-14 14,-21 5,-9 10,-17 16,-26 4,-7 9,-14 13,-22 6,-9 11,-18 16,-27 4,-7 8,-13 12,-20 6,-11 13,-22 19,-33 3,-6 5,-11 8,-16 9,-16 18,-32 26,-48 3,-6 5,-11 8,-17 6,-11 11,-22 17,-33 3,-7 6,-14 9,-21 5,-10 10,-20 15,-30 3,-7 6,-14 9,-22 5,-10 9,-19 13,-30 3,-7 7,-15 10,-22 4,-10 8,-20 12,-29 3,-8 6,-16 9,-24 4,-10 7,-19 11,-29 3,-8 6,-16 9,-24 3,-9 7,-19 10,-29 3,-8 6,-16 8,-24 4,-10 7,-21 10,-31 3,-8 5,-15 7,-23 4,-11 7,-23 11,-34 2,-7 4,-13 6,-20 4,-16 8,-32 12,-47 1,-3 2,-5 2,-8 5,-18 10,-37 14,-55 1,-6 2,-11 3,-16 3,-14 6,-27 9,-40 2,-7 3,-15 5,-22 2,-12 4,-23 6,-35 1,-7 3,-15 4,-23 2,-11 4,-22 6,-34 1,-8 2,-16 3,-24 2,-11 3,-22 5,-33 1,-8 2,-17 3,-25 1,-11 3,-22 4,-33 1,-9 2,-17 3,-25 1,-11 2,-23 3,-34 0,-8 1,-16 2,-25 0,-11 1,-23 2,-35 0,-8 1,-16 1,-23 1,-14 1,-27 2,-40 0,-6 0,-13 0,-19 1,-20 1,-40 1,-60 0,-20 0,-40 -1,-59 0,-7 0,-13 0,-20 -1,-13 -1,-26 -2,-39 0,-8 -1,-16 -1,-24 -1,-12 -2,-23 -2,-35 -1,-8 -2,-17 -2,-25 -1,-11 -2,-22 -3,-33 -1,-9 -2,-17 -3,-26 -1,-11 -3,-22 -4,-33 -1,-8 -2,-17 -3,-25 -2,-11 -3,-22 -5,-33 -1,-8 -2,-16 -3,-24 -2,-11 -4,-22 -6,-33 -1,-8 -3,-16 -4,-24 -2,-12 -4,-23 -6,-34 -2,-8 -3,-15 -5,-23 -3,-13 -6,-26 -9,-39 -1,-6 -2,-11 -3,-16 -4,-19 -9,-38 -14,-56l-2 -7c-4,-16 -8,-32 -12,-48 -2,-6 -4,-13 -6,-19 -4,-12 -7,-24 -11,-35 -2,-8 -4,-15 -7,-23 -3,-10 -6,-20 -10,-31 -2,-8 -5,-16 -8,-23 -3,-10 -7,-20 -10,-30 -3,-8 -6,-16 -9,-24 -4,-10 -7,-19 -11,-29 -3,-8 -6,-16 -9,-24 -4,-9 -8,-19 -12,-29 -3,-7 -7,-15 -10,-22 -4,-10 -8,-20 -13,-30 -3,-7 -6,-14 -9,-22 -5,-10 -10,-20 -15,-30 -3,-7 -6,-14 -9,-20 -6,-12 -11,-23 -17,-34 -3,-5 -5,-11 -8,-16 -8,-17 -17,-33 -26,-49 -3,-5 -5,-10 -8,-15 -6,-11 -13,-22 -19,-33 -4,-7 -8,-14 -12,-21 -5,-9 -10,-18 -16,-27 -4,-7 -9,-15 -13,-22 -6,-9 -11,-17 -16,-25 -5,-8 -9,-15 -14,-22 -6,-8 -11,-16 -16,-25 -5,-7 -10,-14 -15,-21 -6,-9 -11,-17 -17,-25 -5,-7 -10,-14 -15,-21 -6,-8 -11,-16 -17,-23 -5,-7 -11,-15 -16,-22 -6,-7 -12,-15 -17,-23 -6,-6 -11,-14 -17,-21 -6,-7 -12,-15 -18,-23 -6,-6 -11,-13 -16,-19 -7,-9 -14,-17 -21,-25 -7,-8 -14,-16 -21,-24 -10,-11 -19,-22 -29,-33 -6,-7 -12,-13 -18,-20 -7,-7 -13,-14 -20,-21 -6,-6 -13,-13 -19,-20 -6,-6 -13,-12 -19,-19 -7,-7 -14,-13 -20,-20 -7,-6 -13,-13 -20,-19 -6,-6 -13,-13 -20,-19 -6,-6 -13,-12 -20,-19 -7,-6 -14,-12 -21,-19 -6,-6 -13,-11 -20,-17 -7,-7 -14,-13 -21,-19 -7,-6 -14,-11 -20,-17 -8,-6 -15,-12 -23,-19 -6,-5 -13,-10 -19,-15 -8,-7 -16,-13 -24,-19 -6,-5 -13,-10 -20,-16 -8,-5 -15,-11 -23,-17 -8,-6 -15,-11 -23,-17 -15,-11 -31,-22 -47,-33 -6,-4 -12,-8 -18,-13 -9,-6 -18,-11 -26,-17 -7,-4 -13,-9 -20,-13 -9,-6 -17,-11 -26,-17 -7,-4 -14,-8 -21,-12 -8,-6 -17,-11 -26,-16 -7,-4 -14,-9 -21,-13 -9,-5 -18,-10 -26,-15 -8,-4 -15,-8 -23,-12 -8,-5 -17,-10 -26,-15 -7,-3 -15,-7 -22,-11 -9,-5 -18,-10 -27,-14 -8,-4 -15,-8 -22,-11 -10,-5 -19,-9 -28,-14 -8,-3 -15,-7 -23,-10 -9,-5 -18,-9 -28,-13 -7,-3 -14,-6 -21,-9 -10,-5 -20,-9 -30,-14 -4,-1 -7,-2 -11,-4 -24,-10 -49,-20 -74,-29 -5,-2 -10,-4 -16,-6 -10,-4 -21,-8 -31,-11 -8,-3 -14,-6 -22,-8 -10,-3 -20,-7 -31,-10 -7,-3 -15,-5 -22,-8 -10,-3 -21,-6 -31,-9 -8,-2 -15,-5 -23,-7 -10,-3 -20,-6 -31,-9 -8,-2 -16,-4 -24,-6 -10,-3 -20,-5 -30,-8 -8,-2 -16,-4 -25,-6 -10,-2 -20,-5 -30,-7 -9,-2 -17,-4 -25,-5 -10,-3 -21,-5 -31,-7 -8,-2 -17,-3 -25,-5 -10,-2 -21,-4 -31,-6 -8,-1 -16,-2 -24,-3 -11,-2 -22,-4 -33,-6l0 -747z"/>
    <path class="fil4" d="M4800 3527c471,0 883,256 1103,636l551 -318 110 -64c-352,-609 -1010,-1018 -1764,-1018 -1125,0 -2038,912 -2038,2037 0,1125 913,2037 2038,2037 754,0 1412,-409 1764,-1018l-110 -64 -551 -318c-220,380 -632,636 -1103,636 -703,0 -1273,-570 -1273,-1273 0,-703 570,-1273 1273,-1273z"/>
   </g>
  </g>
 </g>
</svg>
